<mxfile host="app.diagrams.net" modified="2023-12-18T05:38:56.346Z" agent="Mozilla/5.0 (Windows NT 10.0; Win64; x64) AppleWebKit/537.36 (KHTML, like Gecko) Chrome/120.0.0.0 Safari/537.36 Edg/120.0.0.0" etag="qyTDGFgHe4VZqc8j7oUi" version="22.1.11" type="onedrive">
  <diagram name="第 1 页" id="JfQfRkVWCukVvgATt568">
    <mxGraphModel grid="0" page="0" gridSize="10" guides="1" tooltips="1" connect="1" arrows="1" fold="1" pageScale="1" pageWidth="20000" pageHeight="40000" math="0" shadow="0">
      <root>
        <mxCell id="0" />
        <mxCell id="1" parent="0" />
        <mxCell id="JfSDcFE3YVz7al9o-e-t-1" value="" style="shape=image;verticalLabelPosition=bottom;labelBackgroundColor=default;verticalAlign=top;aspect=fixed;imageAspect=0;image=data:image/png,iVBORw0KGgoAAAANSUhEUgAAAscAAAGhCAYAAACNsxn0AAAAAXNSR0IArs4c6QAAAARnQU1BAACxjwv8YQUAAAAJcEhZcwAAEnQAABJ0Ad5mH3gAAODgSURBVHhe7J0JnI3V/8e/KBUaPzFjZszYomzDv8igKPsQsi9l32WJLJMle2SQJaKfLRSD7GFsLZQt8mMsFWEYs5KMrUj9z+fMee7cuWa5985dnufO9/16nddzn/M8xl3P+Zzv+S45/hUQwzAMwzAMwzCUUx0ZhmEYhmEYJtvD4phhGIZhGIZhFCyOGYZhGIZhGEbB4phhGIZhGIZhFCyOGYZhGIZhGEbB4phhGIZhGIZhFCyOGYZhGIZhGEbB4phhGIZhGIZhFCyOGYZhGIZhGEbB4phhGIZhGIZhFCyOGYZhGIZhGEbB4phhGIZhGIZhFDn+FajHDMMwTCYcOnSI9u3bR1evRlF09GVxjBYtVjyOp4CAwuTv7yeOAaIVpSJFilGtWrWoWrVq6l8zDMMweofFMcMwTCZAEG/atIY2btxEjz32LzVuXEEI37xCAP9HHAvIo5/ffyg29g8hkv8QYhnHG+J4h7ZvP0V//52DWrRoTs2bt2OhzDAMo3NYHDMMw6TD0qVLadq0yUIQPxTiNkiI20pUpUoxddV6jh2LEsL6hGiRQijnotDQMdS9e3d1lWEYhtETLI4ZhmEs2L9/P40bF0oPH96mCRMa0GuvPaeuZJ1vv/2Vxo/fTbly5RXHaVSzZk11hWEYhtEDHJDHMAyjiI+Pp759u1K7di2pQ4cy9N13AxwqjAH+3rff9qf27Z8XraX4/7rI/5dhGIbRB2w5ZhiGERw/flyI4lbUvHlZCgt7Q/W6g97qyDAMw7gDthwzDJPt2bVrF9Wp8yoNG1bbzcKYYRiGcTcsjhmGydZ8/vkKatq0CS1b1ol69w5Wve7jiy+Wq0cMwzCMO2BxzDBMtmXx4kUUGvouff31YJmJQg+MGDFUPi+GYRjGPbDPMcMw2ZKjR4/SSy+9REeOjBTH4qrX/fz44yWqWnWqOP5IVapUUb0MwzCMq2BxzDBMtuPBgwdCEFekAQOqU8+e+ivKsWjRIfrkk0NCuJ+gxx9/XPUyDMMwroDFMcMw2Y6uXdtTvnxJNG9ec9WjPwYM2ES3b3vRZ5+Fqx6GYRjGFbDPMcMw2YpZsz6i3347qWthDPD88DzxfBmGYRjXwZZjhmGyDf/88w8FBvrSpk09deVnnB7wP27efDFduRJHOXOyLYNhGMYVsDhmGCbbMH36VDp+PIJWrXpL9WRM+K4C1GFUSXWWMV55H1K5kn9Sy9p/0PDOcao367z55hf0wgshNHz4SNXDMAzDOBMWxwzDZAv+/vtvCgz0o6++6k2VKxdTvdYBkdzng2KUdCeX6iFaPeUCtW9wgyIO5KePvvCh3Ye91BWisiX+pB1zz1Exv/uqx36OHYuiJk3+S1euxNJjjz2mehmGYRhnwft0DMNkC2bOnEZ161awWRgDiGBYhdMipMZN2jX/HNUPTlI9RGcvPkkTF/mrs6yB54vnjefPMAzDOB8WxwzDOJyIA0nUJvQC5X/1f5SjyjF5xHlUbNYtqfby0UezaOjQV9SZ4+n+xjX1KJmlWwqqR1kHzxvPn2EYhnE+LI4ZhnEo01fEU6NB5+jLvTco6c5D2Ycjziu2P+MWgfzdd99R8eLe9MILgarHWOB54/njdbgDfGaDZ16hcm1Oy8UOWoP+5yh81+/qDoZhGM+BxTHDMA7j0w2JtPtwEh1eXob+PVqZVk8pQWVLPKmuJovkWavi1Znr2LnzK2rQoIw6cw0I0HMkeP54Ha4GwhiLnTmrEyjAJ7f8XMMGBcjPucOoi9RjYpS6k2EYxjNgccwwjEOAiNpz+Bbtml+aqpbPK/vaN3iGPhrifmvtzp07hLgsrc6cw9LNhdSjZMb0cFzGCoDnj9fhatqPukBnLyb7W7eq+x95HN65MNUPTg5AXLrlmlwUMQzDeAosjhmGcQjF/HLTummPpj0ztxyDakHJwtlVXL58WbSrVLNmKdXjWJDJokH/0qZsFQE+D2jhqCiHpnMDeP54HXg9rgK+44ci76gzovz5UrJ1BFdI+RwnL3bsa2UYhnEnLI4ZhnEqmhuFV95ccjse1mRXsnPnTmrYsJw6cxzIf5yjSmV51IRxtaA7tGhMFPVpmTo4z1HgdeD1uIofTtxWjx6l/LMpi57ohPvsf8wwjMfA4phhGKcAsYQMFfBVBeVKPkmvVs4nH7uS8+d/pgoVCqszx4E8x/8ePSbbjrnnpTA+FJmXGg0qRYGNK8r8x44GrwOvx1Xcumu937S5hZlhGMbIOF0c58iRwzCNYRjHgMwGCNZChgoNiKf6b5+TW/WuJD4+lnx9Uwp0OAPkOg4XYlkjOuFxajeyhMMFMl4HXo+rKOKdWz1K5krcA/WIYZi0QLYePWV1SUvr6LXpCadXyMMLPmqAInxVxPPkYoEM4zgggpdsvpZKIAO4V5wMLyd9lF1BSEhtGjy4ojiWVz32Ub1bGWkZ1tAq5JljeU/rujdo3bQU0azRJrSkENC56eAy26zAERGnafbsk+L4jepxLkdO36HgLinPsXXdAia/ckz4WABpvNPBh2YPNWaqPIbJKghIRvBqejsocClDIKurYQ1mH+xWwTCMUwip4SWF1I65pR9J57Z2d2pR6Uzi4uKocGHnWo7TAwLYHIhn+Cl/ubeA6rENvI64ONelwkPWEUzqGljoaFYwSyvy03lSgvUYJrsxcVFshq5FI+ZGy8UmYwxYHDMM41Qgkj8bX1xajDWuJrquEEh8/DWnu1VoRMenFsMBPimvE9Zic6uyPSS7Vbg2bRqsXQtHFTVlGYG1GNvGy7amDjp8uZLr/ckZRg9A9GLhiIUk8oCjjenhp66msCqCg1aNAotjHYEf2PsLYqh6t59NZXcZxhOABRJb8u4gLs414vjTDYWkr7E5Pd64rh6RdK9A8B5SvdnDxIlf0Zgxm+XrcTV9WnrTwWXJhV3QzqwrLwuCaOAxFkEMkx05/std+nR00VRuE5P6+acpkBljwOJYB0AUI6ofvn2Tl8RSdPwDGtTeR1YZYxhP4em8KcNNSHXHZ3JID1/fQnTtWvopyawBuYzPXEidr3n3oeTXEBWbmwbPDKQRc1LcD1AdD7mOEajnKMaObSJFfq5cuei1116jlStXqiuuB2MWKuRpYLximOwKFo9ppajs2Tx1YSDGOLA4djOoLIUIfmzJaHlgr2wPkqtOrcoYwxgBRGljtwM7H2llpLh15x95xPa8K62MhQt7U2ysfRkyIIq1XMZJd1L71C7dUlBeK940iOas9hG/33+ofnASjekRSyfDzzgl13Hr1pWpQoXnaODAgbR69WoqUqSIEM1jKSrKtSWcx3wSox4lf57uCDRiGKPhSqMAkzVYHLsRiIm+Uy7LACUI4zVTS/IkwxiWDd8kB9khKKXRoHMynZsWgILvurYAHNfLX/Y5kz/++IO+/fZb6tatGz18+C/FxdlnwUU2Ci2XcWbtyvaTtGv+ObGwjaFifs7xqY6PTyJf38LUqlUr2r59O+3YsYNu3rxJ5cuXpzfffJP27Nmj7nQe+Fw1qzECLcOnPFoVkWEYooORKTtWrjYKMFlDl+J4hZhIu3X7mapUOSbbq6/+j0JDL9AGVb8f14wORANcKDTgr8Q/HMbIlCvxlHqUDIp/wFUI1mREamsLQGd+zyGIhwwZQiVKlKAJEyZQpUqVKCioPMXGOs69wZ1A5Pv6pvgxVqxYkebMmUMJCQlUvXp1GjZsGL300ku0cOFCevDAsTmJMWYhZ6tW1AWTPTKRuColH8MYjd2Hbskjxr45wzjNoZHQXZ7j/mLwPXw4iTp08KE33yxMfmLgPS0G5YiI32m1GpTB0aOV1SPH4Ooce9h61tK+mOcOZRgjA6virkNJdPbin/IckwIq47WsXcBpuyIQxGibN2+m//znP2Ix/So1b96c/u///k9eDw0dSs88c1EcQ+S5u0H1PATuoaKerXmOP/wwgm7cKEHTps1UPY8SERFBS5Ysod27d1OPHj1kK1fO/vLZcP3ac/iWtPwDBN/Bx5h3uRgmfZD3uGL7M3Jn2F05jkFmGmymGLPNtZWtOEqLcZ7jDJg4MUoK46CgvDR0aKAUxqB8+eTzQWb5No0M8oSa50OsF/y0esQwxgZFIJDJQMtqcPO7/5NZDhw9MVy6dInGjx9PL7zwgnSdAMuWLaNvvvlG9mvCGJQqVYYiI12XG9iZnDoVL19PRoSEhNC6devEpHWUnnjiCRm898Ybb9CWLVvUHdaDRTxcv6IT7lP3ZoVkSjfERLAwZpiM6TU5Sgpj/G70/nvJmzeX1FdbtwZJsZuW4J0ypYTp2ty5paVO82R0JY73KstEfPwDihWrLks6iy8YLMpGZ/3eP9SjZHCupW7DEZkrsOpkGCYF+BHPnj1bCuLatWvLIDQI4uPHjz8iiM1p2LAh7dx5Rp0ZG7wOvB5rKFWqlJjQpkiXC4jjadOmSQvyzJkz5XtpDVr6NhyXjC0mo/IZhskYxFjALx+7wvjd6J2pU0tKfaUZJDOjRg0vMfaWoRJmxZ08DV2J4ztilQUSEu6LVcw52pVGPXK4WmCVY2TMrcYIaJn8tr8sp1s/2EuuNLF9iYAmFshMdgcibtOmTVIMQxTDdWLcuHFSEEMYQxDDlSIjihYtKloA7d9/XvW4B606npYLGQVBcI40cNaA54/XgddjK927d6cffviBPv30U4qMjCRvb2/q27cv/fjjj+oOhmEcATL1IJ4oLXdJ7BpDOOsJ7MpD7NrDunVZK8mvZ3SbreLixT9p1KiLMvjOXCRjZVOhgrHN+dii1ID/HlK2IagFIlkDPpvDZkerM4bJPphnmoAgRsAZLJ8QxHCbgD9xZoLYkoYNQ8Q48qs6cw/wL04ry8XsoVfUHRmD54/XkRVq1qxJn332GV2+fJkCAgKobdu2VK9ePZkWjmGYrAGDVruRF6hBteTS+eYgoBUlpoNKpQ5cZvSJrsRx3TQqaEVG3nlEJM+fX1oejYilNRjBShoQyeZVpxDYxDDZhbQyTWiCePDgwTYLYnMaNmxCO3caO8sNnj9ehyPw8/OjMWPG0MWLF6lXr17SCl+sWDGaOHEiXb16Vd3FMIy1YG7Hjq+2+ws3SfOGzD0wenFWKmOgK3E8eHBAui4TmkhG0F5a/shGIbO0RwGFU8rP4kfGMJ4MBLEWWAdBnD9/fimGHSGIzUEGi6ioRCG2rbPS6g0876ioa/J1OJp27drRrl27aMOGDRQXF0clS8L/sDN999136g6GYTIDAXhalp70QPpDxhjoShzDZSI8vFyGUZBbtlyT/shGxtw6fPhUiv+xJUiDxTCehi2ZJhzJu+8OoZkz96szY4Hn/e67g9WZc6hcuTJ98sknlJiYKD+b/v37y9zJixcv1lWKJYbRGz0mRqUqp54elrngGf2iuzzHGigEEh6eIIPz0qJHDz/q189xlbZcmWMPP6SlQuQDCGWkRtIwz3+MAL1dBnYhYRgN+BHD13X58uXyMdKLvfPOO1S8eHGHWYcz4++//6aAAF/atq2PEIL6jyDXOHYsil5//VOKjo6jxx57TPW6hq+++krmTP7+++9NOZNLl+YxiWGMgr0aDAXYzEEqtwYNnlFnjofzHFsJ0opsF6IRuffSsiR//XVy2jdHUrVqVWktwSR++vRp1et4xvbyM1mFEZyH6FaNm7dTXCm6v1FQPWIY4+GITBOOBMJy6NAh9NFH36seY4Dni+ftamEMmjRpQhs3bqT9+/fTw4cPKTg42FS6mmEYxlPRjeUYwXa//fZnutbgBQtipCVZS/cG0kpUDYvz3LnRaV7LCKxaYB1BaiOtIT8oSrFCNOOIVqRIEfUvsgYEMaJa4VcMP6TwKSUp4uBNmXAfuLOiDsPYCwTx//73P2khhj8xLMPINNG1a1eXCuH0+Oeff6T1ePPmnuL3XFz16pcff7wk3r/F0mqcM6f7bRkQyLAko927d89kTc6XL5+6g2EYd4GxV6sWinEXcRtsObYPXYnjRYtiM8ybpwlf4OOTW1qWNSxLINojji3fCohjc7GMlidPnlRiGS1vXvuc7JHaBTkP4UYBCzKsycEV8kqLcXsnfgkZxtFoAzJ2XWAR1pMgtmTWrI9ow4bFtH+/c314HUHNmrOpZcueNGTIu6pHP3z99ddSJMOyrIlkZ/mLMwzzKJoxQht/Ec+hVcTUUl66QxxDzyGBwvLlZWSFY2tgcZwO2ps5alRRMRmkX4VJ+8CQ9m2ayiNoLpo1HCGO0+LcuXN05MiRVIIZVacgkjXRzBMEkx3AgKwNyhiEkUkBA7IRvv/durUTi9pbNG9ec9WjPwYO3ERJSfnEBLNW9eiTK1eumKzJ5cuXlyK5TZs26irDMI5EE8Na/AZ25zIae10pji21GIvjDLBVHCOV2+jRRdP8EMzv+eST0o+86aGhF0wlqJ0ljtMCAtlcMGP1Zm5ZhmjGF5hhjA6+27AOQxBjYO7SpYthBLE5Dx48EL/LSvT228HUq1d11asfFi8+RPPnHxLjygl6/PGU9I5654svvpAiGaW9e/bsKYWyj4/xS/4zjLvQrMMYcyGKgWYdxrib2e6cq8Sxps/MYXGcAbaKYw1Yht94o5CprOGGDYk0Z05ycnrUAU+r3KG7xLEl+DJbCmZgKZj1uOVsZFAeF4FDV69eVu2qaLGixVORIj6i+Uuf8SJFisqGamEvv/yy+tdMeuD77O5ME87g6NGj8rd45MhIcdTP4hV+xlWrTpXjRpUqVVSvsTh8+LDJmowFFEQy/9YYxjrMd+Uw5mZmHc4IV1qOgbmLK4vjDLBFHG/efJ3GjCkmS0fv2XODDh1KMqVyK1HiSQoKyke9evnJfMhpoRdxnBawuGlCWRPN+MJbCmbGNlCoYPPmdbRp02by8nqSGjYsK4RvHtH+I1oBefTzy0+xsTeFSP5DtBvqeJsiIs7SrVv3xYDTTCzE2jqlwIJRwYCMwRmlm/HdxXcVghjC2JMWdYsXL6Jx40bS2rUQb8+qXvfxww/nqW3bpTRhwlTq2bOX6jUuv//+u0kke3t7S5EMX3TGdrTFf3R0FMXEXBFjGBb/MaIliHGOF/9GRhtvIYaR4QfjrS3W4YywRxynZQWGwRKF2tLTXxosjq3E3lWLPehZHKcFtkrMxfKZM2dSiWW05557Tt3NmDNv3jyaPn2qmHDzigGknGiVqGJF2zOJnDwZLQajk2JQOkOJibdpxIiRNGDAQHU1e4EBGt9JvWaacBZffLGcunXrKQRyL7FQcp97yMaN/6N27RbR0qWLqGNHzxOQCNyDSD527JgUyWgoFc6kT+rF/xNq8Z9XtMwW/3do586zlJT0l/hOvyF+x2148a8jtLHWUdbhjLBFg6Ulii1Bat1ly8qos0dhcWwlLI6t586dOybrstbQZymYs7MP37Zt22jChFFUqNATNH58Papa1XHb4UeOXBJ/e48QyX/RuHFT6PXXX1dXPBttgDZCpglngfLJbdu2orCw1tS7t+t9kP/73wNiYbZeCPT11KBBA9XrmZw6dcpkTW7UqJEUyZ7+mm1l3ryPxXdxqhjr8/Hi30NIyzqsZZXAY2eNt67UYIDFsZWwOM4a2DqzFMzYnrQUzLlzZ7zVYXTOnj0rBGuoEA9NVI+r6a2OngEGaW2gxqDsDIuF0UBxkrZtW1CLFuXEIqkxPfWU839T9+7dF9/rbWKy/JnWrNkgi6VkF/766y+TSAaaNfmJJ56Q59kRbfHv7f2E+F7w4t/IWFqHzdOsYZx11VjL4tg+XCKOXUbJaUQF6iY/PmZ7IIsexXFaoHqfpWC2FMtIqeQp7Nmzh9q3b0NDh9ahkSMbql5XY3xx7CmZJpxJfHy8EA4jaOvW7TR+fBOnZrJYtOiA+L++ombNGgvRMp0KF86+RX9guYdI3rFjh0kkV6hQQV31fLD4Hz8+lCIjT4rvRAi1a/eiuuJ41qw5Jv6vCAoKqii+d2FUtmxZdYXJKhhjYRXWxLC5q4QzrcMZ4VINBgKHEvl0SH78cxeiO9ZXG85W4tiVtAm9QF8qy/G/NlqOjcz9+/cfEcuJiYmPCGZHVfdzJStXLqfu3XuIAb0vtWxZUfW6npUrc1OnTsbzA4UI9sRME84GgU/YqXj48LYQEA3E++Y43/9vv/1V/O1d9Nhj+YRImSYDp5hkLl68aLImV65cWYrkFi1aqKueCS/+jUtG1mEI4uw4xg6eeYXmKMvx4eVlqKqVlmO94RHi2PzDMAdlmQ9m4DjuyaRV3Q+V/CwFs73V/VxBWNgUmjdvLoWHd6EaNdybSaBo0fdp4MCBNHz4GNWjXzBgY7D29EwTrmDp0qU0bdpkIWQfCpEWJFolIdqKqavWc/RoFG3adII2boykv//ORaGhY8Sir7u6yqQFFnUQyVjoa9bkZ56xrkKXUdAW/+HhvalVK/ft4Kxc+ZhY/PP30RosxbAerMN6gsUxYzh+/fXXRwSzXqv7ffDBZNqy5XMxaXSmEiUKqV73ceHCNWrf/jN6443ONHq0/gSyZsHIbpkmXMWhQ4eEuF0vxO2XQij/Q40bI2tAfgoISM4YEBCArAH/odjYPyg6OjlrQPLxJm3fflYI4pxCWLcWE2grqlatmvqrjDUghRlEMr7bmkgODg5WV43L9OkfyMC71av1sPgfKxb//cXi/33Vw2ikZR2GEMb4ygaHFKaviKcRFpWKQYBPbrqyPUidGQcWx9kcy1LY+OGbi2U0CC1XggGoX7+eQpAMFYO2fixFly//LoTNDFqwYIkcGPWANmBn50wTrgZCed++fUL4RgkBfFm0aIqJiRXHeCGSCwux7CdagHiMfLPFqFatWiyIHQB2wyCSFy9eTMWKFZMi+a233lJXjQUW/5s3r6A1a7rqZvHfocNyataso1j8s0DWxLDmjmZuHeYYjewBi2MmFRgILAUz0ISyJpqdJb5+++03ISReEoNSZ2rcuJzq1Q/bt5+iLl1WCoF0lJ591j3WHgzamijG58CDNpPdWLdunRTKCE7WrMmBgYHqqr7ZvHmTWvwP093iPzh4Bi1cuEgssj3bz9sSzRUNYyqEMTDPLMHGhuwHi2MmU2BNthTMWElbCmZHULt2DWrUqASNGKHfhPVhYd/Sjh0X6JtvDqke54PPgDNNMExqIGQgktEQuAeRXKdOHXVVfyQv/quIxX8nsfjXXzYOLP47d15Jhw+7b/HvKsyNDGwdZixhcczYBSYliOT0qvtBMJcuXVrdbR3Dhr1LCQnHaMUK/W+Vdu68gry9q9DMmbNVj+PBgM2ZJhgmc27fvm0SyU899ZTJmpwrVy51hz6oXbuaWvzXVj36Iyxsr1j8R7l08e8KzK3D5iWaYWjgMZWxhMUx4xAsq/tBNN+9ezeVYEZLr7rf5cuXZSnZy5enygCnrBC+qwB1GFWSdsw9TyE1bqpex4ISrUWLjpSpp4oWLap6s442gHOmCYaxj+3bt0uR/M0335hEcpky7s9aNHToYEpMPCoW/51Vj36B9djH50WaMWOO6jEeGEvNA+lwjvFUC6Rj6zCTESyOGadhXt1PszBDHJuL5ZdfflneO3BgX8qbN4E+/DBEnmeFNqEl6cu9Bah13Ru0btoF1et4QkO3iwWAN3388SLVYx/aIM6ZJhjGcZw7d85kTX7llVekSG7SxD0VNh25+HcFzlr8OxtL6zAEMKdZY+yBxTHjUiyr+6GEKSLOg4LKy4nD2zufutM+omJzU/GmyWljvPI+pJPhZ6iY33157mgSE2/LCSQy8jSVKlVK9VqPNohzpgmGcR6Y4jSRfOvWLZM12cvLS93hfAYO7EV58iTQtGn2l2yOOJCf1u0pQGcuPkmHIlNyx5Yt8SeVL3mP6gUnUUj1JIo46EVnLz5Fs4deUXfYR2joV3Tvng/NnbtY9egPS+swdtu0QDocIYgZxh5YHDNup0+f7uTjc4smTaqveuxn8MxAmrM6xXVjTI9YmtQvRp05nrFjd1JCwtO0cOFnqidjMIhrAzlEMAeAMIzr+O6776RIXrNmjUkkoxKfMzl//nyWFv9HTuelMZ/40+7DyWIeYvidDvFSCGPhj+urIp6hZVsKUtKdZB/rdzokZFkcJy/+R4nF/ym7Fv/OwlIMQwCzdZhxNCyOGbdy8+ZNKlSoIF2/PpO8vJ5SvfYT2LgiRSc8rs6QgPwBXdl+Up05nqSke1Sw4FC6du065c+fX/WmhjNNMIy+gMuXZk1+/vnnpUhu166duupY+vbtKhf/EyfaXhoa1uJ2I0uYRG9GrmLYNWs0qDSdvfikQ8QxGDt2B8XHP02ffrpC9biejKzDGEdZDDPOgMUx41bWrl1LK1d+RFu3Zr106acbCtFnWwul2nIEq6dcoPYNbqgzx9O06RLq1GkotW3bVvUkD+icaYJh9M/q1aulSEaaNc2a7Ofnp65mjaws/mERrv92aZMwrhZ0hw4u+1k+Tg/t33Rrdt0h4tiaxb8zyMg6zEYFxhXkVEeGcQs7dmyhhg2fU2dZA8J4XK9Yqh+cpHqSWb+3gHrkHEJCSlNExCYpghEEUrt2bXrhhRfkwD5u3Dg6fvw4LVu2TA7qLIwZRl906NCB9uzZIxfqqHaIADT4/u/fv1/dYT87d+4U40Nlu3bF3pkRaBLGAK4UmVG1/B1qXfcPdZZ18LxDQl4QryNC9TgHjJ0Qw0OGDJFjJ3JWR0VFmcZPZB4ZP348C2PGZbA4ZtzKzp27xOD7vDqzH1hMAFK3taqb2kqMzBXYcnQWDRuWFeJ4N82ePVumYMN2nzag87YfwxgDZM9ZuHAhJSYmUlBQEPXp00dm01m6dKm6w3awaG7Y0LZ87wDpKM13wBBcbO3uV5t6jt0lS178b1RnjgPWYQheiGG0CRMmSOs0DAnIkjFr1iy548bjJ+MO2K2CcRsHDx6kvn070YkTI1SP/fSYWJzKFP+ThneOk+eWvsfODsz7v/8LowULVlL16tVVD8MwRmfLli3S5QJjVc+ePal79+42Baf5+3vTvn2Dxb/xVj3W0aB/aVMAHrDGpcJZnD+fSLVqzaaYmETVYx+adRg7ahDGQPMd5l01Rm+w5ZhxG7CsNmqUdasxrMK7DnmZhDGwtB7D5cKZhIQ8J18PwzCeQ7NmzaSYg6j766+/qEqVKtSmTRuKiMjczQCC2scnv83CGBw+lTpuIrjCHfXI9eD5e3s/LV+PLWhi2Nw6jJ21YsWKSeswdtfYOszoFRbHjNuIi7tK/v5ZzzW6dvcz1KBaaj/jN0N+V4+SgRUZAXvOAq8jLi7rATAMw+iPcuXK0cyZM6XLRd26den999+X1s6PP/5YVgJNCyyWsWi2B3NfYz3QqNFz9PXXu9VZ+mhxF926dZNFT+BDjKBETQyz7zBjFFgcM24jLi6GfH2zLo6XbS1IfVql3vJLDkxJbT22JjAPvn45qlQ2+TBbi69vfvl6GIbxXB5//HHq27evLGA0Y8YMZR32kZloTp5MnTISi2VHLP7BLTeLZX///6S5+E/LOowMPcgsASGsWYfZbYIxGiyOGbcRGxubZXEMMYu8nsFdykhRa94QiGcOfPjSE73TV/jKf9NhVEnVYxt4HXFxKW4dzKP0mBgl3uNjNHgmW9gZ41OvXj1atWqVrPqJQLJGjRpR48aNaf369fJ68uLfvvRnKPRhDqriuRO8jvj45PENghjBx8goAeswAumAZh3euHGjzPbB1mHGyLA4ZtxGfHw8+fllLXcmrMELR0XRv0ePpdlQBMQcVJKyBAJ7xNwi6sw+8Dri4jJPtZRdmb4inpZuuabOGMZzgA/txIkTZWERpIWDq0Xp0qXp6NHjdi/+qwel9jE+c8Ex4tienbE//rgrxrabdPjwMWkZhiBGpUEE0iGrhLmrBFuHGU+BxTHjNmJjE7JkOU5Od5SP+rRMX3R1bZr6GkqsWqZ1Q4okCGlUlbKXZMtx1qK5PZWIA0k0eUmsOmOMCj7HNqEXKP+r/5M7ADjiPCr2vrqD6dSpk3QzWLFiBV2/foPWr/9JXbENSzcx+CCjWp69ZGVn7LPPDtKqVUfo9u07pjRrmnWYxTDjqbA4ZtzKY4/Z50uHwb7PB8UooPD9DK0gPZunFseYZFBi1VafYsY+IJx6TY4S7/tD1cMYEVj+Gw06R1/uvWH6LHHEecX2Z1ggW4CUjv/++w9NnvyG6rENxExYLtaXbC6oHmXM+wv81aNksrozNnhwXdq9ezDdv/83W4eZbAOLY8Zt+Pn5UGys7dWcqncrIwd7CF0kytf8jS1BX/GmQeosBc1HefDMQNWTdeLiksjX1/aUTZ5O+1EXqFVdnkyNzKcbEmn34SQ6vLwM/Xu0Mq2eUoLKlkjZ5odInrWKXYrSwt7FP0D5Z/OgYsRQwCiQEW1CS9L6r1PHWjhiZwzcv/+AunTpQnv37lU9DOO5sDhm3EbhwoWFOL6pzqwHyfDN/Yq1Zkla95g3TD6OAq/D17ewOmMAAvDqVfWiakFspTcqsAjvOXyLds0vTVXLJ3+O7Rs8Qx8NcdzC0lPBYtme8c2cddMuyAJGqJAHYBSAADZ3scAuGEQzCh955f2Hdsw9p644Diz+ixb1lT7Hw4cPp4oVK8psHQkJWRPcDKNXWBwzbsPPzy/Lk4cemDDhK+rb9wu6fv0PaVX5+++/1ZXsC7bhYVGc1C/1Fi9jLIr55RYC7VE/VXPLMeAFUHI5ZGRxqF27tjxiseyI8Q2VPU+Gn6GwQVepfnCSjLNoNKiU3BlD6zq+OP186UlaP/03WjL2kvjMHO/ioi3+Bw8eTD/99JMMOjx79iwVKVKE3nrrLdq5c6e6k2E8AxbHjMtBKiAkh4+LuyYG3dTFO4zIuHFN6LXXnqM8efLS2LFj6amnnpJpniZNmkT79u1Td2UfELi14ZsbNGNwgOrxLH744Qf68MMPacCAftSyZRMKDn6BAgIKU44cOeQR5+gfOPBteR/u9zQ0NwqvvLmEaAuQ1uTshnnBC1hUcYyKipI5jxGs5uvr67DFPwQvKoDumn+Ormw/mWoH7My601IUw0/ZWcBy7OeX4tKBPMYoq/37779TjRo15LhXtmxZmjp1qszawTBGh8Ux4zI0UYyJBAQHVxMDqfHFMfDyykMtWrSWQggTBiwsSUlJNGzYMCGa88gcqBBKtpZgNRrYhn931hWaMyxQWh09BaSuevfdAVSyZCD179+Fbtz4gZ577ga99VYAzZkTIj7Xd+nBgwXyiHP0ly79u7wP9+Pf4d/j7xiZ8F2/ywwVc1Ynb6eXK/kkvVo5n3zs6VgWvEBKMxS8sCyH3Lx5cxm05uvr7xE7YwCp3Hx9/dRZCk8//bT4fvenw4cPS7GMxQHS2LVt25a++uordVf2AmMgsrmk15DlhQNY9Q+LY8bpWIpi5MXEJNKyZUuKiPhF9hmdiIhf5XYqwITRpEkTmj59Oh05coSio6OpT58+Mq8zJhIvLy9q2rSp9NlDpS1PAgF4Y3v5mfxTjc68eR9T0aL+NHRoLypQIJo2bepO//vfCJo2rSkNGlSHWrV6kapVK0GBgQXoscdyyiPO0Y/ruA/3b9rUTQimaCGQe8m/h79rNFC8pcOoizJDhcahyDtU/+1zcrfAE4GrhHn1N/OCF1pKs/TKIfv6BorFv2eI45iYP6hw4Yx3gmBBXrhwIV2/fl2W2IYVGUIZO2gQzdmFtbtTV2a1pFuzgh5lOPBUcvwrUI8ZxqFAFGMywdYjopyx1Vi8eHF1NRl/fx/at+8dKlXKfZkeEMySVqojFBDBFmZmnD+fSLVqzRETiHXBKQhigQVRazExMXKbUmtGrSwFqyLEk7Ug84Fe2bZtm/jujiJv7ydo3Lh6VLVq6u9tVjhy5JL423soMfEv8ben0Ouvv66u6B+I4CWbr6USyADuFSfDyxl+0tesw5s3b5bjFsar1157TRa8sDWNGXaJ+vXrJBdHegDZeeas9pGPDy//2SY3jEqVPhTC9wuZos4WYBxAzmc0uJp17txZWtY9mXJtTtPZi6krHJqDrC+eYjzwZFgc6wykTeo75bIMcDm4rIzqNRbWiGKN7t07UuXKOal//1dUj/GYP/87OnbsX1q6dJXqsQ346JmLZbx/5mK5fPny6k594wniGEFG48eHUmTkSSFcQ6hduxfVFcezZs0x8X9FUFBQRfF7CZM+m0YBIhnuM+YiAL7HwzsbK2MLfmuwDmuC+NKlS6nEcFYXqnpY/GvYK46TF/+zxSLe/iJHDx48MInky5cvS5GM9uyzz6o7PIMjp+9Qq+EX6Mr2R1OIMsaCxbGOwITTbuQFGeVvRHFsiyjWWLt2La1c+RFt3dpd9RiPpk2XUKdOQ6WfnSPABI1APk0s//XXX1Ik16pVSx6ff/55dae+MLo43rNnD7Vv34aGDq1DI0c2VL3uoLc66hsIAbhUaEVB3ungQ7OH6jvFm6UYxjnGKPyuYNHEY0cWueje/U2x+M8hFv+vqh7Xk9Wdsfnzv6WjR/+hZcvCVU/WQLYLTSi/8sorUiS3bt1aXTU2cD0Cev8dMJnD4lgnwEEfFag0S4yRxDHE3Jw5c2wSxRo3b96kQoUK0vXrM8nL6ynVaxySku5RwYJD6dq165Q/v/3lXTPi/PnzqSzLOXPmNFmV0UqWtL0krCuxFM16FFErVy4XQqYHhYf3plat3O3WYgxxDJDLeumW5CqUehXHmhg+ceJEll0lbCV58T9TLP57qB7j0bTpIrX4b696HAOkhyaSf/31V5M1Wa+Lf2sIbBxJ0QnJwXaYw8uVeIqqVshDfVpygSijweJYJzTof05WodIwgji2FMXI0GDPRNO3bzfy9r5FkyY1UD3G4f33Iygx8WlauHC56nE+2Po3F8v58uVLJZYDA/UlUPQujqdP/0AGyK1e3YVq1HD/Nu/06Qk0fPgYdaZvYCnTMlfsmFuaQmp4ycfuxNmuErbAi3/rOHnypFhErJRCuXLlylIkt2/vWDHubLDzCwNXWgT45KYxPX1ZJBsIFsc6QNuK0SYZoGdxjIkHKYyyKoo1YBkNCipPly9PFSLZOGmhEhNvU9GiIyky8jSVKlVK9boeTCwQyZorhre3t8kFAw3FVtyJnsXxBx9MFgJqBa1Z05VKlCiket1L1aozhJDrTKNHu18go5jLiLnRcjwa18v/EfGrWY7dOV5l5irhSjGcFn37dlGL/xDVYxzGjt1B8fH56NNPV6oe57Nq1SopkmHph0ju1KkTVahQQV3VL0hxaBmoaokRXI+YZFgcuxkE4K3f+4csz4ociBp6FMfmolhLdO+oLclBg/rQU08l0LRpjVSP/gkN3UZ37/rQxx8vUj36AD595pblokWLmoQyWqFCrhWBehXHmzdvon79etKhQ8PEe6SfIhaXL/9O1arNoAULlkhrpzup3u1nma5NA5/dmyHPyGh7COfJS2Jl/5qpJV1qNTYXw3isuUpgse5ov+GsYuTFf2DgSDp1yj2Lf+yQaW4X5cqVMwllvYL8xZr/fUYsHFWULcgGgMWxG8E2zIRFMRQ+paRMgaRXcexMUayBCGYk1ccEUqSIfia29Lh69Q9pNUauU4hPPYME/eZiuUyZMqnEsjO3S/XKb7/9JgRoFfG97kSNG+vPKrV9+ykh9FYK4X7UrRH95j7FaYHt4kVjijldGMMabC6GzV0ltKIbembgwF6UJw8W/8ZJ2xcaupXu3StMc+cuVj3uA77bEMmHDh0y+Sa7e0cgI2AQOP3bn7TnCMp9p84KgtLrZ9YZIwNRdobFsZtAAB4KJphvVepNHGuTkTNFsTnDhr1LCQlHxSDYUfXol86dV5C3dxWaOXO26jEO33//vRTJmhsGihtAJGuuGHnzen4Oztq1q1GjRiVoxIjkwi16JCzsW9qx4wJ9880h1eMe4Pa161CSKVgYOY1RGa9l7QJOS92md1cJW+HFv2M4d+6cyZqMQGRNKOfKlUvdoT/SSnuo5xzvTDIsjt0EAvBa1f1Pqu0VvYhjV4tic2rXri5ES0khWtyX+igzwsK+EaLlkhAtxi8FjZ+/uVUZDZWuNKsyWu7cnlXNaejQwZSYiEVYZ9WjX4y8CLMVczEMy7C5GNabq4Q9GOl716nTcipcuArNmDFH9eiPDRs2SJGM74wmkqtUqaKu6gvLbFQsjvUPi2M3kF4uRHeLY3eKYg1sdwcHV5ETSOPG+tt60st2t7O4f/9+KqF84MCBVEIZLUeOHOpu48EWPP1g6SqBcwjhSpUqGcJVwh6SF//Fdb5jsVcs/qPcvmNhLfhtaNZkf39/k1B+4okn1B36QCvwBVckLhKif1gcuwFzEZwZq6eUoPYNnBsshAkKPsU4uksUm4PJsm/fHnT4sP4CpYKDp9PChQiU8uwSqBp37tyRIllzwTh+/LgUyJoLBpL4GwlbfT/DdxWgDqOsyyPtlfchlSv5J7Ws/QcN7xynerNOaOh2unvXW3eBn7biaa4S9sC+7s5ly5YtUiRHRESYRHK1atXUVeei+ed3b1aIxvbye6SUuhaYzBkrjAGLYzegF3GMSQp5inEcN26c20WxOVqKrfDwrlSypPtTbF28eI3at19OzZp1pNGj31e92Q/kbTW3LP/8888mizJacHCwulN/ZCVrAERynw+KUdKdFN/G1VMuiN/mDYo4kJ8++sKHdh9OCUorW+JP2jH3nJggkwsCZAW9pAy0B093lbAHZElJXvwP1+ni/79i8d9K9RqT6OhokzW5QIECJqHszHgK83kdQXfI+20ukJHdZW54An2/5PlHhDOjP1gcuwF3i2M9i2JzUJzh44/nSoHszuIMBw78Rh06LKf+/d+mESPGql4GXLt2LZVYhtuCuVh+8cUX1Z3up2/fruTjc4smTrSvNHT1bmXoUGTK5KqJY40G/UunEsjdm12nJWMvqbOsMXbsTkpIQLGZz1SPPjF3lYB7FgSwq6rRGYkPPphEW7Z8LgvP6Gfxv4yaNu1IY8aMU72ewY4dO6RIho+yJpJr1qyprjoOy7SHEMgfDQmUAfdwqfhs6/U0c4Uz+oTFsY5wts8xJq0JEyZIC44e3Ceswd1lfTdsOE7t2i2ipUtRQrWb6mXSIzY21iSU4YqRmJgoRbLmhlGxYkV1p2txRKWyzMRxWi4Y/x61fiGcEa6qVGYrlq4SWoo1fNY4ZgdXCXsJC5tE8+bN08Xiv337z2jgwAE0fLjn7orFxcWZrMlPPvmkSSg7ag5E0N2sVfGyboFWQhqZXYIr5KX6wV5Oy+zCOAcWxzrCWeLYiKLYnD179ojBuw0NHVqHRo60z+pnDx9+uJNmzPhaTF7rqF69eqqXsYUrV66ksizfvn3bZFVGK1u2rLrTuSBP6sqVM2nr1h6qx3bcKY5B06ZLxAJtKLVt21b1uJ7M/Iazq6uEvaxcuUws/nu5dfHfvv0iWrLkv+K71V31ej67d++WIhnV+DSRXLu2foMkGdeTUx0ZDwQTGH7w3bp1k9uaCKbKaqlndwBhun//AfH8H1C5clNozRrHCY60WLPmqPh/PqCffrov/18WxvYTGBhIHTt2pEWLFtGvv/4qcyw3aNBAJvNv3LgxFStWTE5MS5YskT7BziIiYhM1bFhanbkGBOg5kpCQ0vJ1uBoI4M8++0yOI8j0MWTIEGmJnzVrlhxTvvnmGxo/fjy7TdgBdqN27Iig3r1X0dSpO1Wva8D/17t3OG3fHpGthDGoX7++WJispPj4eAoKCpLfaXx/P/roI+kqxjBsOdYRjrIcQxTjxw5QTtVoluKM2LZtG02YMIoKFXpCTMj1qGrV4upK1jly5JL427spIeEv8ben0OuvN1FXGGfxyy+/mFwwcET6Jc2qDFcMWCIdgb+/t/g/BlOpUvaXbbXV5zhs0FWHZq04fz5RvCezKSYmUfU4h/RcJTS/YXaVcDwolTxuXChFRp4QY09DatfOefl6w8N/pIkTd1GFChXFeBfmst0bvYNFnuZ28eabb8pFO0Q0kz1hcexBeLIotmTevI9p+vSpQiTnEZN2BWrevCJVrBigrlrPyZNXhQA4QZs2naLExLs0YsRIGjBgoLrKuJrTp0+ncsPA91cTy2hFihRRd1rPwYMHqV+/TkLwjVA99pGeOIY7xdLNhUzCOMDnAY3pGUN9WjreAvV//xdGCxaspOrVq6uerMOuEvohefE/kry9n6CxY+tRcHAJdSXrHD58UYjiPbz4zwR8/zWR/Oeff5rcLnx9fdUdTHaAxbEHkJ1EsSUQUJs2bRCT+gby8spNISHPk7+/lyzwUKRIAXn088tPsbE3ZUGFq1dvyGNMTBLt2HGWbt36WwiAFjJ1EcQAoy8g2szFMpL8m4tlHx8fdWf6TJkyhZKSvqcPP8xabmpLcZwW1YLu0LhesRRS46bqcSzvvbdJfM9foVGjRqke+zAXw3gMAcxZJfQDFv9hYUg5yIt/d7J//36TUG7ZsqUUyY0aNVJXGU+GxbGB0UQxJjJMatlJFKfFDz/8IAezq1cvq3ZVtFjR4oVI9hHNX7QiQmAFUkBAMZnO5+WXX1b/mjECP/74o0kowxUDhQo0oQw3jGeeeTTt4aBB/ahUqRviWEf12EdGbhXIdTxhkZ/pOqzHi8ZEOVwkz537NZ0/X0AcF6ge64A1DOMFhLClq4SnVqPzBPA937x5vRC3G21e/EdE/CIWhfd58e8AUAxJE8k3btwwWZMDAmxfsDDGgMWxAWFRzDDJwGVCE8toFSpUMIlltKeffpratn2DWrf2FcfK6l/ZR2Y+x1Gxual405SysAjIWzP1okMF8tq1x+jLL+PEcbPqSZvMXCXYb9h4pL34jxEtQYhkXvy7CgQTa0I5JCREiuRmzZqpq4ynwOLYQLAoZpiM0QL7tFa1alW6cuUiDRr0Mg0blrXgmszEMbC8p3XdG7Ru2gV1lkKb0JIUnZCbDi77WfVYx75952jMmH3ieFj1pGAuhmEZZr9hhnEef/31l0kkx8TEmKzJyOjCGB+XieMcOXKoR/pHb+sFc1GMPMXYDuWJjmEy5u+//5YCuW3bVvTsswXo9deDaNw4+4OQ7BHH8EE2F8Dm1y2vWcO5cwnidSymX3+9ZHKV0PyG2VWCYdzD0aNHTUIZv0GIZPgo6wnWYLbhUnF81ABG6irieepFHFuKYkx4DMPYhpdXXrp6dSo9/fSTqsc+rBHHgY0rUnTC4+osteUY1uIv9xaQj4Gt4viPP+7SgQMXqEWLBVSuXAV2lWAYnfHw4UOTSL5w4YLJmly6tGtzrKcFazDb4CIgOkOzBr3wwguyqt24ceNk/kUWxgxjP489lks9ch6fbiiUShiDHm9cV49IimRUzEOwnj189tlBmjp1h3y8bNmyRwpwMAzjXnLlyiWL5eB3iR0dBPIh7WKTJk1klU7GOLA41gmaKEZFO4hiVJ9iUcwwWcfX11tG82cF5DI+cyG15Xn3ofzyiEC8wTMDacSclMh1BOMtHOXYbBWDB9elpUu7ULFiRTjdGsPoHPxGtYp77dq1k1VCETA5cuRIWfSF0Tcsjt1MeqIYfksMw2QdX9/CdotjiOIcVSpTh1ElKelOauvz0i0F5TVkqJiz2kcI4n+ofnASjekRSyfDzzilCAhex/37D6lnz54yap5hGP3TqVMn2r17N+3cuZP++ecfqlOnjsx0sWrVKnUHozfY59gCV/m7aKIYghgWILhPsCBmGMeDVG5t2/pR69Yvqh73ovkl2xOQp6Vye/HF6rRkyRKZZ7VHjx7UsWNHdQfDMEYgPDxc+iYfO3ZM+iVDQFesWFFddTyswWyDLccuBqJ406ZN0lI8Z84c6TvIlmKGcR6+vv5ZdqvQC3FxN+Xree+99+jcuXPUv39/+uKLLygwMFD6Hl+5ckXdyTCMnmnfvj1t375dpp/MnTs3vf7661S3bl1avny5bpICZGdYHLuI9EQxB9IwjHPx9Q2kq1c9Qxyj8hlej0br1q1px44dtHXrVrp+/To999xz0oqMsYVhGP3z/PPP0wcffCAXtv369aP169dTwYIFafDgwfTTTz+puxhXw+LYyUAUz549W2afYFHMMK4HC9KIiF/VmbHB68DrsQTjyccff0yJiYn00ksv0aBBg6hatWoyCIitUAxjDLDY3bJliyyTnz9/fmrVKrnsN1yoHjywL8sNYx+69TmOjb1Pq1bF06FDSXTx4p+yz8cntxjwvahevQJUosSTNHlyFM2f79j8gY7yd4Eo/uyzz6QgRi5SBNqxIGYY9+Dv70P79r1DpUp5qx73Ya/P8fnziVSr1hyKiUlQPRmzbds2Wrx4sSw5DL9kBPHpId8qwzDWgx1n+Cbv2bPHlDcZlT9tJTMNNnPmFVq92rqxJS2OHs1aeX4N9jnOgNOn79CgQefECuo6NW1aSL7paGPGFKP4+PvyWtOmkXT37kP1L/SDuaUYeQ43btzIlmKGcQP4LSLoFXlHn322JO3ceUZdcQ8oIoLsFlouZBQUwTnSwFkDnn9ISD11ljnwYcT48/3338sI+eDgYJMbBsMwxgDpXDds2ECRkZFUuHBheuutt+jll1+mTz/9lO7du6fucgx58+YS+iqAtm4NMukuS6ZMKWG6NnduaQoKSimM5Eno0nLcps1paS3u0MGHhg59dOIIDb1Ae/fekB/KsmVlVK9jsHfVooliONOzpZhxNBEHkmjJ5mu061ASJd15SF5iEGtQzYtmDA6gYn651V0MgCDGwhQ7N/gNopwytig3bFgoBv0e6i7j0bTpEurUaSi1bdtW9dgGymljexbt/v370pqMlidPHnUHwzBG4KuvvpLWZBw1a3KNGjXU1bSxxnJcvXp+8Xe8VE8yVaocU4+SgThu0OAZdZYMNNu6deXVWdbQi+VYd+L4gBABsAyD4GCvdN0munVL3o50tzhmUcw4m+kr4mnE3Gh1lhqI5JPh5bK9QIYg1kQxUiNallS+efMmFSpUkK5fn0leXk/JPiORlHSPChYcSteuXZdCP6vs3btXimT4N2oi2ZlppBiGcTxXr141lav28vIyCeWnn35a3ZGCra6tGtaIY0fCbhXpcPv23+oR0eHDSdS//znpZmEJrMruBKIYqZPgPvHdd995hPvE+wtiKIf4IWTWyolVIuMaPt2QSLvF7+Dw8jL079HKtFoMTGVLpFRqgxV51qp4dZa9uHTpkuk3CNcJoAW8WpZUhqDs0eMtmj79O9VjLPC88fwdIYwBUkahAMHp06fl30RBArhhYPuWYRhjYF5xb+LEiXTgwAF65pln5GIXuoSxH91nq4BA7tLlZ+lKYS6SsXLJkyd1xSpX4ImiWOPwqUcXIWnRqk4B9YhxJlGx92nP4Vu0a35pqlo+2a+rvfjefzTEOh9VT0TbqcHvD1kboqKipCA+fvz4I4LYkmHD3qcZM7ZRYuJt1WMM8HzxvPH8HU2xYsXkpBoTEyNL3OK9RWqpsLAw+v3339VdDMPonYYNG8qc57Amly1blgYOHEgvvvii/E0ztqNLn+PGjSMpIeG+OktN3boFqHPnwlReiQVHk55JPzu4T+R/9X/SEpkZsGJqYo1xPRDNxZtGqjOS1mSIZk8Fvz24TCDzC6zF+P298847snAOXChsYeDAXmJRnUDTpr2uevRPaOg2unvXhz7+eJHqcS6wPiHLBcY6WKCQ5cKe6Hh3Az/9dXtu0JmL9+hQ5B2qFpSXDjrYDY9h9Azcp+ByUbJkSWk8YLcK69GlON6163caNeqiOnsURFS2b+9D/fr5qx7HYfnBZAdRDDCRtBt5gcb08KNXK+d7RPxie7/vlMs8weiAwTOv0JzVCdLfGJ/XcLFY9DTwu/vf//4nf3cQxvjtIbCua9euNgticy5fvkwlSpQQx6lUpIj9f8dVXL36BxUtOpIuXrwojkVVr2uIj483BfDh/YdQfvPNN9VV/RIu5g/8PiCIAcaslrULUNv6BTh4lcm2sM+xbejSrQJvPFKEIK9xWty581AM2LE0cWKU6nE8mJyHDBkit29PnDjh8SnZfjhxm9ZMLSmFVlpWYWzvA0wyjHvApN8m9IKc+EG5kk/KhYwnASGM3x0E7IQJE6hSpUrSZQK/PVSMyoowBhCYgwcPpJEjt6gefYPnieframEMkDZq1KhR9Ntvv1GfPn3kQkVzw8DWrR7BwrHDqItSGMM3H7sqWMxjXGNh7DnAWIP4l+oqMJ9hHI0uLccaWiEQ5DuGIE4LiGjL1CNZAasWTMJIvA0hPG7cOI8VxLaguVxc2hrEk4wb0KzFlsB6jEVNiAN/A64ms0wTzqB27erUqFFxGjHi0WpzeiEs7BvaseOSWBgcVD3uB+VsYUmG2wV8lGFNxuelB7Bw/HLvDfkYwniHmBt4rPI8tF1OzEe8k2k9bDm2DV0H5PmJgQ15jsPDy4lB2C9NS/KePcmDoSOBXyMsxWgsjJNX6RiI6gd78WTjJmaL3wEm+9Z1U1vu8blgooAfspGwJdOEM1i8+HOaPj2Ctm8/pXr0BZ4Xnh+ep55AgM/8+fNlmWp8dm+//bbMrwrB7E4wRmnCGAtGFsaeCca5d2ddsSo2hmGygu7EMRJRI9exORDJ8C9esuR5ataskOpN5uLF1BVikP8YKx00BPbZA1wqkP8TlaWYFJcKiGPGfcA6vG5aSTnxW6ZzW7vb8YtER6P579uTacLRPPvss0J4LhOL7i/o8mV9ZWXA88HzwvPD89QjyKkK9xekgnvvvffkeOnj42Nyw3AlEEwj5qS4ecAPn4WxZ9JrchSdvfinOmMyAjEbGG8x1ro6YwWyi2k6zNLybBR0aTlOzxoMkTx2bDGZsULD3JoMYRypgjAAMl7YI5BHjBhBt2/floM/kmkjEAhfLvgeZ0dQlQ0goIVxPxDJn40vLi1kGlcT9Wk5hiCGixIGaIhiuE7AVQmCGMIYgjirfsT28sYbzWnAgMHUps0yunDhmup1LxcvXpPPB88Lz88INGvWTH6ucI3566+/qHLlyrKK386dO9UdzgV5vs0tiTxOeSZwLUOcBZM2GGvxG9R25DDmQrN06dJFBjK7Cq2CsTlGFMi6FMd4Y9Mq/KFRt27KZKqldFuxIl4KZa3mtyaaIZBxzRYaNWok83z++OOPYtK8IGuZ//LLL9LHDkm3O3bsKLcRcc3TYZcKfYKgSUsXC72gDdJwl8AgjRRsWGBqgXXwJ3aXILZk9Oj3qVWrjvTaa3PowAHXWjwtwf//2mtzxfN5Sz4vo1GuXDmaOXOmGHMT5MQ8evRokxvGn386z9q3fu8f6hFRgBj324+6YCpYFNg4UooqxthgHjpz4U/pXsakAOuwJobREMQMYHi4ceOGPGY1w48tINMYNJemw4KCUoL74RVgJHQpjhF8N378pXQFsmYdLlHiSZnzGFSunI+mTSspH4PBg4uoR1nD29tbWkEWLFhAP//8M+3fv18O/Jjka9asKRPm9+vXj9auXSv98DwNI7tU/PDDD/Thhx/SgAH9qGXLJhQc/AIFBBSWgQk44hz9Awe+Le/D/Ubi6bwpP9+Q6o6pnJYVIIidmWnCWYwY8T598MGH9OqrM2n9+v+pXteyYcNx+f9PnjxVPJ+xqteY5M4NN7h+YnI8KsbkaXLMhMsFvhunTjnWx/uImCOizXLiI0ArfEpJmYsdQhnXEMiKYD3GmCAA77Ot12nRmGKqJ/ui7cRphgccURofKWa1sdbVLmrmFCnyhBDkKQGSw4YZdzGjS3EMLl78k95++5xcbWgiGdkrFiyIodVisIMwRqYKjYyKgkA4Owok00aE9ueffy7TGUEUQyCjMg38A1966SXplrFjxw6nWktcBVwqsH1vlFy6qFr47rsDxOcUSP37dxGr5x/ouedu0FtvBdCcOSF08OC79ODBAnnEOfpLl/5d3of78e/w7/VQenP6inhTuiJMEJbcuvOPPEIQuCtbhfk2HgQxShFjgNa7ILakU6du4jcbQb17r6KpU13jDqCB/69373D5/+N5eBL169en8PBwub2bN29eqlevHjVt2lRO8I7gwtW/1KNkyhR/Uu5wYWdlUHsf1UsyWA+/J8ZYwJ98wqIYGtfLP1vuXFq6SqBhJw4pFbV4DQhjewoiWQMswZbs3fuH1GJpkZEOM7ciGwHdpXLTTO/IUrFhQyIdPnyLDgmBpqVywxtctapXpgVA4Eoxd2609E82tyhnRlbTiCCITxMHaPjS1qlTR1qbX3nlFXWXMcBWFgp/YPsegWB6Zt68jyksbCr5+OSjN94oJ1olqljR9t2DkyejxcR9kjZvPiPL9o4YMZIGDBiorroWiGKtkAF4p4MPvRnyjJz4MdFPXhIr+12dyg2ZJj777DPpZ4rBGz5tzk695irOnj1L48aFUmTkCTEhNaR27aqoK44nPPxHmjhxF1WoUFEsLMJkydfsAL47SAV3/fp1WX0PxgZ7J3ZtjNIwrxYJq3Jwl5Q8uNj9Qil2TwE7XbDKR0dHUUzMFWmsuXo1RrQEKlLERzR/6QZYpEhR2bDT+fLLL6t/bQwa9D9Hrer+h/q09FY9QkuY+a96Yio3TRBjfMUiUiuAhDEWj+39rdiSyi2zQmwAWszcSpwW2t+x5l4NvaRy03We46ygBefB78UWHPnBwHJsLpThtwyRrDVsO+sZLW/owlFFUw1OemLbtm1CWIwib+8nhKipJxZOxdWVrHPkyCXxt/cIkfyX+NtT6PXXXVtyuMfEKFq6Jf1AMWwbY6vRFcIYAzZEDQpB4DEWfSjhnJXBWs8kf69Gyu/V2LH1KDi4hLqSdQ4fvihE8R5KSPhLCHB8r5qoK9kLCDvEbmDXTRPJVarYthhBYRwU/dCwLKXuaUIKO1qbN68TomkzeXk9QQ0blhXCN69o/xGtgDz6+eWn2NibQiT/IdoNdbxDO3eepaSkv4TIekOIrTa6yU+dHpqvuKWfsad9phhP4TusCWIYHzC+QhDD4OAoo4OrNRjQgvOWLy+ToVXZHBbHTkSzGtuTrNqZHwx8ks3F8q1bt1KJZbhs6AkU/gA3v9OfRRAWvvHjYeE7KYRrCLVr96K64njWrDkm/q8Isfp1vYUPEwRcW7T0RXBxQcQ2KhU629VFs2BgGw8DNoQwBLGztvD0iLYj4e2dR0xWFYSwqEgVKwaoq9Zz8uRVMfGdEKLmlBgH7rp1R0JvxMbGSpGMVqpUKSmS27dvr65mjKV1GLsr5mLKXEgZ2XI8b948mj4d38O84nvoGTtjmWH+2WWG5aJI71iKYYytWvEjZxkcXC2ONavxoEEBptgwa2Bx7CTgn9xFDJa2fiAarvxgkO3CXCwjbZy5WEYwoLvQs0vFnj17xOTZhoYOrUMjRzZUve6gtzp6DpoVAxZiDN4YqGHBcGXEsx5JttitF8JiI3l55aaQkOfJ398rU4tdTEwSRUT8QklJ98XE10K8l610b7FzJ/BPhkg+f/68FMlofn5+6mralGtz2rR4tByvzAUW8h9PysQdT29oO2OFCj0hFuietTOWGZ4kjjOyDrsqe4+rxTHSt3UQi1W4yNpCthTHLiFoO1FCOFH8CtUhCBxKdGWmOskcd30wCFoxF8sI9DMXy08+6bocj3p1qVi5cjl1795DTKK9qVUrd1u0PUcca4M2XCewjceCOH00X8+rVy+rlravp79/IAUEFDOkr6e7QaYLiGT4JiOVJkQy3se0MHetwM6KttOFYK7iTZPz3KP/ZHg5wwR1ab7va9e60+XGveOb0cWxJoY1VzRz67A74jNcpsFAmWVEd06l1l026LBsJY5dgWUAk4YRAsrSwjK4z1woGy24zxFMn/6B3OZevboL1ajh/sph06fH0/DhxstHq4GBWxPFEMHuHLgZJi0gKjSRXLBgQembnFZBAwSojpgbLR93b1aIlowtZvLZhzB2ddBqVuCdsYwxF8168jnW3NAwnkIYA3Pf4exiaNAMa5YYzT/cY8RxesIYhA0KMEwqsvQwenBfVvngg8li0FlBa9Z0pRIlUpcQdxfBwTOpWbOOhirY4MmZJhjPBpH7EMoozqQF8CGntgYsyEs3X6fDp+7IwkUIWMWEjLEfGV6MgLYztmZNX2rZsqLqdRcsjjPC0lVCD9Zhd5OeMAaW8QB6x6Msx9kJowX3ZYXNmzdRv3496dChYVS0qH62zi5f/l0I5Bm0cOEieuONFqpXf2DQzk6ZJhjPBoVEIJLRGjduLEUy8ikbnbCwKTRv3lwKD9fLzlgCDR8+Rp3pB3eKY4yfmhjW0qxhPIWRgcdTz4LFsYeg5+C+rPDbb79RtWpVhLDrJCbCCqpXP2zffoo6d15Jhw8flUVg9II2iGfnTBOMZ4PdNE0k58yZ0xTAhwp9RgM7Y1u2fC6EcWfd7IxVrTpDLPo70+jR+hLIrhTHGEctrcOwCDs6zRqjP1gceyh6Cu7LCrVrV6NGjUrQiBG1VY/+CAvbSzt2RIn3+ZDqcQ/aQM6ZJpjsxs6dO6VI3rVrl0kklytXTl3VNxBdyTtjQ3W3M1at2gxasGCJHEeyCzAmwCqMz8VVadYY/cHiOJtgxOC+oUMHU2LiUVqxorPq0S+wHvv4vEgzZsxRPa5Ds2pwpgkmu4OdJohkBPBVr15diuRmzZqpq/ojeWfsJbGg7UyNG+tPzGNnrEuXlUK462tnzJFYWofdkWaN0R8sjrMhRgjuu3z5sgy2uXx5qswhq3eQ07Zo0ZF08eJFcSyqep0HBnJtMMfgzZkmGCY1msvFzZs3TQF8Xl76ylhRu3YNtTOm39zXYWHf0o4dcNtz786YI7EUw2wdZixhcczoMrhv4MBelCdPAk2b5pjE9NW7laGn8zykXfPPqR7HExr6Fd2750Nz5y5WPY4FgzhnmmAY20ABF4jkNWvWmETyiy86r6KmtQwb9i4lJByjFSveUj36pXPnFeTtXYVmzpyteowFxkuIYXwXcMQ5xk7Nd5jFMGMJi2PmEdwd3IfqWEFB5aXV2Ns7n+q1nyOn81Jwl+SgjcPLf6aq5dNO+ZdVUI61aNFRFBl5SpbBdQQYxDnTBMNkHRRr0azJZcqUkSK5bdu26qprccTOWFRsblq7+xnaffhpOnvxKYpOeFz2e+V9SOVK/kn1qibRy5XuUNkS96j9qJJ0cFlKmW1bcfXOmCMw313D2GluHWaDApMZLI6ZTHF1cF/fvl3Jx+cWTZzomAT4PSYWp6VbCsrH73RIoNlDr8jHzmDs2B0UH/80ffqpWYVGG9GsHJxpgmGcw6pVq6RIxu8LIhmtcGHX5cIfOLAv5c2bQB9+GKJ6bGP6Cl+avMSXku7kkucY10KqJ1FIjZvy/NMNheizrYXoUGRKfud/j1pfcS4tQkO309273vTxx4tUj77Qxk2IYfM0a2wdZuyBxTFjM1pw39dffy0HI3OhnNXgPvgHFipUkK5fn0leXk+pXvuBdaVi+3KmSQRWlZvfJVcvcgZJSfeoYMGhdO3adcqfP7/qzRwM7JxpgmFcy5EjR2TwHoQy3JTgdlGjRg111TlkdWesTWhJ+nJvAfkY49maqRdNotgSiOgRc4vIx1kVx8k7YyMpMvK0w3bGsoI2ZlpahzFuQhSzdZjJCiyOmSzh6OC+tWvX0sqVM2nr1h6qJ2uYTw4aYYOu0vDOcerM8TRtuog6dRpGbdu2Uz3pow3snGmCYdzH77//bhLJsCBDJHfu7JwsOX36dJc7Y5Mm2V64xHwXDKyecoHaN0i7IpmG9m+yKo7B2LE7KSHhaVq48DPV41oggDFWar7DGDM5kI5xBiyOGYdiHtwHy/Lt27dTieXMgvu6d3+TXnwxJw0YUEv1ZI1ybcpT/nwPU20vVgu6kyX/u8yYP/9bOnbsH1q6NFz1pAaDuiaKMZizHxzD6IcNGzZIkXz8+HFTAF+xYsXU1ayRlZ2x8F0FqMOolPHT2nEMu2fFmwY5RBzbuzNmL5bWYU6zxrgKFseMU7E1uM/f35v27RtMpUplPegPk8nSzYXo3bcSqNGg1NuAzgzMO38+kWrVmk0xMYmqhzNNMIzROHnypBTJaMiVDJFct25dddU+knfGPqKtW7urHutBxh3zRf6YHrE0qV+MOsuYBv1LOyxTT9OmS6hTp6FOC2bkNGuMHmBxzLgU8+A+WJYRNa4JZQx6/fp1EoPjCHV31oBvXqu6N+S2IyzIZy+mBA52b3adloy9pM4cT6VKH9KMGZ/S6dOnOdMEwxiYu3fvmkQySlNrAXyPPfaYusN6unXrSJUrY2fMttiMiAP5H1ngW+NS4Qzmz9+ndsZWqZ6skZZ1GK5lEMQchMy4CxbHjFtBcB9EMsRyrly5qEqV3PThh83VVfvBVuIrPcrQle0n5bml77GzAvP++OOuGOR/FSJ4Dd269a/0ueZMEwzjGezYsUOKZIxZmkjGAt9a/P19aN++d2zeGXt/gT9NXuKnzpJxhJuEPaS1M2YrEMNaiWaIY3PrMO+mMXogpzoyjFtAdouxY8dKcVyuXGkxeTimgtWsVYWpa9Nr6oyobf3fpSDWQPYKCGZHM2fO16LtFSK/GLVp01S+LvaNYxjPoFGjRvTll1/S4cOHKWfOnHL8atGiBW3btk3dkT4HDx4kb28vu1zGbt1NzrajB/D8fXzyy9djLRDAEMPdunWT+Z1xhP/1rFmzpG83xsnx48ezMGZ0A4tjRjfExcWQr69jgjzW7y1APZuniONifvepQbUkdZbMsq0pUd+OYty4JmKgH0rt2r1EN278rnqzJ9NXxFO5NqcpR5VjsjXof47Cd2Xv94TxDEqXLk3Tpk2TAciNGzemSZMmUVBQkMxNjiDktIAAbNToeXWWdbA75i5CQp6Tryc9IIbhJgHB+8ILL8iG9waBjRs3bpSCGMKYd9QYvcLimNENcXFxQhxn3XKMBPjVgm5LQWzO8M7x6lEy8EGGL1965KhS2dTgv2wLeB2xsc5LF6dnomLvU/VuP9OIudHiPf5T9RLtPpxEHUZdlKKZYTyBHDlyUK9evejQoUM0d+5c+vHHH2WQ8cCBA6XrgDlxcVft3hlDlTtLDpoF57kavI64uNTFlCCIEXSsWYeHDBki+5ctW8bWYcZwsDhmdENcXDz5+WXdcozKUEiSby5u0bQS0uYs2Zy29Rj3m4O/Z4tAxuvA68mOTFwUS4ci088EAtF85LRzMoUwjLtAUPHnn39Ov/76KxUsWJCaNm1qcsMAyTtj9oljVL+z5PRvWSuSZD422r74z09XrkSlsg5DEMOHGL7DEMNomhhm6zBjNFgcM24HAyysDJcvx2bZcnzkdF66eTuXDFZJq6EAiDm7Dnk9sj2JiQL34X6kfNOAQMbftwa8jri46+os+wDR++XeG+L9CxDvX2XZxvRIHUgEVkWwewXjmQQGBkpReOXKFXrrrbdo/vz50g3jyJFjdo9v2AVrXTd1ZorDp+y3HGd18Y/XcfLkaZowYYI8h3X44sWL0mUCmSYQYMcwRobFMeM2IIphbcE2HBLKP/ZYLtmywjszAqlb0/RFKSrjWQbmIXjPHLhfaBX0kAv5nQ4J8jGTOcd/uUufji4q3r+U93RSP/80BTJjfLAYyv/q/4TYck/mBL3TsWNH6U6wcuVK6Xawfv1P6ortzBgcnWrs2n3Yy6rFOhb/5sHHjlj8Y2csV64cqVwl2DrMeBIsjhmXgglC24aD1QGVjrTtN6Q5io29qe60DQzqSHRvniQ/PVrX/UM9SmbOah+ZKkkjveIgAT4PrC4cEheXRL6+jg/40zt9WnpT+wbPqLMUejYvpB4xngJ8y7uOvyQWmCmCjUmbatWq0cOHD2ny5DdUj+3Aerxm6sVUArnr+OIZBuYhpqJi+3Lkle9v1eOYxX/yzpj9qdwYRu+wOGZcAhK7w3UCohh18bENB6vD4MGDTRYHX9/CdoljVMKDPzEsKQD5jLFtOHhmoDzXwDn6l255VLQih6jlVqPG1YTH5XFQe+snEbwOvB4mbUKqO7/0LONchs1OHXDJZE5Wd8ZCatyk3Z+ck6WjAYKKkc8dlmFzkYwxERbiXpOL0aejo8SiNSVzjyMW/wzj6XAREDcCy0vxppHq7FG88uaik+HlqJif+1L2ZBW4TiCFDyK3MyuZ3LbtG6L5UevWL6oefQDRjMno4LKULcjMWLv2GH35ZYw4blU92RukcEOmClAtKK94L60vnMDoj/cXxIgFZaw6Swb+5Uz6PPdcCYqI6EklS2a9ND6AVXjdngJ0Rghk8x0zWJaDK9yh+sG3TBbijICIhksFXC2suR+cO5dAr7++mH791XlVRhnGnbA4diNIaYXI/fR4p4MPzR6a2vppBLSE7xDFsArDdQJBGpn5pA0a1I9Kl/6DBg6srXrcjzZxwD/PFubO/ZpWrTpP+fL9h+rVqydblSpV1NXsR4+JUbR0yzW54Nv9SWmqWt4630ajgFRe+/bto6tXr1J09CVxjBbHq+IYT0WK+FJAgL84BohjcXEsQrVq1ZJb7UYEC505q5N3UcyzkrA4Tg3GQfOyyElJN2jFirb08supy0C7G3sW//v2naPOncOpYsUXqFmzZjIzR+HCvFPGeA7sVuFGlm1N2epKizdDHvXd1DPmrhPLly9P03UiI3x9A4WYsM/n2BlgqxLC2DxoxVpiYv4QE0YzWToa+ZuxOPDz86NOnTrJXKDR0ekvijwN7JAggwVAYJ6nCGMI4vfeC6Xnn3+WevbsQImJ+6lEiTjq0MGXZs2qTwcPDqYHDxaI4zvyvEMHP3k9MfE76tGjvfh3JcW/HyH/jlFAAB5S9YVPsS31V3YAQnj27NkywFhLbaZlc0DBi4oVK9gdU+EstAwVtghjgJiKqlVfpPbt29PevXvp2Wefpbp160qDyIULF9RdDGNc2HLsJjDJtBp+ga5sD1I9xkWzjMBanJnrREagHGm/fp3EJDNC9bgPBPjBjxnC2NwPD37Ls4emTn6fFpUqfUgLF35B1atXVz0kUx3t2bNHTiY4IuUTLMqYVHB87LHH1J2eBSrjoQBI92aFaMnYYqrXuCxdupSmTfuAcuV6SC1bVhLf9wqyXLitHDsWRRs3nhQtkv7+OxeFho6m7t27q6v6A4uc9qMu0Lhe/hRSw0sWesmulmNzqzBiKPAY6cvQkOcXld/w2NwoMGhQfypd+nfd7Ixh8Y/4DMsxzhqwM3b+fAFxXCDPISO2bNlCW7dulQ0LA82ijMqB2Y2IA0m0ZPM12nUoSQasYsesQTUvmjE4wNBuktkJFsduYvDMZIFlRLcJYK/rRGYgY8W+fe/I+v3uJL3gPGv88s6fT6RatWZTTEzG0dxYDGhi+cCBAyaRjKOnVJHSXIda1y1A66YZ29q4f/9+GjduJD18eJsmTKgnBNBz6krW+fbbX2n8+D2UM2ce8benUc2aNdUV/dAm9IK0+mtp+rKTOIb4xc4YhDAEMcY/iF/8TjH2WZPKbMqUKZSU9AN9+KH9GSscRVYX/++9t4m8vF6hUaNGqZ7UYEzTxHLevHlNQtmorkS2kJG7pCfEEWUXWBy7icDGkRSdkFzeGAFK5Uo8RVUr5JGpsPQMJgVsHUIUY0IYN26cVRODtXTv/iZVrpyD+vd/VfW4nvSEMbDGyjJ//rd09Og/tGxZuOrJnKSkpFRW5Xv37qUSy76+KXlKjQKsJ+1GXpAWE0thDL/VK3EPTEJLz8THx9PYsaH01VfbhIBtRr16BasrjmfRokPiN7VViInXpUjWix8nAvBiEh+ksvx7qjjWrMJo2BHDEcAaXKkSdgqaP2IVtgY97YxlZfEP/u//wmjBgpWpdsbSA25DmlC+c+eOSShjXPM0Pt2QSOv3/kGT3/aXC0mMc3BDMs/qYtRYouwGi2M3ANHQaNA5dZaaAJ/cNKanr+5EsqNcJzJj7dq1tHLlTDGQ9lA9xqNp00XUqdNQatu2veqxHZSgNRfLzz//vEkoG2FSwRZ8xfZn0hTGcClCftyPhgTK7Xk9gxzcbdu2pBYtylFYmLssfr3V0T1oAXiWGUY8RRxDDGN808QwziF8NTGMcc5RY50edsayuvhP3hmbQzExtudHjoyMNAlluJlBJGtiOUeOHOouY4IxD+kNLcc7y/mexbExYHHsBrA9qQUopYcefkCaBQVBdniM4DJHuE5kxM2bN6lQoYJ0/fpM8vJ6SvUah6Ske1Sw4FC6du26rPrnKJAJQRPL+EzMrcrly5dXd+kDTBKYDDLLgat3MbVr1y4hjFsLUdyWeveuqnpdz65dxalBgwbqzPVYiuCM0PvEj3EM7hEQwydOnJC/JZxD/MJX2F6rsLV0796RKlfOSf37v6J6jMf8+d/RsWP/0tKlq1SPfSBwTxPKhw8fNolktHz58qm7jA/GQ/OUraunlEizUBKjL1gcuwGUW7WmqtTCUUXdYkHGBALXCWScwEThaNeJzOjbtwt5e9+iSZNCVI9xGDt2B8XH56NPP12pehzP9evXTRZlHIG5WC5Y0L2V+bQAvIzQe67jzz//XAiZbrRmTT9q0aKC6nUPTzwxgJYsWUIdO3ZSPa7FyOJYW+BbBs5hPINVGNZhR1mFrSF5Z+wjIQj1G3iZGU2bLlE7Y21VT9aB65J5QJ+5RdnoKeIQX4SdF/gbI1uPEVzJGBbHbgdblqd/+5P2HEl6ZAIqW+JJOrPOdVZBc9cJTBqwFLty4tA4f/48BQWVp8uXpwqRbBwLQmLibQoMHEmnTp2mUqVcl8v09OnTqcQyPjNNLCOfrivR8hlnhp4zVyxevFgsCEcJIdNVFzlpf/jhN2rXbhmNHz+FevbsqXpdh5HEsWYJtgyc0zJIuHKRnxa8M5Y5t2/fTiWUg4ODTUK5ZEnjBPVibof/sbZLDIPAnGGB0heZ0T8sjnUEfJPenXUl1Xa0s7eeNcuKK10nrGHgwF6UJ08CTZv2uurRP6GhW+nevcI0d+5i1eMeIJA1sfzLL7+YLMo4Pvec4zIseCJHjx6ll156iY4cGSmOxVWv+/nxx0tUtepUcfxRN8Vk3O1zrI1daFrgHMYtzSrsbBcJe+nbt5vaGXOfq4y9vP9+BCUmPk0LFy5XPc4F8gQCWRPLRkkRp1mLLYH1eM3UkrqPtWBYHOsOS39NZ004mFjMXScclYrNUVy+fFkOhLAeFymir8ktLa5e/YOKFh0pg0yKFi2qet0PCpCYW5Xz5MmTygXDy4sHaY0HDx4IAfp/9PbbNahXr5dUr35YtOgwzZ9/UAjkE/T444+rXvfhanGMMcsycE5zkcD4pQljvWPknTGMcZGRrt0ZMwdjmCaU9Z4iTst1bBlfxOncjAGLYx2CdDB9p1yWmSscXSREL64T1jB06GAxIB+lFSs6qx790qnTcipcuArNmDFH9egTCAtzsVyjRg2TWLYmLZMn061bBzHh3qJ585qpHv3Rv/8munvXy6Y0gc7CmeIYwjetwDktg4RercLWMmhQH3rqKeyMNVI9+ic0dJv47vnQxx8vUj3uxSgp4tLaEQ4bFMC+xzqHxbEb0Pwy4Xc5tpffIytI+Cp1GHXRYf572vYjXCcwwUAQW1vS2d3Url2dGjUqTiNG6KOqVFqEhe2lHTui6JtvjFMGGPz9998mkYzjlStXUrlgwHKfXcAuyvr1i2n//kGqR7/UrDmHWrbsIX7P76oe9+BIcayNUdriHecYnzQxjAW8EazC1sI7Y45F7ynikL6y/tvnTIH4es/qwrA4dgs5qhxTj5KD7nbMLZ1KIKPCztzwBPp+yfNZ2nrBBINJH5MNJhq9uU5Yw2+//UbVqlWh5cs7UePG7s0akBbbt5+iLl1W0qFDR+nZZ59VvcYkOjo6lVhG1gtzsfzUU8YLILKGf/75hwID/WjTph668jNOD/gfN2++WCxm4ihnzpyq11hoQjitdGp6CJxzBcOGvUsJCdgZ66h69EvnzivI27sKzZw5W/XoF8sUceZC2Z0p4syDlVkc6x8Wx27A0uICgawVRIBLxWdbr9O4Xv52O+2bu05g63HWrFmGtrps3ryJ+vbtIQa64VS0qH7yQ16+/DsFB0+nhQv/KxYerVSv54DgL3MXDE0k44igNU9h+vQP6fjxnbRqVQfVkzEZFVGwpFrQHQqucIeGvBkvFrrJFTEdwZtvfkEvvBBCw4ePVD36xdwqbJ5ODU0Tw0Z2kcgKyTtjJWnECPdVBM2MsLBvaMeOS/TNNwdVj3FAijiIZE0smwtlV6eIMw/Sg0GMg/L0DYtjN4Cgu1mr4mWaF62ENJz0gyvkpfrBXnb7ImHyMXedgJUYk44n8MEHk8QA9zmtXt2FSpYspHrdx8WL16h9+2VikO1IY8aMU72eC8pZm1uVkWvZ3KocEBCg7jQWcC2B1firr3pT5crWp5Y7cjovdR1fnM5efFL1wBqUQLOHXpHXVkU8IyZCH3UFv++HtGbqRTEh3lQ9WePYsShq0uS/dOVKLD322GOqVx9olmDLdGpYoGP3KjtYha0FO2PBwVVkXEXjxvoq5gM8aWcMKeLMhbKjU8Rhx3fE3GiZsi0t45ZmOdZ7jncmGRbHBscTXCesJSxsEs2bN4/Cw7tSjRruG6gPHPhNCOPPaODAATR8+PuqN3sBvz5zsRwYGJhKLOtNsKXHtGlTKDJyD33+ue2lvgfPDEwlgDVxrPH+An+avMRPnWGH6E86s+60Oss6HTuupqCgehQaOlr1uB7NKoyGMQhH4CmBc64A71vyztgwne6MLRHzSnPV6xlA9pgLZfh/a1Zle1PEWe4Iw3XizZBnZF5jCOfJS2JlP6dyMwYsjg0KLDNz5szxGNcJa1m5chl1795LCOTe1KqV61/vhg3HhTBeREuW/Jc6dTJulStHc/DgQZNYPnDgQCoXDD1/L318CtHOnf3ohRds9//LTBwDSxeM1VMuUPsGGZeOt5bjx69QSMgCio/PvOiKo4AYhjVYE8M4h/D11MA5V/HBB5PF+7lCLvz1szO2XIjFjjR6tOcbADBuaULZ3hRxmRVAQvapRWOKsTA2CCyODQYmpgkTJkhx3KVLF49ynbAWiLB27VrTsGF1aeTIhqrX+Xz44U6aMeNrMYGtk8KPSZukpCSTRRnHu3fvphLLvr6+6k73gm3/4cP70pEjQ1SPbbhbHIPg4FkUFrZQ+u46GghfjDMYc9IKnGOrsGOZPv0D+vjjubrYGevQYTn17/82jRgxVvVmH5AiTrMqI0WcZlHG2JUZ8CvedSjJlLYN7pLlSj5JLWsX4NRtBoPFsQHAJAULMSzFnu46YS1nz56lceNCKTLyBI0f31CIZedVDVuz5qhYkOykChUqimMYlS1bVl1hrOHXX381CWU0VOnThLI1E46zGDUqlHLm/I0mT7avUpk94njH3PMO8zsG77+/g/75pzR98EGY6rEfzUUCYtg8cA5iGFZhLYsE4zxWrlxO3bv3cOvOWLt2i2jp0kXUqVM31Zt90XuKOMZ5uFQcG+nLpIc1Q3Z1nbCFbdu2CcE6kry9nxBiuT5Vreo4K/qRI5fE395NCQl/CQE+hV5/vYm6wmSFffv2mcQyBJi5Vbl8edcFJVWuXJFmzw6hmjXtq/Zlq89x67o3aN20C+rMMezff56GDNlBR49Gqh7r0SzBloFz2Smdmh7Bb6N9+zY0dGgd3hnTEUgRp1mU9ZQijnEOLhfHRw1gqK4inqc7xTEmKohiTF5wncD2JYvijJk372MKC0M51jz0xhsVxHtWkSpWtD2DwsmTV2nz5hNiQXKKEhPv0ogRI2nAgIHqKuNokPXC3AUDmItl5Fp2BijCULlyJfEZT1M9tpOeOI44kJ8iDnqZriFTRbdm1x+xKjsKb+9QOnbsRIbFGTSrMJoWOAfhq1mF2UVCX2g7Y6dOnRRH7IxZnz7QVnhnzHb0lCLOFthAaT0sjtPAHeKYXSccA6xgmzevF+/lRvLyyk0hIc+Tv7+XrEJVpEgBefTzy0+xsTdl1aerV2/IY0xMEkVE/EJJSfeFUGgh3v9WTvHjZDLm9OnTqcQyxJsmlmvVqqXuyjqLFi0S35WV9Pnn9hdgsBTHaRHg84DG9IyhPi2dFzT31lsr6LXXulCvXr1UT/J4gkW2JoY1qzDeT4wtmjBm9E3yztgoKlToCRo/vh7vjOmQtFLEaWLZESniHAlrMOthcZwGrvxgMGkhwO6zzz6TkxW7TjiOH374gfbv3y/E72XVrooWI1qCEMk+ovmLVkSI50AKCChGNWvWpJdffln9a0YPQCBrYvmXX34xWZRxhO+yvYSGjqACBS7Se+/VVz22k5FbBXIdf7rem5ZuSbZ8w3o8pkccDe8cJ88dyfjxWykqqgBVqvRiqsA5TqfmOWBnbPr0qUIkZ3VnLFoslk7yzpiTgG4wF8qOSBHnSFiDWQ+L4zRwxQcDqw4sOrAWs+sEw2ROXFxcKrGMctbmYtnLy/oUSV26vEW1az9OXbvWUD22Y01AXrk25VMVCgkbdNXhAvnNNxfTzp3nqXPnLpxOzcNJ3hnbIOaNDbwzZgAwVmliGSniNKFsS4o4R8IazHpYHKeBsz4Yze8PVezwWKtixxYdhrEd/JY0oYxjjRo1TEK5evXq6q60adSorvj9VRDiwv4AQGvEseU9cLO4sv2kOkNVLV8aMbeIOrMv1VtExGmaPfukOH6jepjsAO+MGYuspIhzFCyOrYfFcRo4+oOBEEYVu+XLl8vtzXHjxknLDotihnEMKAOtiWQcr1y5ksqqjO1Nc/7v/8rTsmUt7Sr+oWGPOAb/Hj0mj5bCWMNWgYxiIN27rxfHM6qHYRg9gxRxmlB2ZYo4FsfWk1MdGScA1wlYiV944QWKioqijRs30jfffCN9AVkYM4zjQLnqkJAQmj59uhCJx6VVGedIGweLcoUKFWjw4MFyQgJxcQnk6+v8SlVXEx5Xj5KB5VgDwhhCGQ3CWmPOatui3fE64uIS1RnDMHoH/sejRo2S1mRUF8U5gvGffvpp6tChA61atUoG+jHug8Wxg4GVGKIYgrhbt25UrFgxOVkvW7aM/QAZxkUEBARIl6WVK1dSbGysDHhFZb65c+fKAFiUXHa2OEZQ3q5Dqf+Prk2Ts1bgmmZBBrA4mwtnWyhc+Gkhjl1XQpphGMeBjBZwscSu12+//SZ3u8LDw6VQhjUZmXWQOo5xLbp2q4iNvS9WUPFidZVEF1U5Rh+f3FStmhfVq1eASpR4kiZPjqL580vLa47CHpO+pesEvuxsIWYYfeLn500nT75H3t5Pqx7bgLjtOr54qmC7akF3KHzKBSrmd1+6TMwN96FoM8txWm4X5gQ2rijvz+w+SxB89dxz4+nNNztSnz596MUXX1RXGIYxKlqKOM39whEp4titwnp0K45Pn75D48dfooSEB9Sjhx91VnXJDxxIoi++iKfDh5PkeVBQXlq2rIx87Chs+WDMs05ADEMUs4WYYfQNfI5XrGhNFSs+6vObGZYlodMD6dvKlfyTgivcoTdDfqeq5e+oK2mj/V1zi7I1wOe4W7f11Lr1m/Tpp5+K11RRimRMogzDGB/oEU0k42hvirjMNNjMmVdo9eoUFy9bOXrUMcVqWBxnQJs2p6W1uEMHHxo69NGgmdDQC7R37w23iGPzrBPIJ4oAO846wTDGAdkqhgwJogYNyqke96IF59mT6s0yWwVcSCCS7969S71795ZCGT7ZDMN4BvamiLNGHG/Zcl0aJOvXL0B+frllf5UqqRfsU6aUEGPnM/IxDJaLFsVQZOQdjxLHuvQ5xputuVFcuJB8tGTatJJSGLsSiOLx48dT7dq1pd8i8hMj0hSBPiyMGcY4FC7sK90R9AKEceu6N+zKgRwXd1P6U2tgoY4gn5kzZ8q8uD4+PjRy5Ei5kGcYxvjALxlunBcuXJA+yRC9qJBp7r9sL1OnlpQ79ZowzowaNbykgRJurp6ELsXx7dt/q0ck3Sf69z8n3SwsgVXZFZhnncBkg+A6ZJ1gUcwwxsTXt4gQx7fUmXup3q2M9FdeN+2C6rGNuLgk8Xr81VkKSGG3du1aKZT/+usvKl++PHXs2FHmxmUYxjOAtfiDDz6Q6eHg4lm4cGEaPXq0PPbs2VP2WWuFxS49xK49rFtnf854PWKIbBUQyF26/CxdKcxFMsz6efLkUmeOxTzrRIsWLSh//vxSEKOxTzHDGJtnny1Np065PwIceZDBwWU/yyMI31VANmvB63j22fRdy55//nn66KOPKCEhgSpXriwtTIiPWL16tbqDYRhPIK0UccjQo6WIY6xHtz7HjRtHisH8vjpLTd26BaTZv3x5x7tV3BKiuHaBAlIAwyr8xhtvsD8xw3gYly9fFkKxIiUmhqke15NeERBgS1Cet/cIOnbsJBUtWlT1ZM66deukXzJcLTS/ZBgAGIbxPJAKDj7KWBj3Hj+eeo8bp65YR0Y+x86AfY4zYPDg9KPIEYj39tvnaMGCGNXjOL767DN5ZNcJRm9Exd6nHhOjKFAsHHOIwQqtQf9zFHEgOXMLkzmai9TXX39NxYoF0v7959UV15KRMIaLhbXg+eN12CKMQZs2bWQlQeSBPnv2rPRLHjRoEJ0+fVrdwTCMkdF2vzHe7dixQ7pYAFuFcXZF13mOEZiHPMbpWZBBs2aFaOzYYurMMehh1cIw5kAAtxt5gZLuPFQ9qVktVvLtnbiSNzLILINUi/C903aDmjdvTosWLaCcOc/TpEkN1Z3G4/33t9PDh6VoypQZqsc+oqOjpSUZ7ZVXXpHWZFQYZBjGWEAQo2k1F8x3v23VYBpsOdYZcAxfsuR5GXiXN2/avsVbtlyTIpphPJUjp+/QhEUx9OnoovTv0cp0eHkZqh+cOmhiThZyU3oisJogpRliBpBdBpjvBmHSaNCgMe3ceUZeMyo7d/5MDRs2VWf2g4qCkyZNkn7JDRs2lAE9L730Ei1evFjdwTCMXtEyaWmVecHGjRt59zsL6D4gD+lEEEEZHl5O5t5DhTxL9uy5oR45DqRqw9Yjor3/+ecf1Zu9KdfmtNzKD9/1u+phXMH0FfEUPqWkyTJctXxe2jW/NHmls2DMrmjbiJgcMEnAcoIc5Ei3iInDMpD21VdfpUuXEmQRDSOC5x0VdU2+DkcC/+Njx47JMRB+in5+fvJ9jIlxvBsbwzD2YZ40AC0qKkoaAI4fP57meMfYhi7FMRJRW1qDIZL79fOXlmS4Uphz8eI99SiZXUK8YRtAayuEuLAVTAbYVly6dKkMVOnevbv028mutAm9QGdV7mnGtaybVpKKpZFzsohPSmni4AquzfmtJzBBaFYTCLpKlSrJCQJWE7hPZGQ1GTZsKH300Q/qzFjMnLmf3n13sDpzPI0bN5auKDt37qTr169TsWLFqEePHnTkyBF1h/7AQlJbxGs++byYZzwFcz9ibbxDXmOMdxDGWiIBJuvo1nKcnjUYIhk+xshYoWFuTYYQHjXqojpLZu7caCmYbQUTQUREBP3888+yJCtyCfr7+8svY3bKFYoJ58u9jrfOM/aDCV9brHQXi8XZaVSR9GQwSSAJPiYIpFoE9mwjvvvuCNq9O5KOHYtSPcYAz3fPnlM0dOh7qsd5YOybN2+edLkoXbo0tWvXTrperF+/Xt3hfhCsWr3bzzRCjPXmi/jdh5Oog5gPMIYxjFHRDABaATIsVDHWoek1mxbS7pobKWH0NBK6FcfISJFW4Q+NunVTvgzmKd3CwxNkCUO0QYMCVC/J0ob2UqRIETnhfv/99zLKvVChQjRgwACZP3TMmDEy4MdTQSAYJhxGH+DzGCwGmT4fXJbnAWJhWL/a0/Kxp6NZTSCGIYq1gjzpuU1YA8oqDx36rhi4jWU9/uij78XzHuLSstAFChSg9957T77fnTp1ojlz5lC5cuXk8d691Lt3rmbiolg6lMEYjzEMvvuM8YD1X9sJyKghk48nkZYBwDJuQq/AGInaFOasXp1g1y6+u9CtOL5z56GY8C6lK5A1sYuShch5DHDv9u1B8jGoXDmfeoTk2I7Zdi5Tpgy9//77dOLECfr888/pwYMH1LJlS7EyqkIffvgh/fbbb+pO4wNrTK/JUdIyybgfWIsbDTong++0rBXRCfc93jKmbSOWKFFCWk3gY4ttRFiKHbGNOHRoqPg/ztCPPxqjvDKe5zffnBXPe6TqcT2otLdv3z5asGABHT58WFbjGjZsGJ07d07d4TogerGzFTYoQAasoo3p4aeuprAqgt0rjMjhU9YtatrUs75wjl7RDACwEDvKAOAOZs++ajJSIrOFRkYGT72h64C8ixf/lPmMYY7X3tRYIdiQ3xirEAjjuXNLy35gWRRkxoxkMz6yXTgj7QiiuadNmybrm4eFhcnCAijliC/2/Pnz5TakkYEQWzSmGD2dV9dfk2wDAvKQqeId8X22DMaDZcyTfCsxSWh+xAiwM69Q6ejo65w5c9Lw4e/Ru+9uVj365t13N8nni+ftbrBQWbVqlVys5MqVS46J7du3l5+Tqzj+y12ZyWW4MpKASf380xTIjLHATll66SvNwQ5aiJ1lj/WApR8x0q850gDgaqZPL6keJVcy1nBG4TZnoVvVA0GLVcc77xQRIvOBFMnwW2naNJKOHEmSmStQyxs+yJZoAXmadRlC2tkrljp16tAnn3xCiYmJcvJG+UYk5m/WrBmtWLHC7duOtoIAvG5NCxl6wPFEkKkC/sUnw8s9ks5t/d4/1CNjollNMEGgadHXrrCaDBnyLpUqFUQDBmxSPfpkwIAN9OyzQfL56olnn31WGgpgEHj55Zdp4MCBMl8yxj5n06eld5o5vns25x0vo/PDidtUtsSTtHBUUbq0Nci0M6A1bVezlZmbpVGAO6ZmAIAgdqYBICukFa+1V8w1MFSmh7kIDhVaAmiVjY2CrouAZJVu3X42CWQE7Zm7XGSEoxJQ//XXX/Tll1/KUq3bt2+n1q1by/Rwmv+QXsEWPbYqkSUBwMfVPI8uF5zQD4jM1wKQqgXlpYPLysjHRgKCGFkRUKjDMmm9K4GLVNWqlcRCvBr16lVN9eqHRYsO0Pz5h+nHH0/S44+nZCrRK7B6/fe//6UzZ87I9HBoBQsWVFedD9zCijeNVGdEO+aW5sW+wYAf8dhefmlm6wGoFgrXMuyowXCgd2AAQP51pJlE6XYE9yOjjqvcJWzRYBDFlskNLIG76rJ05hwYJC39jq0tHqKHIiAeLY4BXDJgOQbLxQ/IGrO+Mz6Ya9eumYQyVoyaUK5Xr566Qx9gG+vdWVfozLryqofFsZ75dEMi9Z2SHJxnJHGMiQGTBEQx0KrWudun7ujRo9I14MiRkeKon4AX+BlXrTpVHH+U8Q1GAu8pKu8hLSYq70Eku+JzhpsR/PGBUReOTPpgroLrHyzL5vOV3oAgxpyPwFUc8d1HqlgYAlxtAHCHBoPlGAkWNOARkBlcIc8FoICIhjv9XZDhom/fvuJLslcm2C9VqpRYlY2SKVkQyIKgFnejBeDBwsIYg/z5UnyP61XVt1UMkwSsw9hGhF/+zZs3pdsEfOv0EmwC4blo0SIh1P9LP/ygj+DaH344Ty1aLBLP67+GE8ZAe0+vXr1Kvr6+9Prrr1PTpk3pq6++Unc4h92Hbskj/PPnDMteqQ6zA+tUutdWdfQZiGfpR+zoQGKjMG1ayVSZw+xJq+sOXG45diqBQ4l8OhBdHEX0+y7VKQjaTvQgnujn5LKK1uCqtyUyMlJak2FVRoANrMmwKpcv7/qVsKWFOCPYEuMaYB1pN/KCnODH9PSV/pXmaJZjXIcfcnrbj+7E0m2iS5cumRbncDeff76cunfvSWvX9hLP1X2ifePG/1G7dovEImIRvfVWV9VrfGBFhjX5/v37JmuyIwMMsdCv2P6MDOZCFgvzYD3GM9CjSwUswxjnMN5hfIMghouYXtKuOV2DZQR0WG4focO6EN05rTrTJ1tZjvFindlad3g7+T8qMYVW77wu+8KWx8kP5N+zXR+5P6PmKoKCgmjixInSLw/+ebCuoTJf9erV6aOPPpIZMJjsS8TBm3KCxyQAEYycnxDMANvG2mIGkfl6EsaWwSZGSFpvTseOXeirr7aJ57qSFi06qHpdC3yMu3VbKZ7HVo8SxgAVR7FbhiA+7Kb5+PjQ6NGjHTbeYQcMvxsEbLEw9jwwBmJMhEuFu4Ux5mwtHzF2xICWjxhjoJ7yEaeldRzdpOaqfFQezfurVS4hs4r8e/tUqv70mrtxqeXYFSAZuDmt6xYwBZYZCZRs1XyUq1atavJRRiJ+Z+FJlmNkC0Ee1qtXoyg6+rI4RosWKx7HU0BAYfL39xPHANGKUpEixahWrVoyDZ/eMPcpTgtpURbCWA8CQHObgG+dO4JNnAG2Qdu2bUEtWpQTIr8xPfWU8xcg9+7dp3HjttHGjWdp7dqNctL1dM6ePSstyWht27aV1mRkvbAHBBQjtaFRx34mcxCot3TLNTn2IW2fq9GTH7HeMNcR2q6N5v9vlMBJ4HHi2BOBSNaEMsSGJpRdVR3LKAF5EMSbNq2hDRs20eOP/0uNG1cQwjevEMD/EccC8ujn9x+Kjf1DiOQ/hFjG8YY4onjMKfr77xxCBDUX73E7XQllCOTPtl5PVQEMi5PgCnlpyJuF3Wox1iYJRF/DfQKTA0Txa6+95jGTRHx8vJj4RtDWrdtp/PjXqVevGuqK41m06Afxf2yjpk0bCzE+XRbXyE7cunVLCmTsomHxCncLlKu2Fs0NqUE1r0eEMSboK3EP2JLsAbjLpUIvmXX0jvb5aBjRDZPFsYG4ffu2SSTjR6r5Jzdp0kTd4Rz0Lo7hvxgW9gHlyvW3ELdBQtxWoipViqmr1nPsWBRt3HhCtEghlHNRaOgYuf3LPAq+f2gQxdllkti/f78QrqH08OFtcWwgFgDPqStZ59tvfxUCfKf4DucTojiMatasqa5kX9asWSOFcnR0tMkv+emn0y+VrvkZpyWMkZqy6/hL9NGQQI9L5/bDDz/I7yYCHrFTlrxLFiNaPBUpUlg0f9ECRCsmWhH53bLXKq8HtCwVyPO+a77zg8fT8iM2+o4Ykzksjg1KbGysSSj/+uuvJmsyfriORq/iGBPCuHEQK3eEoKjvcLEyfvxuIVbyiuM0FisCWIndmaNTLyxdusRsMVZRtEpUubLti7GjR6PEpPs/i8VYD3WV0YD4gyV57dq1UiCjlS1bVl1NBsIYgknL+Z0eKBzhCaCs8ObNG8X3ZwN5eeWmhg3LCuGbV7TkXTIc/fzyi3niphDJ2CXDDhmOd2jnzrOUlHRf/HZbikVtC6fMGc5Ec6lwZqClJ7qIMbbB4tgDgDjWhDK2JSGS0V588UV1R9bQmzhO3uZ+j7Zu/UoI12bUq1ewuuJ4EIw1fvxXaps7LNttc7NvXfrAjWfjxtViEt1M8HBq3LicECVPU0BAsjh51I3nhjxGR9+kiIif6cEDEhNuMyGu39Slv7veQLCe5pcMtx1Ykxs0aCCvIVB19+HkQNX08IQMO/PmzRMLs6nk7Z1XCNvy4vsTRBUrpqTJspaTJ6PF9zZSCOzTlJh4m0aMGEUDBgxQV/WNtmWPinmOdCmzHOswxs2aNYvHumwKi2MP46effpIiGQ1bkJrrxXPPOc6q6k4QINWuXSsxKZQVk8QbqtfV9FZHz0XzrYOlGIKYfesyJjkA9DshgC+JdlkI4KuixYrHCUIkY2vbVxyLiCMCQItTrVqvsiC2k3/++cfkl5w7d27KXXoyff9z5ot1ZK5YMtZ2C78e2LZtm1icj6ZChZ4Qi9M6FBxcQl3JOocPX6SJE7+mhIR7NH78VJmHWq84w6WCxzomLVgcezDYeoNIhlUZ4lgTyn5+fuoOY7Fr1y5q27a1EMVtqHdv51mLM2PXruImi5UnAcsJUhJhosBjLR8xbyUyegWFRCCUYRTQ/JJRaMRTQBaP8eNH0po1jVWPq9GXIcBRLhV6rdDJ6AePr5CXnYEvGbbh4uLiaMSIEabKfLAMYGBAgJ9R+OKLz6lJEzzvLm4VxgDP44svlqszYwMRDMsJ0oWhRUVFyRydFy9eFJOyPqrWMUx6IBh569at0rKKcQ4BZ7169ZIlq43Onj17qGbNl8Vv0DVZiYzArkPJrjNt69ue0hRjHeY9bazTY4VORj+w5Tib8ffff5usyQg40KzJaHpl8eLFNG7cSFq7thu9/HIp1es+UFa4bdslNGHCVOrZs5fqNRbaViKnJGI8ievXr5v8ksuVKyetyS1atFBXjcPKlSupe/dutGZNP2rZMkj1up7PP3+SOnbsrM6Mh+ZH7MmpJhnnwOI4G3Pjxg2TUD5y5IhJKDds2FDd4X5gAXrppZfE8xspjvqpNPTjj5eoatWp4vgjValSRfXqG95KZLITK1asMFUd1bJcwEdZ70yfPoU+/nguhYd3oRo1nlW97qFYsbE0YMBAGj58tOoxBuxHzGQVFseMBJHgWsYL5BWFSIZYrlHDeQUPMuPBgwdCEFei/v1rUK9eVVWvfli06BB98skhIdxP0OOPP6569YXmNoESzngMMQxfYhbETHYBZXxhSY6IiJACGdbkZ591r+hMjw8+mExbtnwuhHFnKlGikOp1HxcuXKP27T8T4rIzjR49RvXqE178M46ExTHzCKdPnzYJZUSGa0I5KMi123tdu3agfPlu0bx5zVSP/hgwYBPdvu0lBuVw1aMPLN0mtOA6tpww2ZVz586ZslzAVxlCWU85fvF77devJx06NJSKFtVPkaXLl3+natVm0IIFS6Tg1BNY8Gv5iHnxzzgSFsdMhhw+fFiKZDTk+IVIRoPgcibIL7lhwxLav3+Q6tEvNWvOppYte9KQIe+qHvcA3zpMFJhkIYI1y4mzPyuGMRL37t2TAhlCuVChQtKS3LFjR3XVPfz2229CgL5Ey5d3lvmy9QbK63fpslII96Nut7pDBLMfMeNsWBwzVoPoac1HGStzzUcZE4wjgbU6MNBPCL0euvIzTg/4HzdvvpiuXImjnDldmwDG3HLClZwYxjbWr18vhTIKKWl+yQUK2J4JIavUrl2DGjUqQSNG6LdaXVjYt7RjxwX65ptDqse1WO6GsR8x40xYHDN2sXHjRpNQbty4sUkoP/HEE+oO+5k+/UM6fnwnrVrVQfXYz+CZgbRsS0G6+d3/VI9zePPNL+iFF0Jo+PCRqsd5sOWEYRwLApJhSUYQn+aXXLFiRXXVuQwb9i4lJBwT//dbqke/dO68gry9q9DMmbNVj3NhP2LGXbA4ZrIEtig1kYwiHZpIttc3DanmYDX+6qveVLly1qtZBTauSNEJj1PYoKs0vHOc6nU8x45FUZMm/6UrV2LpMdQSdgIQwmgQxWw5YRjHExMTY/JLrlq1qhTKWPw7CwRClyhRQhynypLj9vDphkK057AXnb7wFJ29+KTqRbnsO1SuxJ9Uv9pNat/gBvWYWNz02F6uXv2DihYdKfOgFy1aVPU6Fiz+Mc5xEDHjTlgcMw4jISHBJJRPnTplEsp16tRRd2TOtGlTKDJyD33+eXvVYz+YNPpOSRbYmCgOLvtZPnYWHTuupqCgehQa6ri0R5gcYDmBIGa3CYZxHcivDqEMNy+t+p6jGTiwL+XNm0AffhiieqwnfFcBmrjI3ySI6wcnUfc3rpnEb8SB/LRkc0H6cm+Km8jqKReyJI5BaOh2unvXmz7+eJHqyTq8G8boDRbHjFNAgIkmlH///XeTUEbO4ozw8SlEO3f2oxdeCFQ99lO9Wxk6FJlXnRHtmHueQmrcVGeO5/jxKxQSsoDi46+pHvvQJgr4EeMIITxu3Dg5YfBEwTCuBSngYEn+/vvvTX7JAQEB6qr9nD9/Xiymy0ursbd3PtVrHdNX+NKIuUXUGWW4MwaR3G5kCUq6k8sh4jgx8ba0HkdGnpYVV7MChDD7ETN6hMtHM04BEc3vvfeeLOKxYcMGmQcYEeGVKlWiSZMm0c8/P2rF/e6778QA6e0QYXzkdN5UwhjAiuJM8Lzx/PE67AETxZAhQ+Q2K7YUkWYKpU3h3w2BzBMGw7iekJAQOYYhXzJKDmNs69atGx08eFDdYR8o9jFsWDObhTF2xMyF8TsdEjJ0GYNBIOydaHWWdfB8hw9vQjNmTFY9toHFP8o1o4Qz3sf8+fPLMQ7v7+DBg3mcY3QBW44Zl7J//35pTYZVuWTJktKaDKtykSJFaPToUMqZ8zchnhuou+0H/nVnLj6ZSiB75X1IJ8PPUDG/+6rH8bz//g56+LAUTZkyXfVkDCaK2bNnS+sJHmv5iNltgmH0CQSy5pcMaycsyRjDbAF/o1ChgnT9+kzy8npK9WZOVGxuqti+nLQCA1vGtHJtytPYXjFZthyDpKR7VLDgULp27boUt5mBsc3cjxjuEnCb4HGO0StsOWZcSs2aNaW7AAJfRo8eTSdPnqQyZcpI68wXX6yiBg1KqjvtBxPIrkNe0scYk4cGJpS1u52bXL9Bg9K0c+cOdZY22kQBywlaVFQULVu2TAa5wKLCEwbD6BeIwREjRki3iB49etD8+fPlGIbc7Hfu3FF3ZczOnTvFmFfFJmEMZq0qbBLGILjCHasX+63qZF0Ua+B5h4RUlq8jPbRxDrthGOcw7kMQYzcM4x2Pc4yeYXHMuI1GjRrR0qVLpRWlWbNmFBsbT19/nfWgOQjgVnWTJ4LWdf+QR41lW53rWlGzZim6fPmqjEK3xHyigAUFVmJPnyiiYu/T4JlXKP+rzk2lxzDuoEOHDvJ3vWjRIjp27Bj5+PjQu+++S7/88ou6I2127NhCDRs+p86sB2kpzSlX8k/1KHMm9XOM1VgjJKQ0RURsUmcp4P3Q3CYwzhUrVkyOc3CbYH9ixiiwOGbcDgpnwCe5TZtqNG5cE9VrPxDAb4b8Lh/3aZUojxqI7EaAijNp2LCcyaKCDBPaRAFhnF386zRRXLH9GZqzOoGS7qRY8BnG08CO2Oeffy5L7yPXe/Xq1alt27aycFJa7Ny5S4jL59WZdWDcMrcag2pBt9Uj19OwYVkhjnfLx7ASm/sRA/YjZowMi2NGF5w//ytVqOCjzuwH6Y0CfO5T1fLJ25s4Io2bOc4OzCtV6hkxaWyTE0Xt2rWlZRzWYVhPPN1tgkUxk52BD/LUqVNlWksE1A4dOlQKZaRj1EAgn7e3lxgnvFWPdfxxW1/TdaFCecVC4DF67rnn5FinuYdlh3GO8XxYHDO6ID4+lnx9bYvaTov1ewuYXCo0WtZO7VqBvJ/wS3YWJ05E04EDB03+dfBFzC4TxdrdN+jMhT+pQTUv1cMw2Q8UAurfv78YC07QyJEjZQByYGAgTZ48WVpTGzWyzWqcHjdvp7Yku5I5c76mf/65LysJmruHsZWY8QRYHDO6IC4uRojjrLk7QPAeisxHfVqmzjOMNEcBPg/UWTKLNxVSjx4F1uccVSqbGnKK2kKfPrWoUqVy2dK/bnjnwrRrfmlaN60kVQtKnUqPYbIjiKfYtm2bzEhz5coVcdxI/v62Lx6rW+yAgbMXbQvocyRwgRs6tL54Ld4siBmPg8Uxowvi4uKpcOGsWRsRyY1S0ebCVmvoN+ezrWmLYwjhDqNSZ8xATlEIZmvB68DrYRiG0XjxxRdlCrhixQLI19f2sQ5ZKcqWSB2Ad+ZCSrloe8iqIQAGDRg2GMbTYHHM6IL4+AS7Jgxz4FJxaWsk/Xv02CPt8PLUWTAgltMSvHPDfUz/BlWnNGCRtha8jvj4RBmpXb9+fQoLC5PbjgzDMLGxcCGzb6zr1vS6epTM4VP27844whCA1xEXl34BEoYxKiyOGV0QF3ctS+J48MxAGbmdXs5PBObVD05SZ8nMWV1YPUoGVfWubD+pzoherXxLPbItKrxw4afl60HJ54EDB8qt1DfffFP6HHbv3p1WrVpFiYmps2gwjFE4cvoOtQm9QNW7ZT3tYnYkPj6e/PzscyGDi5h5gDGyV1hr7X1/gb96lIwjDAF4HbxLxngiLI4ZXeDrW4iuXbM9LRH8jCGM56z2Ia+8/2QYaGcZqIfqeW1CS5r+jZbhQuOdGcllrFGe1Zb8oPHxt+TrAfA3/Pjjj+ns2bO0d+9eqly5sgzOQYnoGjVq0NixY2XVQIbRO5ooDu7yM32513H5crMbsbFZ2yULn3IhlXvF5CW+GaanxPiG6ngxiSljo6MMAcmWY17oM54Hi2NGFxQu7CMmjdSWXWso3jRICmOwdEtBeV69Wxl5rqH51fWdUkz1pIDMFfg35luJ2v1a6Wn8fUwm1hIXlyRez6NpmpDyCBHsyP95+/ZtGbn+4MEDWTSgQIECMi8qigmgUh7D6AUWxY7nscfszzKB3bEdc89R92bJLhawHrcbWUIaCczHKQhm9L3So4ysjrdk7CV1xXGGAIbxVHL8K1CPGcZthITUESKxIjVoUE71uB+IbE0gI9uFuaUlIyIiTtPs2SfF8RvVkzkop717925ZNABHVNqqV6+e9FnGEUVSjAa23Q9FpkzC/x6trB4xRqLHxCiZrzo64X6qzxPZSA4uS70QZTLnuedKiLGhJ5UsaVue47SAGN66Lz/tOeIlg/PMi4TA/aJe1STq2fxauu5mMARY+h0jPsNSPKfHoEHhtGTJQZowYZIcqypVqqSuZD/eXxBDk5fEqrP0KVviSTqzrrw6Y/QKW47dSPiu36lB/3OytG6OKscosHGkLKCAQgrZBa3+/vnzUbRu3THVqw8OLvtZWlIAAvistR7Hxd0kX18/dWYd/v7+spz0ypUrxb+Po8WLF1PBggVp2rRplCdPHmrcuLHMlxwZGan+BcO4hiVji8nUfCyEbUcb37TqcbNnz6bChQtTbOxNdUfWgIhFWWiMVTe/+5/JhxgNfbiWnjAGsBLjXnM/5lbDn1WPMqd168pUvHhRudvVpk0b6S7Wp08f+vLLL2Xxo+zE4VPWLSha1bE+4JFxH2w5dhPTV8TTiLnR8vGOuaXlarLRoHN09uKfFOCTmxaNKUYhNbKWvUGvYML43//+J/N+btq0SVaVypkzB9Ws6SUmkcbqLv0AFwuAScQaPvwwgm7cKCGE7UzVkzWSkpJSWZX/+ecfk1UZTa85RrOb5fiHH36Q/uNXr15W7aposaLFU5EiPqL5i1ZEtKKyoeTwyy+/rP61McAiXoMtx4+CcQ0l47/77jspijHWYXxDtbzXXntNFsno3bsbtW3rI4WlntBiN4C11uO1a48JIRwnjpvl+ZkzZ2jXrl1ynMIR33FtnKpSpYq8x1OBkcuaiqCHl5cR7631bnqMe2Bx7AZgMe4wKtmv1HyLJeJAkhTIwNO2XswFMUqpYpJ44403qHnz5nLygK/td9+tpM8/76j+hevRJofVUy6k8rsLbFyRAgrfl5YYa+jYcbmYDLtSr169VI9jOX36tEko41i1alU5+UAwo1StXsgO4hgiaPPmdWKRt5m8vJ6khg3LCuGbR7T/iFZAHhHRD0vh1at/iHZDHW9TRMRZun37vvgdNBOtrRRQeofFcQramKaNazhioYqxTRPDGNssF6+DBvWn0qV/p4EDa6se/WCrIWDu3K/p/PkC4rhA9aSAeApNJOOIRb4mlBs0aCB3xjwFzN3tRl6gMT386NXK+R4Rv59uSKS+Uy7zgtJAsDh2A3Cl2H04OfjM8sdivvoMGxQgK44ZlbQEMSYNCGI8Nufy5ctUpUolSkiYpnpcDzJXIEAPaAIZaZKQ+9PayQJ4e4fSsWMnqGjRoqrHecCKjIlHE8rwXdaEMo4BAQHqTtfjyeJ43rx5NH36VPFZ5xXCtpxolahixSLqqvWcPBkthPVJ8Rs5Q4mJt2nEiJE0YMBAdVV/ZGdxjPEM1mBtTNOswtq4pj3OjClTpgih+AN9+OEbqsf1OMoQ8N57m8Si8BUaNWqU6kmfc+fOpbIqI3OPJpSrVaum7jIm8Dd+uVK+dHd7EdCKYFajz+nZCRbHbsBcAFtOMOaCwqiTDyYQc5eJ9ASxJVWqVKRZs0KoZs1Sqsf1aJYTjdZ1b9C6aRfUWebs33+eBg/eIcSxe3yDo6KiTFZltGLFipmsNRDMrgKWlF6To2QQlwasKpP6pc61ajRQBnjChFFUqNATNH58Papatbi6knWOHLkk/vYeIZL/pHHjptLrr7+uruiH7CKOIXzhHoGx7MSJE1IQ49x8gZ+WVdgaDh48SP36dRJ/c4TqcT2OMgT83/+F0YIFK+3asTIXysj9DJGsjVW+vrZV6tM72px/aWsQFfNLP90oox9YHLuBjCYYo1rbMIloohgThrWC2JzRo0MpR47zNHlyQ9VjPN5/fzs9fFiapkyZrnrcC/xgNavyTz/9ZBLJOJYp43hhg4DSOauTgxjT450OPjR7aHLqKKOAPNXjxoXS2rVNVI+r6a2O7sVTxbG2y4UxDK4yeAzxqy3uNX9hR+Hv70P79r1DpUplPWOFvWTVEHD+fCLVqjWHYmIy/r1bAwL6NKGMY7ly5UxCGX7LRkZzqagf7EW75pdWvYzeYXHsBpCVQrOoIfjuyvYg+RgYSRybC2Kg+RDbO4lgUho+vC8dOTJE9RiPqlU/ounTP5UTqt64fv16KqvyE088YZqAIJjz5bO+MlZ2Au9Z+/ZtaOjQOjRypLsWbiyOHQmswBDAablIYBzD0ZmBrt27d6TKlXNS//6vqB7jMX/+d3Ts2L+0dOkq1eM4vvnmG5NQxmeljVNoqDRqJNilwpiwOHYD2o9Fwzx6Ve/iGJMJ3CUcJYgt8fEpSDt3vk0vvGCsARAcP36FQkIWUHz8NdWjb7BdjMlHE8ywjmlWZU+PLLeWlSuXCyHTg8LDe1OrVo6zHNrKypWPUadO3dWZ+zCiONaswmhYgENsoeH7jry8WXGRsJe1a9eKz/Qj2rrV/Z+pvTRtukR8J4fK4kXOJDo6OpULBtLFaUK5Tp066i79wi4VxoTFsRtAHmMtbRvAdgtStwHzfq+8uejmd+6bkDXMBTEmGuTjdaQgNicsbApFRu4RE0d71WMcOnZcRUFB9Sg0dIzqMQ5//fVXKqGMz1kTyjh6mg+gNUyf/gHNm/cxrV7dhWrUsD73qzMoWnQsDRzYn4YPf1/1uAcjiGNzFwltzILw1cQwxi1njF22gBzAhQoVpOvXZ5KX11Oq1zgkJd2jggWH0rVr1yl//vRLVzsDpEvUhDLcnTShDJ9lCGc9wS4VxoXFsZuAQB42O1paieFiASEcXCGvKYsFcOcPCpYVZJjA5ILHXbt2laLY2RaWv//+mwIC/Gjbtt5UufKj5Z71yrFjUfT6659SdHQcPfbYY6rXuPz2229yAtIEM/yTNaEMkeHpfPDBZPHdX0Fr1nQVE24h1es+Lly4Rh06LKdmzTrS6NHuE8h6FMcQwhijMsot7EqrsLX07duNvL1v0aRJDVSPcXj//QhKTHyaFi5crnrcAwomaUIZRxRYMQ/sy5Ejh7rTPbBLhXFhcawjzPMcA1f/oDCpoIKTqwWxJUiRdfz4Tlq16k3Vo3/eeusLMQk3oOHDR6sezwKiQ7Mq//zzzyarMtqzz7rXqupoNm/eRP369aRDh4ZR0aLPqF73c/ny7xQcPEMIkkX0xhstVK9rcbc41qzCaBincMTYBAGsiWFXj1f2cv78eQoKKi8+V6QENI6/P1IOFi06kiIjT1OpUu7LLJQWhw4dMgnlY8eOpRLKzz33nLrLdcClAuhhB5ixDRbHOsLcF9kyUM9ZYLKBhXj58uXyMSaXd955x60TDHL3BgT4ismvJ730kuNSZTmLH3+8JMTKYmk1zpnT8yuyw1qjCWUc8T3B5KMJZgT6GRVYzKtVqyJ+D52oceMKqlc/bN9+ijp3XkmHDx91+aJE2yLWwG7Xp6OLUvsGzltAYEzCwkwTwzjH2KSJYe2xURk0qA899VQCTZvWSPXon9DQbXT3rg99/PEi1aNPEICsCWU0Ly8vk1CGaH788cfVnc5B+720rltAll9njAWLY51gaTVePaWE0yYdS0GMyQWCWE/bj7NmfUQbNiyh/fvfUT36pWbN2dSyZU8aMuRd1ZO9OHr0qEkoQ8iYC2X4eBqJ2rWrUaNGJWjECP1VL9MIC9tLO3ZE0TffHFI9zsUySDgtHDFeYSzCjhW+Q47OLaxXUPwIfrKwHqOaot5BdUdYjZF6zRVFjhyJNk6hff/996mEMlLHORrN2LVwVFHq09J9KfsY+2BxrAOOnL5DrYZfMKV3c4Y7BSYeBNXNmTPHJIjhMgFLsV4nm65d21O+fEk0b15z1aM/Bg7cRElJ+cRCY63qyd7cvn3bZFVGQ6CfNglBMOu5ZOzQoYMpMfEorVjRWfXoF1iPfXxepBkz5qge44FxCAIYYtgVuYX1yrBh71JCAr537iudby2dO68gb+8qNHPmbNVjTFDKWrMq4wgrsiaUccyTJ4+6037YpcLYsDh2M9NXxNPkJbEy1Qu2KVFFzFHCGJMPJh4IYlhgMOlomSaMYH1Bbf6qVf+P3n67GvXqFax69cPixYdo/vxDdOTICadv0RkV+CdjAtIE84svvmiyKr/88svqLvdjqwVPK79rDQE+D6hsiXvU/Y1rqUr1ZgUjWvAwBkEAp+Ui4Yrcwnqmdu3q1KhRSRoxQn/50TXCwr6hHTsu0TffHFQ9noOW1lITzOZC2Z7dL3apMD4uE8fujhq1BWe/JbAUb913kz7bet1kLcaPCKJYy3dsL5oghsuEZokxkiC2BFthL730khCgI3Xlfww/46pVp4rjj5wT2AbMrcoodY3JBw2CGaWu3cXAgb0oTx74ftpWsvn9Bf5iceunzpLRyu9+uqGQENCF6ezFJ+U5sLUKWUaEhn5F9+750Ny5i1WPftCswmh6yS2sZ+DrHhxcRe5aNG5cXvXqB/i6d+mykg4dcr2vu6u5e/duKqEMI40mlHGE73Jm6M2lwkj6C+jBZutScXzUAEbqKuJ5OvMtCd/1O3UYdVEG3JUt8aRM39a0Vv4siWJtIoIghjDGpANLDLJNeMLks3jxYho3biStXdudXn7Z/QPzDz+cp7Ztl9KECVOpZ89eqpexFST3x+SjCWZ/f3+TVRnNVcGNWc0aYFmGVxPHICo2N73So4xYBKfsLCwcFSUmzKwXiknOGjCKIiNPuT1rgDYGYfzRrMIYezQxDKtwdnCRyAp43/r27UGHD+sxS8p0WrhwiZhX9Ovi5izOnDmTKrDvlVdeMY1RRjGMGEV/AWdrMGthcWyBXj6YzPB0QWzJF198Tt27d6c1a3pT8+YVVa/r2bjxf9Su3SJaunQRdezYVfUyjuDgwYMmoXzkyBGTUMaxfHnnWdP69u1KPj63aOJE+0pDZySOgaULRrWgO3Rw2c/qLGuMHbuD4uOfpk8/XaF6XAPGHliCjZZbWO9o+bXDw7tSyZLuz6998eI1at/e/fm19QKsyOZCGb7LmlCGVVmvMRUsjm2HxbEFehbHmiCGhQHBdZ4uiC3BoNS2bSuaPr2tW3yQ//vfAzRixHpau3a9HAgZ54HvujYBQTDDiqwJZRyt2dq0BkdUKnOnOHZFpTJt3NHGHhwx3kAAGy23sBFAZcaPP54rBbI7KzMeOPCbLDzTv//bYtwbq3oZc3799VfTOIX5qXLlyiahXK1aNXWX+2FxbDssji3Qmzg2F8RIv4YJCYJY89nLbhw/flwI5BbUokU5mjChMT31lPNr1d+7d5/GjdsmFiQ/05o1G+iFF15QVxhXERkZmcpfGcF8msWmatWq6i7bWbt2La1cOZO2bu2hemzHVnFcPziJds1PSduYVZo2XUSdOg0Tv4t2qidrYMyBNVgbd3COsUYTw9pjxnmsXLmcunfvIQRyb2rVyvXv9YYNx007ZJ06dVO9TEZAN5gL5fj4eJNQxtGdJfhZHNsOi2ML9PLBaL57moVYy/PJkxLJQWfs2BH01Vfbafz4JtSrV3V1xfEsWnRACOOvqFmzxkKMT5flSRn3ghLj2iQEwZyQkCAnH82qDN9la+ne/U168cWcNGBALdVjO7b4HHvlfUhrpl6kkBo35bkjmD//Wzp27B8hZMJVj/VA+MI9AuNNdsktbBTw3W7fvg0NHVqHRo60z+XHHj78cCfNmPG1EObr5G+KsQ9kkjF3wShbtqxJKNesWVPd5RpYHNsOi2ML3PnBYILSRDEmIxbEGbN//34hXEPpn3/uCJFcn157zXHlQb/99lfxt3fRY4/lE397mssHM8Z6MAmZW5URnKYJ5Tp16qi70sbf35v27Rss/o39EeVpiWOI4oiDXqmyVcCdYlyvWIcKY3D+fCLVqjWbYmISVU/6aDtRGGeyc25ho3D27Fk5xp06dVIcG1K7dqm/a45kzZqjNGHCTqpQoaI4hkkxxziOr7/+2jRGYczShDKOAQEB6i7nwOLYdlgcW+DqD8ZcEAPNZYInKOtZunQphYV9QLly/U0tWgSJVokqV7Y9LdjRo1G0adMJ2rgxkv7+OxeFho6RQYCMscCiCRMQBPPJkydTWZWfey5lAYUAwH79OgmBOEL12IelOE6L7s2uU59WiVS1fMaV5uylUqUPaeHCL6h69dS7KLACQwCn5SKBsQZHtgrrn23btgnBOooKFXpCLNbrUdWqjnOpO3Lkkvjbuykh4S/xt6fQ6683UVcYZ3HlyhWTUEbDb1ITyrVrO746J4tj22FxbIErPhgWxM7h0KFDQtyuF+L2S3rssX+oceOyVKRIfrEqLyALOwQE/If8/P5DsbF/UHT0H3T16g11vEnbt58VgjinENatxWfRSlfBFIz9JCYmmoQyjvny5TMJ5VOnTlFS0vf04YdZS0+VkVsFch1PXuxvcquA9Th8ygUq5pec39xRvPfeBvGdR4GVBlIIc25hz2TevI9p+vSpQiTnEfNGBfGZVqSKFW23Op48eVXMPyfEeHlK/Ebu0ogRI2nAgIHqKuNqtAU9GlLHaUIZRxQnyiosjm1Ht+L49Ok7tGJFPEVG3hEr2uSJpESJJ6lOnQJUq1Z+IWj+kteGDg2U1xyFsz4YTFjwH9asN1phDhbEzgFCed++feJ7EiUE8GWZUzcmJlYc44VILizEsp9oAeJxUXEsJr5TtVgQZwMQ0KlNQklJN+itt0rRoEEZu15kRmYBeRDIfaek7GSULfEn7Zh7zqECee7cr+nLLy/TrVv3TGIYYwuPL54JFj+bN28Qc8oG8vLKTSEhz5O/v5c0AhQpkmwM8PPLT7GxN2U1RRgCcIyJSaKIiF/Ed/++mH9aCIHdSrrTMPohLi7ONEbBZxlxLuYuGPZgjf7q1u1nqansISgoLy1bVkadZQ0Wxxmwa9fv9MEHl8nH53Hq1ctPfCGSE6Jv2JBIq1cn0MWLf8rzDh18dC2OzQUxLDjvvPMOC2KG0Qlt275BrVv7imPW/DgzE8fA8p6wQVdpeOc4dYaKWiXpy70F1FnafyMj1q49JsRxjDhuVT1MduGHH36QlserVy+rdlW0GNEShEj2Ec1ftCJCPAdSQEAxGT+hp9LtTMbA0KMF9h07diyVUC5durS6K2OsFce3bz+UuqqlquoHLTZq1EX5WOPo0ZSxDJps8eI4IeAfZ3FsL9aKY1iM3377HN2585CmTClhEsYasbH3adCgc1Ig61EcQwQj5ZomiJGDGFZi3s5kGH1Rq1YwTZ5cSxytm2DSwx5x/E6HBJo99Ip8XL1bGToUmbpCZoDPA7qy/aQ6y5x9+87R6NHfCpH0o+phGMbTuH79eqoMGMj3bu6C8fjjKZU4zbFGf4WGXqDBgwPIzy8lPWpm4hhAs33ySQzNn5+1cVRDL+LYNfVZbWDfvptSGIPffku2EJuDD27u3NKUN28u1eN+4CYxe/Zsmf8WLSoqSqyilsmI1FmzZklLMQtjhtEXcXHxcuvZ2Rw5/Whp+CLeD+Rx+gpfCq5wRwpqNPgkA/gop/Xv0gOvA6+HYRjPBRX4OnToIIPQEdSHCrlwu5gxYwblyZOHXn/9dalF4LdsK9OmlUwljK2lfPm8DhPGekJ34vju3WRhDJYsiaWZM69Ia7E5+ACbNXNvmUZLQQwfME0Q48iCmGH0TVxcIvn6OqbSXkZ8uj51mjhYhdvW/10+frXyLZMFGUAoA9xjS2YLvI64uOvqjGGY7ECVKlVo5MiRMk3ctWvXqFu3bjL9H0QyMvP0799f7mIztqM7cWwJfIzbtz/ziEiuXt35Fh9LIIjhMmEuiGEZRpDPxo0bWRAzjMF47LGs7UC9v+DRgiMIwAOw/MKXeOmWlIU8gvEWjYkyBeOZC2Dcr1XSWz/9N3lkGIaxBpSPb926NX366afSSLdu3TqZ6WL+/PnqDsYWdOlz3KXLz+osNXClgMX4zTcL22X+twZLfxcIYqRdmzBhgnwM32EE1iEinIUwwxgLLYUisjlMmTKeIiJ6U8mSyWLWFixLQmcEBHH5kveEEL6bKgjPHMuAPLhXHFyW9jiYFufOJVC1ajOoSZM3qFOnTlzZjGEYE7YkRDDHGp9jR8MBeRkAKzEsxunh45ObBg8u8kiwniPAB3Pjxg05icKfBxknIIi11GssiBnGWJhnjcHvV8sr3rlzO5o69TV6+eVn1Z3uBZbj4C4pEd/mQXuZoQXktW7dkVasWEH379+XIrlz587k6+ur7mIYJjvC4th2dOlWgQwUgwYFpBt0h7zH+MCQRsRR3PrjDzomBDGAy8ScOXPkJAqXiW+++UZmnWBhzDDGwNwFSqs4hVgA/JYHDx4sF7wQjcgDqxfgYoGgPPgbg8OnrA/Ii4tLIj8/X7mrhXRPn3zyCZ07d06+zvbt29P27dvVnQzDMExm6NbnuHPnwmKAL01166ZsNVoyZ85V9SjrrBZi+L8TJsjHLIgZvXLk9B1qE3qB8r/6P8pR5RgFNo6kwTOvUJRF0Gp2RHOBQlAKRDF2fsaNGyf978aPH/9IfnFfX39diWONQe2Td80CfKz/TOPiborX46fOSOayXbRokUz9hCIPkydPlgE6OCKbDsMwDJM+ug7IQ4oQpBdZvrwMNWtW6BFLMlK+Ocp6nEO0J/PkkY9//z05kpxh9MT0FfFU/+1z9OXeG5Sk0h1GJ9ynOasTqNGgc9lWIEMQQ/xCECM2AP7E2gI3I1coX99AQulwdxLYuKJs5gT6/iWP8FG2lpiYP6hw4UfLCOfNm5f69etHBw4coJUrVwoRHUdBQUHUsmVLGUTMMAzDPIruxHH//ufUoxQgkseOLSYtyShTaI5WLS8tkNS6ShXrKk31GjeOmnbtKh/XqFFDpkgZO3YsHTx4UPYxyfSYGCUtlrBWMq4DFuPJS2JNotiSs+J3MGx2tDrzfGAl1lIptmjRQvZB7GluE9bs+MDdIiLiV3XmHpDPGM1cIM9ZXZha172RbvBeWuzY8SvVqVNfnaVNcHAwzZs3T1qTmzRpIl3H4Hbx/vvvSxcMhmEYR4MYMugwJFswEroTx8hznJ41GCIZJQoRkKfh7Z121ooVK+Jp794b6sw66rVpI4+wrnz00UcyqKVv374UGBhIffr0kUE96MuuwHK5dMs1dca4Erz3wRXy0uHlZejfo5XlsWyJJ9XVZGBR9mQ0twmIYYhi89ziablNZEb16tUpISGJzp93XOyCraCMNIBARhU9tHc6xNO6aRdkvzXg+Scm3pKvxxpQRat79+7yvcSYdufOHWkQQG7UNWvWqLsYhjEy5m5m7gIBfRklV9AzunSryOzNrFs3xSpUuXI+9SgFfCBz52bNilarVi368MMP6cSJE7Rnzx4qU6aMDHLJly+f3KpFLkFUqMkuRBxIkpZLxj145c1Fu+aXpqpigQhw3DG3NAWYLRQ9FQzwQ4YMkTk74TYBH1pH5RYPCalHO3faXk3KUcA6rFXH01r7BrYtcnbuPE0NG9ZVZ7aB9w+GgMTERFPlLT8/PwoNDaVTp06pu4zPpxsS5Y5X9W7Wp8djGKNhGXehuZm5A1iKLTNdGAldimO4SsAlwrIynsapU8nmefghw5psCT6QjAL5bOX555+XkzNqmickJFDbtm3p+++/lxMLrDWTJk2io0ePqrs9D/iy9pocle6WPuN8lowtph6lUMwvNzWo5vwKb+4Ag7zmR4yBHgnu4TJhi9uENYSENKeIiPPqzJhERJyjRo2aqzP76dixoxDaO2nv3r2UM2dOIbgbUv369WVqOCODhf0IBwZvM4yeSE8Qa3EXGC/dwfDhFxyqw1yNbgPy4BLRo8cv0j1CE8lYiUA0R0bekW86/JAt6dbtZxnA5ywwKb/55psyuAW+e4j+xpcT+URLlixJAwYMoG3btukiT5+jaD/qArUys9Yz+qR+sLGFsjbIY4BHQ1aFrLhNWAMEYETEMUpKuqd6jAWed0TEcfE6GqmerFOuXDmaOnUqXb16lXr37i0rbRUsWFBOsj/99JO6yxhgYf/urCu8sPdA4GqGbD3hu7JfAL01gtgRBgRoLUsWLIhRj9IHOg21KHx8Hlc9xkOX4njKlBK0dWsQtW/vQ4cPJ1HTppHSofvtt8/R7dsPadSoojKLhSX4QGrXLpCmNdlZ1K1bl2bOnElnzpyhLVu2UNGiRWnGjBnS/aJNmzZycocPs1FBAF69ql5UzSIQktEHZy6miLrub6SUKTYSmtuENsij4A4Gefx2nCGIzYFFukePt2j69O9Uj7GYMeNb6t69g3wdzgBj2NatW+nIkSOm8rRwOVu8eDH99VdyVg09gx0vBKsynoMmikfMjZbZerILrhLEQAuiS8vFdcmSWHkN96QF+iGKnVGkzZXoskKePcDCDMuyJpohlLWAPFsqujiqOgt8+JB4H23Hjh1ykm/cuDE1atTIbT5AtoJBCFkS1on3FKvzDmb+Q+908KHZQwPVGeMOYBUrLhaOoHuzQmm6XuiVS5cuySIdqFoHtKp1zhbDaXH+/HkKCipPly9PJW/vR2MY9Epi4m0KDBxJp06dplKlSqle54PPDDtnERERcscMlfisDQZ0JVpGHaQ61MAi/+Ay5+0sMs4D89Hc8IRHBPHqKSWovcGFWHpAEKPCJ3K2QxgjuwzGSltrMDhbf2loAXhInADMqx1jR98awyWXj3YwjcVKEpXz0sPdHwwmEk0s58qVSwplNPj06RH46U1YFEPhU0pK31YWx/oDkz8mfmStQHAePic9o1k+YPHAY4hhWIndIYgtGTiwF+XJkyAW16+rHv0TGrqV7t0rTHPnLlY9rgUByRDJ8EnGRK2Vq3766afVHe4DAXjr9/4hg1gRiKfB4tiYwEjTdfwlqh6UL1Wed+Bp4thRgtgcV4ljuLWm5YqhAa+AzCzK2VIcO5Wg7US5fdRJGvzchejOaXWSMc5+S7ANognl06dPm4QyrMrw7XM3sEiiqMRn44ubsiOwONYXWLzgM0IWi92fpGSx0CMY4GFtRNowDPQQxBkV53AHly9fltkwYD0uUkQ/zys9rl79g4oWHSn9seHK5W6w+IdIhn8yBDIasoq4A8uFPYtjz0IzCmh4gjh2hiA2h8Wx7bhMHLsalNjV8r4iL6xeiYmJMQlluF8g36gmlsuWLavuci1IdwTxaz7gsDjWD9ri5WrCA1oztSSF1NBfIB4GeohhiGIM7prbBAZ9vTJ06GBKTDwqRF5n1aNfOnVaToULV6EZM+aoHn2AbD4QybAoI+OF5nZRqFAhdYdzwW8DAcTjevmbfhcsjj0LTxHHzhbE5jjdOJkegUOJfDokP9aRgdIaWBzriIcPH5qEMhq2JzWh/Nprr6m7nIulCM4Mvb63P/zwA+3fv5+io6PEAuSKjLy/ejVGtAQqUsRHNH/RiohWVLaaNWvSyy+/rP61vsF3e9ehpDSFMa7BR9wdYLCHIEblNfgUv/POO27zI7aX2rWrU6NGxWnEiNqqR3+Ehe0VC+ko+uabQ6pHn3z99dcmtwtk+IFIbtCggbrqHBr0Pycz6/Rp6a16WBx7GkYWx64UxHrA/LNC4So973BawuJYxyBCXBPK2D7VhDLcL7y8nGMtNLI4RsW0zZvXCYG2Wbw/T1DDhmWF8M0r2n9EKyCPfn75KTb2ptyWvnr1hjreoZ07z1JS0l9CzL0hBqs2btsSzgwMNsu2XE9TGL+/IIYOn7oj/SxdRVqDPUQxFnNGHOx/++03qlating9ncRvrYLq1Q/bt5+iLl1W0qFDR+nZZ59VvfoG3xFNJKMan+Z24e/vr+5wDPhtAMsdLRbHnoXRxHF2E8TmsDhmnA5yvppblRHIp4llR0aqG1Ecz5s3j6ZPR6aBvGLQKSdaJapYsYi6aj0nT0YLYX1SCOwzMhPAiBEjacCAgeqq+0G0NtIXZYSr3F0wyKNhwPe0wX7z5k3Ut28POnx4OBUtqp9J9/Ll3yk4eDotXPhf8X63Ur3GAjs6mttFkyZNpEjG0RGYi+DM8LQgruyEEcRxdhbEngKLYwPy559/phLKhQsXNgllZ7kG6NHnGMVWJkwYRYUKPUHjx9ejqlUd58965Mgl8bf3CJH8F40bN4Vef929WQy0ALzMcOZEgQEf6dcw4BvVbcJaPvhgEm3Z8jmtXt2FSpZ0jb9sRly8eI3at19GTZt2pDFjxqle43Lv3j2TSEYeeC3TBYIi7SU7i+NDhw7Rvn376OrVKIqOviyO0aLFisfxFBBQmPz9/cQxQDS4kRWTuaqrVaum/rWx0Ks4ZkHsWbA49gBgjdGEcnx8vEkooz355JPqrqyhJ3F89uxZIVhDKTLypBDFjahduxfUFcezZs0x8X9EUFBQRSGWw9wSJIk0RvXfPmdVla9LW4McmtJNG/DhR4wjhPC4cePkwO/pA35Y2CS5KxEe3pVq1HCfC8OBA78JYfwZDRw4gIYPf1/1eg4//vijye0C7kwQya1a2W4Zz27iGIJ406Y1tHHjJnrssX/FeF9BupEFBCS7keHo5/cfio39Q4hkuI/hCFeyO2KuOEV//52DWrRoLha47QwllPUkjlkQey4sjj0MFDTQhPLu3btTCeVixewvEqEXcbxnzx4hFNrQ0KF1aOTIhqrX1fRWR88FAz0yTcBSDEGcXQf8lSuXUffuvYRA7i0Em+st5Bs2HBff90W0ZMl/qVOn7qrXM/nnn3+kQEY7d+6cyTf5+eefV3fYh6f5HC9dupSmTZssBPFDIW6DhLitRFWq2D62HzsWJYT1CdEihVDORaGhY8R3Xf/fMXeLYxbE2QMWxx5MUlKSTA+niWVsWWpCuWrVquou69CDOF65crkYvHvQmjV9qWXLiqrX9axcmVsIla7qzHPAoD979mwpivFYy0fsiW4TtoAFWbt2rWnYsLouXZBNnbqTZs78WgjzdVSvXj3Vmz04efKkye3ixRdflG4XyHhhD54ijpF9BztmDx/epgkTGtBrrz2nrmSdb7/9lcaP3025cuUVx2kye49ecYc4ZkGc/WBxnI3Aj1oTyrdu3UplVUbVPj0TFjaF5s2bK4RCF7ducYOiRd+ngQMH0vDhY1SPcdEG/SFDhsjHyDIBX+LsLogt0Vx5Tp06SWPHNqD27auoK44nPPxHIX52udWVR0+sWrVKiuSffvrJ5JtcsaL1i2Oji2O4yuG7t2ULYiyaUq9eznOBWLTooBDHX1HTpo3ldw/xLHrDVeKYBXH2hsVxNgWTvSaUDxw4INPDaULZ0SmWssoHH0yWwVHh4QjYcX9w1IULCI76TAyUnWn0aGMKZM1tQqtax4O+daQEgeYWgqUeBQfbH0BmyeHDF8Xf3k3Xrt0XfxtBoI7J4uAp/PLLLya3i9KlS5vcLlBsJCOMLI5RTbVdu1bUvHlZCgt7Q/W6A/24kjlTHLMgZjRYHDN0/fr1VO4X5cuXNwnlF15wXrCbNUDA9evXkw4dGqq7tFrVqs2gBQuWyMHTCCDDBHyI8Z4CPG92m7CPefM+lukDCxbMI97DCqJVpIoVA9RV60lOH3hCfCanKTHxjkofOEhdZdJj/fr1UiQjtzkEMizKL730krrqGezatUu680yb1oZ69w5Wve5CH+IYwcljPomh3YeTVA9R67oFaMbgALsDkVkQM2nB4ph5BATyaUIZVfs0oRwSEqLucA3JBRleEoNWZ/H/l1O9+sEIBRkw8GPAnzBhgnwMMQxfYhbEjgHibNOmDULcbiAvr9ziN/I8+ft7yYIzGRWeiYlBPMBZunXrb/GZtBCTcSvdFp7RMyiOpPkm+/r6mtwunnrqKXWHMfn88xXUo0dPWrOml/h+VFK97uPzzx+njh27qTPXY03+fVt2BVgQM5nB4pjJkBMnTpisyhhMzN0vvL1TSrQ6g9q1a4j/rwSNGKFf0RAW9q14fy7orpSvpduEFlzHA7/z0EqWX72KPLNoKFkeK1q8EMkpJcv9/QMpIKCYoUqWG4GvvvpKCmUcNZFsxPd38eJFNG7cSFq7trt4/o4r8JQVAgJG0/jxU6hnz16qx3iwIGZsgcUxYzVI1m/ufoGMF5pYrlDBsaV2hw17lxISjonJ7i3Vo186d14hFgpVaObM2arHPWDghxiGKMZgr7lNYBJgmOxCTEyMFMloefPmNbldGEEAHT16VLqHHDkyUhz187v98cdLYryfKnNSV6nivGBUR8OCmLEXFseMXeBrA4GsiWUUG9GEct26ddVd9nH58mWZdu7y5alyW1rvYJu8aNGRcou3aNGiqtc1YPCHIEaRDk+vWscwtgK/XbhcIOOFJpLr1KmjruqLBw8eCEFckQYMqE49e+qvKMeiRT/QJ58cEcL9JD3++OOqV3+wIGYcAYtjxiHA4qEJ5V9//VWKZE0s2zogDRzYl/LmTaAPP8y6j/PgmYG0bEtBuvnd/1SPcwgN3U5373rTxx8vUj3OI63BH6IYadh48GeYR7l27ZoUybAmo9iI5nbh4+Oj7nA/Xbu2p3z5kmjevOaqR3/0779BjHP5admyNapHH7AgZhwNi2PG4Vy5ciWVVRmiTRPKmVW7QoW/oKDy0mrs7Z1P9dpPYOOKFJ3wOIUNukrDO8epXseTmHhbWo8jI09TqVLO8RPEoI+GCYAHf4axDwRRam4Xbdq0kSLZ1cHGlsya9RFt2LCY9u8frHr0S82as6hly140ZMi7qsc9sCBmnAmLY8ap3L9/P5VQfuaZZ0xCuVatWuquFPr06U4+Prdo0qT6qsd+Pt1QiPpOSS6rWi3oDh1c9rN87CzGjt1JCQlP08KFn6merIMJAOnXMAGw2wTDOA4UQoJAhkUZvzPN7SIw0LWVP2HJDgz0pU2beurKzzg94H/cvPliunIlLtMc046GBTHjKlgcMy7l4MGDJqEcHR1tcr+ABefmzZtUqFBBun59Jnl5ZT0VU/VuZehQZF51RrRj7nkKqXFTnTmepKR7VLDgULp27Trlz59f9dqONgHAjxhHCOFx48bJiYAnAIZxPBiXNLcLWJEhkiG6XAHyZR8/HkGrVtkffHzkdF7aui8/7TniRWcuPElJd5Irngb4PKCyJe5R/eBb9GrlW7JvzCf+tGv+OfnYXt5663MxLjVwSZVQFsSMO2BxzLiNCxcumKzKyHyBMrkrV35EW7d2V3fYDyaL4C6pc162rnuD1k27oM6cQ9OmS8TEOpTatm2reqwHAz8yTcBSDEHMEwDDuJa//vrLJJKxeNd8k52Vx/zvv/+mwEA/+uqr3lS5cvIuly1ExeamWasK05zVyb7TXnkf0pgecVIIVy1/R15fu/sZmhvuI93LgCN20Y4di6ImTT6V1uPHHntM9ToOFsSMu2FxzOiGbt06UpUqOal//1dUj/30mFiczlx8MpXlGBPHyfAzVMzvvupxPPPn7xMTxz+0dOkq1ZMxmARmz54tRTEea/mI2W2CYdzLTz/9ZHK7qFGjhhTJ2OFyJNOmfUCRkXvo8887qB7rgfBtNKg0nRXjHChb4k/aMfdcuuNbm9CS9OXeAg5zMevY8QsKCqpLoaFjVU/WYEHM6AkWx4xu8Pf3oX373qFSpbJWXASTxis9ytCV7Scp/6v/Z9piBM4OzDt/PpFq1ZpNMTGJqudRtElgyJAh8jECFuFLzIKYYfSJJpLPnDlj8k0uVy7rVTsLFy5EERH96IUXbPdzLtemvEkYW7vwx7/Jn++hQ8Tx8eNXqGHD+ZSQ8LvqsR0WxIxeca03PcOkA3z+fHy8siyMAbYRW9W9IR+3rvuHPGos21pQPXIOeP4+Pvnl67EEgz8E8QsvvCDLOcNKfPz4cVq2bBkLY4bRMRDEKKu/c+dOGUCHXO4NGzakzz//XN1hO8iaUby4t13CGCkqNWEMujW7btWO2Dsd4tWjrIPnjeeP12ELEMQYC7t162YaCytVqiTHwm+++YYGDx7MwphxOyyOGV2AQTEkJOM0b9YCAfxmSLI1o0+r1BZcTCgRB+wPlrOGkJDn5OsByDAxfvx4OQlAGCNQb+PGjTwJMIwBQSXQadOmUWxsLHXv3p1Wr14ty+i/++670gJqCzt3fkUNGqSOi7AG7Iwhd7s5IdWT1KOM6dPyGj2d56E6yzoNG5YRr2OzOksfFsSM0WBxzOiCuLir5O/vpc7sJ3xXAQrwuS+DUQCO8LEzZ8lm51qPCxR4ig4c2Ccngdq1a8ssHLAOYyKAUGYrMcMYn3bt2tG2bdvEb/2ALFONWAG4SC1dulRWu8uMnTt3CHFcWp1Zz+JNhVK5igFbsvBkNVOFOQ0aPC+rEKYFC2LGyLA4ZnRBXFwM+fpmXRyv31vA5FKh0bJ2atcKBKXA+uIsEMl95Mgx6UeMiWDWrFksiBnGQyldujRNmjTJlIf8q6++ooIFC9KAAQPo8OHD6q7UoET+5ctXqWZN2wsGHT6VEmQMLBf/rgTPPyoqWr4ewIKY8RRYHDO6ANuUWRXHELyHIvPJrUNzEICHfJ/mwPpiDdNX+FKOKpWlRdpaBgyoTWXKlOSgEobJZrRo0YI2bNhAkZGRYjzzlYF7yHSxYMECunMnRcTCd7lhQ/sC+m7dTW01djd16jxPc+fOZUHMeBQsjhldEB8fT35+WfMFRr5P5PKEmLVsWo5Pjc+2Zi6OkSt5xNwi6sx68Dri4hwX+MIwjLEoVqwYjRkzhn799Vd5RNAarMm9evWi/fv30/nzP1OFCoXV3Vnj5m33iuW7d/+ktWvXsCBmPAoWx4wuiI1NyLLlGC4Vl7ZG0r9Hjz3SDi9PnboIYjkza7BlERFrweuIi0s/lRvDMNkHVAH9//buBKyqMv8D+K8yq2HCTGVXw6zGBVpUcMmcytyaxF2xXNDMzH1UGMxSSlEByzXrjzuVqBOKlqFZjfq4Bpl7MykkCgiiBqNWWs3//R3eg4fLvXjv5S7nwPfzPOc597wXDbpyzve85/e+b3JyslJ2wSUYr732Gi1fvoqOHs2RX2GbpoG/yFcltLNWuEPv3o/TM8+0RSCGKgXhGHSjRg37e0B4aqPWQVcsTmfEA/OeCy07onvBWss9N7z0NK+oB/b5IOUC3dYyw+LWJqLy86wCGAmXWURGRiolF4GB9Sk/v5hiYj6V71ovpPkV+eomR87AU79bsHL+s5aPDz8pc97c8QDugHAMuuDr60V5edaPuFZxnTEHY14+1dPjjwoH2pkO1OPV83jVKNM/w38fD+ILaXZNttjm/PliccGo/HzNRrbjwH/lK/PGh5csdwtQHd248SvFx/eh6dP/Jlusx2MqTMdQ7DlcdpCevfh8aFqCdive3p4i6BfII4CqAeEYdMHb29uucPzAC0FKMGYrNtdRjk17Pbh8guuOX41tKFtu4pkr+M+oJRY8AC9HXBwqs4pebOzndOHCZZo5cybt2bNHtlYfZ/Kui/+vlnvdA7xq0oBO98sjgOonP7+wUmVk8RPOylclrBlDwbiH2VI5GXcK8PnQVvxz5OWhjAyqFoRj0AVfX1+7wrG5+mLTpVEHdLps9uu0G38ND8BbmOxFG+Zmyj9pn65dm1Pz5k2UaY3GjRtHtWvXpl69etHixYvp+PHj8quqrvVfXKY+z9YW/19bmN3Obg2SXwlQPZ0/X7lwzOcrXgpfxb293OtbEb7x7x8dSI38y5eecWDmKeJMe6St4e19rwj7F+URQNWAcAy64OPjZ1c4dqT4NWVnu9DOVBE+tZFycbHG+fNFypRGCQkJlJGRQSdOnKA+ffooK2h1796dAgMDldW1kpKSKCfHvkE5epby9WXq/SwG5gBY4uNTlwoLy9cO24Kfbq2NzSwNtNzry0/NPki52YvMJWN8zO0pX99HX7z3Q+kCSVpT5tcv16lgrX/8YyPVrHknvffee8qgQ4CqAOEYdMHHx18EReuWQNW73FyuOa4vj0p6xQcOHEjLli2j06dP09atW6lly5a0efNmCg4OVhYI4eVnt2zZUmYuVCM6ePwq7T96VdxMZFGtDt8pA+8mzDtLaXurxmcL4Aje3vUoL6/yvxPcg3x26xF6f+oZZQAxT+vG5WPqDf6Tw/9COw540vjwfCX8mgvGPADvk/jT8sh24eEh5OdXjw4ePEitWrWi0NBQZa7j9PR0+RUAxnPb/wT5GsBt9u3bR6NGDaLvvouULe7HPcVq7zH30PCFyBqPPRZHS5cmUZs2bWRLxfhn57lBefvqq6+offv29MwzzyhLT/NrI3ljaS7NXJ4nj8pqHeRB00f4UZe2lV8JUc+4zpznsj137oy4UTqrPB3IyckVWwH5+3uJzU9s/mJroGz8Gbdr107+aajq+AlSeHhfqlnzF4qI4CnQnpXvuB6XYvDAY3WMBQdlfnrGq+5Z25Oclnac5s//Tux3Ksd8HuNltXm7fv26MpUdb127dlXer264Y2DDjst0IutnpeOAz4P7Vto3TSi4DsIx6Iafnxft2jWeGjfWx0wP9oTjU6cu0FNPLRChyL7R27/++mtpSOY9LyLAIZk3DsxBQfqu163f7ai4uJqfTo95etxBceP9aWSvqjWbBy/ykJq6gTZtSiVPz7uoc+cmIvh6iO0+sdVW9rw4DJcO5eT8JLbLcn+Vtm07ScXFv1KPHmEUFtaXOnToIP9WfeHp+T758if64kBJjycPrOTymfmTbj4lgfLUJZVTU1OVYMyuX/+ZOnb0p5iYF+i++/6ktLkaj7GoaC53LtfgXulbWbVqr/j5fhb7dbLlJp62jkMyPy3jn/35559XgjLv77+/ag/KTd5+iRasLVACMeNQ3Ovp2tTvudrU0NfyrEqgDwjHoBvDhr1ELVrcTqNHPylb3MuecLxkyU7KyPgfrVjxsWypHF45UNurzOFZ7VXmff36+gkm3EPSddwP8sgyDshfvPcQhTRzzPRT7sSDLOPjZ1O9eh4i2DYV26MUHGz7qopHjpwTwfqICFAn6MKFKxQZGU1jxoyV77pf36hMizOQoCesLA7DHATVQMx1uH/961+VFeR69OihlFFFRU0S4TBL7LvIP+V6jgrHc+akiZ+5odi/K1vMy8vLU0Ky2qvMT0zUsPzII4/Ir6oauJSMgzFrEng3vTnCV1w/MEOPkSAcg26sX7+ekpLeoS1bhskW43nhheU0aNAk6tevn2xxLO5JVnuVec/1zGpY5s3TUx8lCzyd276jV5ReE+5tNO1NHta9Li1/s/zUekbBF/eYmKlUt+5dNGNGRwoJeUC+U3kHD/4o/u4dIiT/StOnxyoBwp2Gv3WG7vW4nSYO9FZ6vOLX5CulM8VXf5dfwTePgdX64s9heNOmTUoY5nD8wAMPKE8AOAzza9OV4xITE2nnzlX04YdDZIs+2FNW8dJLq8TPOpRGjHhFttzab7/9VhqSOTDXrVu3NCgbvcRIeyPJwfjzhQ+hp9iAEI5BN4qKisRJsg5dvDhPhLx7ZKtxFBf/THXqTKLCwotUq5bjVqyqCA+CUcMyb61bty7tVdbT43l+JB+5IKc0UBm1t/HkyZMisEbR0aNHRCjuSv37Py7fcbx16zLEfyONgoKCRViOoyZNmsh3XIefBqTtKypXOmFaW17dwrG2VIJDMQdg7h0OCwtTeoZvtYxydnY2tWjxqLgBmitb9MGecFyvXiRlZByhBg0ayBbbcZ2+2qtcWFhYWnrB+zvvtG1REnfi89yrsdnKa35CdiS5KYKxQSEcuxH3rr2VmEfb9xeX9qw9F+pJf3/Ru8oPWrLk1VcjxMn2v/T2251ki3G88UaauNjdS++/v1q2uNaNGzfKlGDwnMraXmW+aLsTB63+0ZlKQDZiON6xYwcNGNBXXLzdGWis751zpuoWAiyVSqhh2J7frRYtgmj+/K7Uvn1j2eJ+tobj3btP0cSJWyk9/ZhsqTx+Oqb2KvPAVjUk856flOkVX8+DB5wo7QCIGxdAUwZ7K6/BeBCO3UQbFMypro8pT506RUFBzSg7m+s4/yxb9Y/rRBs0iKajR49T48b6uNhxD4y2BIOnidOGZe7tcjV+RL9ic6GySMiGuRUvWqAnSUmradiw4bRu3avUq1ewbHW9pKSaNGjQUHnkPjxFH5fM8KC8xGkNq9zNvGkYtqZUwlZTp06hO+74gd5+u5tsMZ5p0z6lP/5oTLGx78gWx7p06VJp6QXv+SZEDcp6G5ysrTNmP24JQq+xgSEcuwHPBTs+4SyND/dSAjAfT3svt3QUOKtOg1z4wsOPJlevXq30xGRmnqR77imguXONM/VPVNRndO2aFy1alChb9IdvPLQlGFznp5Zg8L6yF3vWtO9xyim4QeMGeNHbo/xk603qBcRIN39xcbG0ePFCSk4eQm3bPihb3aNBgzdo7NixNGXKNNniOtwzxiUWq7ZcLB2Bz7XjPNioKoQANQwfPnzYrlIJW/EMJ1OmjKSDB/8uW4wnJGQexcf/n8tKuNLS0kp7le+6667SXmU+h7mbdqYevmkM8L6z9PcEM7sYD8KxG3DBfsKEgHIXFF40weg1mdbii5C2V4YvPnwR4l6Z4uJiZRU57j3mKbD0jqfk4l7jrKysStXduRpP0q/2KvOeFyZRe5Xtudjw1EW8+IfKXO8w/9svuvI7bV/ykGzRt1mzZtLmzR+KYDxY/Ju8ufKYu2RmFtKAAavE78pgev111wZktbfYlFEHHTmjVMJW3t51ROB7jR5/3Hih6dChs9S583tUUOCepaP5/KX2KmdmZpb2KPPm4eHamXC4gyt0yM0yFD738TU+/9IN6j0lszQ0G+2JWXWGcKwj3Ot2MusX5TX3Klelu0z1QqQOYOFeGL4QDRkyxOwjysmT/y5Ouum0Zs1LskW/Bg9eQ/XqtaR58+bLFuP5448/ypRgcO+Ztlf5iSeekF9pmWnNHeMaen7szpZtKqQDx64qx0YIUvxvddSol2n//knipkc/vdzZ2ZeodesEWrp0uRLkXIlrjbU9xyoj3MybhmE+1pZKuCIMm5o7dyYdPbqDPvxwoGwxjpde+pCCgp6lqKjpssV9zpw5U9qjzGFZDcq858/Y2Uw7BqYN9y19csazu0QuPKe8ZqhFNgaEY53Q/nIZfZorFffEqNMb8WtbL0RPP92GunZtRJGR+lwUgcXFfU2ff/6jCJX7ZEvVwLV+2hIMDhLasNyokfneD+5B4YsBDzJVQzI/UuTwxI8VjVJKwct8t27dilavHiwusE1lq35s3XpM3FgmieCeTg8+6PpSD9PZR9iB1X/R3dzV2jDMr9VSCUs35a7GU5oFBPiIUDeSWrQwzjk/I+OMCJ8f0Llz56lGjRqyVR94bIU2KPO5Sg3L/HTMGbQDVJm2bMy0V5k7DIzy5Kw6Qzh2M3WqpJWbLyoXGg4S8RP8DTkYr6LHlByIbb0QcUAJDW1Ja9ZwQGkmW/XD3QHFlfixpbYEgz9LDslqYK5qq109/XRbcWMWqPMbs3+JGzP+XPbLFteqKBC4C5+DtGG4sucgV4iPnyW+1+300Ucvyhb9e/HFJHrssU40ZcobskW/+JylDujjRZTUHmVHLmdt2nNs+rtwW8sM+QqL5hgFwrEbmf5CaRnl0Yv2YqQOYlEvRI7omeG/99VXh9OBA5N192g7NDSe3n+fH233kK3Vx7ffflsmLPPqX2qvMu9vv/12+ZXGU1LSkyFuyvQfVtxd0qMtBXNHODa9IedjW59QuRuXNHHvcWrqy9SqletnkLHVN9/8KM55iXTuXL7hfs+dtZy1ae+waVmkNhyj59gYEI7djH+pPk67VNpzrKWHnhhz1IsRzy7hiosRD4pKTV1DyclDqVEj9w+KysriQVGrqXv3l+j11/Xfc+IK2hIMHiijLcFw1qNMZ+DFGTAY1HrqID2e67hop2uCqOnTKe35xxE35O7w7rvvUErKMtq9e4Js0a8nn3yXevceQRMnGneWDcbLWatBmffqcta8Pfzww/KrrKe9UTQdeKcNx9p6ZNAvhGOd4MFMI2aeKTOdm15Gtpr2zvAFiS9EXLfHYdgVFyN+9LhoEU+nNdSt02nt3XuawsNX0+jRr1Fk5JuyFbT434u2V5nnW9aWYOhlHmhzxo59lTw8CmjOnC6ypWK3tWwhX90aL6wQ2vwqTRyYTw19yy6nXRlRUVvp2rV6TplGUF0KVx19bzqQUg0EzhxAzP+e1HMPn4f4mM8//LSC90YMw+ZERPQX//b+S4sX6/dJ1JgxKXTlyr20atUG2VI1mFvOWu1RtnY5a+2TYO3NIl/bH3jhqPIaq+YZB8KxzmjvPt1Zm6S9IHG5BIdgd/fOqAsxJCe/Qr17u/5xaUrKIerfP5FWrEikQYMiZCvcCt9Mqb3KHJh5miVtCQZfiPTA3gVoDh73oKEzHhC/t3fLFn6sWiDC4lnlvY/T7qcFa73kO3yB/J3Wzc6iLm2LZEvlOHMBGm2PF1/Yuder33O1leN3P85X5qx29FRupjfjfGy0Ugl78AqXISGP0muvhdKIEW1kq34kJu6hJUsO0jffHDHUks724OWs1aCsXc6at4oGIGpnplAH1qsLH/Hvz7rZjart6rdG49JwfNttt8lX+ueuewbtIBdXh2O+IKmzS6gXJK4f5gEterkgqUv4Tpr0DEVHd5atzjdnzjZKSPhKBPMN1LFjR9kK9uB/Z9qw3KxZs9KwzJu7LrwjRw4jLy9euvw52WK9CfPqlwnAajhWvbHUj2Yu95VHPDfwL3Riw3F5VHlvvrmNCgp46fJVssUxtDfr5vA5Kjm2UaWDsemTqapQKmEPLklq1aoVHTwYrav6Y64zDgmZLfbfGKpMyhFsXc6ae5BXpF5Upq1UB9nz7wmPIXL3bC7IYNZzeThON0BHdUvxfbrrg9E+mnF2bZJpDw1flIYOHaoEYleVS9jj5MmTNH16FB07dkTsO1P//tY/2rbVunXpFBOzjZo3Dxb7OGrSpIl8BxyFVwpTSzD2799fpgQjJCREfpVzFRUVUd26dejixXnk6XmPbLXercIxMy3BWBubSQM6XZZHlVNc/DPVqTOJCgsvUq1atWRr5fEj4cnzzyl1xdrVv7i3eFhYHbvHRJg+meIArM4qoedzjyssW5YozmvRtH79cGrXzv2z4OzZc0qcY1fSjBmx9PLLI2Rr9WSk5azNQQazHsKxGc78YHjqtv7RmSWPKF/2oZG96sl3Sqg9x86qTdJelHhv5MeVfHKKiZkqQs1d4sTdUQQpx/W0HDz4o/i7v6CCgl+Vi8Lzz/9NvgPOxKsjanuVedCMtgTDnoEy1li/fj0lJb1DW7YMky22cXc4Zi+8sJwGDZpE/fr1ky36Ye5GnMMwn3v09GRKLz76aDVFRLws/l2OEOdm9/2/2bjxO6WUbOXKRHrxxaGyFVSff/55aVDW23LW5iCDWQ/h2AxnfjAT5p1V6vRUPK3L31/0VuqQuNf4rcQ85TGmI6dyM1cuwYPpqspglsWLF1F8/GwRkv9EYWHNxc8VTMHBAfJd6x05kiP+Hx0W/6+O0YUL1ygyMprGjBkr3wV3OHv2bGmvMu/5AqQtwfD2dszvSETES9Sy5e00evSTssU29oTjzxeecljdMVuyZBdlZPxBK1Z8LFvcxzQMq+ed6lgqYa/t27eLG53eFBfXh155xfU1yImJe2nKlE9EQP8nderkuhI2o9LTctaWIINZD+HYDGd+MKYT55tSB71UJhibXpgY987oZVUoZ+HH86mpKSLcppCnZ03q0uUR8vPzVKbk8vevrex9fWtRXl6RMgVWTs5lZZ+bW0xpaf+m4uLr4sLdUwTs3spFHPSH5ylVwzJv3JOs9irznsOzPfz8vGjXrvHUuHHZJznWsrXmuM+zl2nD3Ex55BinTl2gp56aL/49X5AtrsXnHb4J599DlEo4xqFDh0RA7kk9ezalmJhudM89zp/l4Oefr9P06Z/Rxo0nRTDeSI8//rh8B6zFT0bUHmXea4Nyw4buWwkRGcx6CMdmOPuD4YC8astFpY5PxQX7oc09aOJAb7tKKdQLE889bDqgpTo+suTRxjx4IicnW245YssVW4EIyV5i8xObvwhF9SkgoKEyx6W1U/aAfvBnrPYq82ttr3KbNtb1tu3bt49GjRokbigjZYvtLIXjtL21KG2fZ+l7PFNFRPeL5XqVHeWxx+Jo6dIkq3/2yjC9CVdLJdQwjFIJx8jPzxdhNZK2bNlKM2b8zakzWXBv8fTpn1L37t1EGI932JOZ6swdy1lbggxmPYRjM/TwwViDL0rax5Z8MeILU1UplwCwBV+EtCUYXJKhDcuWBlPGxsZScfEemjMnTLbYzjQcmxPgdYOmvZxLI3sVyhbH+8c/NpGn55M0depU2eI4pmGYj1Eq4Tp888cDkX///YoIrp3EjYjj6u//9a//iL97O9Wo8WcRwOcqnQXgHHxuUnuV1eWseevSxbq51SsDGcx6CMdm6DUcqxcnvjBxLzFfiKpDuQSAPfhpgbYEg5e65ZCsBmZ1GqZx40ZT48aXxP5p5dgeFZVV8FzHH3xSj1ZsrqMcc+/xtOHnacrg88qxIy1c+BWdOlVb7JfKlsrRhmF+jVIJ91uxYgXNnTtTBNnfqWfPILE9Si1a2P6oPj39jLiOHKaNG4/Sb7/dQVFR02jYMPsGpIJ9nLWctSXIYNZDODZDT+GYH1Wqg+lQLgFgv+PHj5f2KvOeH29ySD5wYC+NHRtE/frZPyWgNQPymvZtVmahkLhxOQ4PyOvXZ9A//3le7EvGGtiKb8A5DKs34dpSCTyR0hee9nDTpk9EuP2nCMp/iFDVhPz9a1FAQMn4ioAAHmNxH+Xl/UTnzpWMsSjZF4kwdlIE4ttFsO4jPtfe1Lp1a/m3grs4ejlrc5DBrKf7cLxmTb64kF0Wd1gl9bkeHneIX2RPCg29l3r1qkcREd/TSgcvlOHOD8b00SUuTgDOwXXpHJLnzYsX55IgWr58sHzHdtaEY9Ov4TKLs1uPyKOykrfXpvCpjWwO0Lt2/UDTpu0S+wOypWK3KpXADbgxcFDetWuXCL5nRADOFts5ys3NE/t8EZK9RVj2FVuAeN1A7BvSU089hUCsY7xaohqSec+riKq9ypUZG3OrDDZv3llaq5lNy1bp6Y5ZcwDh+BZGj/6BDhwopvBwLxo40FvcBdek48evUlrapTIfoKM+EJWrPxi1t4YvTuoobzUMo1wCwLkefjhQXISG00MPVVwzXBF7wjH7X/rN5Zm11GnfbA3HP/xQIC6iy+g///lRtpRnevOtDcM43wDoD9/Iq2HZluWsTVkTjjdvvkjDh/vSc8/VVjIXa6lZRp7FxgZSJ7kA0N69xZSYmKt0YFalcHy73OvOW2+dUYJxUJAHTZpUv/RDatas5HjcONvnsdUTvkDNnz9fmSaHtwULFihTvHBPFk/fM2PGDNT0AbhAXl4B+fh4yiPnySkouyw29xybU79bsHxlO/45zp8vO5Ub33zzTXdERIRyruFSEp5ujccq8LmGzzk43wDoF/cWz5o1S8kNX375pTK4eNGiRcr8yb169aLly5crZRmOMHt2Ixo8uKQz0hpt23oqT+8DA2+WjFUFug3HX35ZsnJUfv4N8aGXLFuqxR8e9ygbhdo7zBch9QJ1+PBhevfdd8tdoADAtWrUuEO+cg4elLd9f9kAPvSF8rNW9I1qRK2Drsgj+2nPNdqb75UrV9Lly5dp48aNylLxCMMAxvLII4/QxIkTaceOHUog7tmzp/Ka27lcZs6cOcpAP3twxyOHXXts2NBMvqoadBuOr179XdkXFFynceN+oO3bLynHWlxqwTXIeqXtsQkMDKSYmBilnS9QWVlZyp7riXGBAnAfX18vcZGxf6U6c8H3wDEPOpNX0vMSv8aHek95kIqv3jxXcdnF26Ny5VEJ/jp/rxvU+1n7l5Q+f76Y7r77rjLnGtx8A1RNPKPFoEGDaO3atcrS+9HR0cosPVwixb3LkydPVn73wXa6rTk2rXFhXGLBvcVqrQvjuuQlSx6SR45RmXoXfuyhzi6hDm7h+mEOwbgwAehP+/atac6cDtSu3YOyxXqmS0JbwtO3NW30C4U2v0oDu1yikGY3FwBiPABvwVpv2rfy+9LBeMzZA/IAoGoyXc6a65N5kTBbJ0VgFdUcOwMG5FUgKiqztLTClLmQ7Ei2fDAcgE0HuPDjSswDCmAMvDxvv37e1KfPE7LF9Thkq4PzKhOOKzuVGwBUPZxLOCSPHj2aRsbE0Ig335TvWAfh2MlsCcdcZzxgwInS8gpzunevSyNG+FpdOG6tW30wav0wh2Hea0d7o3cYwFh4EZCHHrpEY8favwhIZZibxULL3MwXljh6ERAAqDpsnTFMVR3DsW5rjjnwJic3VXqJLdm8uVCpR3YF7h02HeDCgRj1fADG5uPjTzk5xfLI2HJzi8XPU18eAQCAPXQbjhkHZJ4ihKdt8/Iy3zuclfULLV1admCLI5jOLsGD6oqKisoMcMFobwDj45lj0tL+LY9cj3uFuaRC3dbGZsp3SsoqrO01Zmlp/1F+HgAAsJ+uw7GKp23bujVICcnmepK/+sr+0d2WrFq1qtyIb552DXXEAFVLmzZtqKCgmE6dKjs/sNHw988/B/88AABgP12GY562zVxvMIdk7knm1Vu0U7hx77EW/3mukTHdeClqa02YMAHlEgDVRJcunWjbNvf1HjvCtm0nxM/RUR4BALgPr2ZsLofxKnxGoNue44p6g0eN8lMCssq05OLLL3+Sr27ir+FwDQBgqkuX7kpJgh4M6HS5tMTClpkq0tJOiZ+jhzwCAHCftLTya1MwXmjECHQbjrk3OCXF8mNObdA1LbXgKeB4jW/txmUZAADmdO7cWZzM06m4+GfZYiz8faelZSg/BwCAu3En5erVfymXxYxC1zXHCxbkmF0Zj6ntXF6hDcpq6YTRuvABwH1q1apFw4cPovj43bLFWOLjd4rv/0Xl5wAAcCfOZ7y68ZAh3ys5jNetMBpdh2Oe43jq1Czlf+zevTenWuIe5VmzspVgPHt2I2rW7GbP8ddfly3HWLu2QPlwuP4FAMCSyZNfp4SELXThwhXZYgz8/SYkfCa+/zdkCwCAY5jroOReYV6LwhLT0lZ+ms85zFJnpx7pchEQ/h+YmnqRpk1rqJRX7NhxmfbvL1buRFhg4N0UFPTncguAcADmOxVLrO3S18ME1ADgeuPGjaR77imguXO7yhb9i4r6jK5d86JFixJlCwBAebYsAsI5jDsnK8IlrTxJgikOwpZwqYW2Q9McrJDnZFxSwT3HKp4KzppBeQjHANVTdna2uPkOFPvZ5O+v/ykbc3J+ogYNoikrK0vsG8hWAIDyXJ3BGJe6Llx4Th4RhYd73XJQHlbIczL+ALi32NICIgAAWhwwJ04cT9HRn8oWfYuO3kwTJoxFMAYAXeIOSc5hFa12rEdVOhyrJkzwV/Y+PncqewAASxIS3qGzZ29QXNxO2aJPcXFfi+/zd5o3b75sAQDQp8mTS3qL69UzRmely8sqnK5FOtH1AqKj3WSD4NGMqFF82bZbQFkFQPV1+vRpCg1tSWvWDKZu3cT5Q2e2bj1GQ4Yk0f796fTggw/KVgAAy1ySwVjQVqKaXkQZLWWDxPnMtM2CalVWwT+sM7cDx+Qoc/5QxIegtvcZvZkOrH2qzNfeagOA6osD5/Llq2j48I8oO1tfI6z5++Hva9mylQjGAGA1c1nHGZuSwZjIYZzLuG18QjatjQ0s97WWNnerUmUVIc08KG5cgDwSd0ktM5SN23kDALBWWFgYjRkzgfr0WUGZmYWy1b2ysgqpb9+VyvcVFobV8ABAfzgEq0KHfK/kMDag0/3K3ghcWlYBAGA08fGzaNGihZScPJTatnVfT+3evacpPHw1jR79GkVGvilbAQDA0RCOAQBuISlpNQ0bNlwE5Feod+/HZKvrpKQcov79E2nFikQaNChCtgIAgDMgHAMAWGHHjh00YEBfmjTpGYqO7ixbnW/OnG2UkPCVCOYbqGPHjrIVAACcpVpM5QYAUFkcTHfv3kuHDt2gpk1jad06y6tAOcK6denivzOLvv32uvLfRTAGAHAN9BwDANjos88+o5iYqVS37l00Y0ZHCgl5QL5TeQcP/ij+7i+ooOBX8XfH0vPP/02+AwAAroBwDABgp8WLF1F8/GwRkv9EYWHNqUePYAoOvjljjrWOHMmh1NTDtGnTMbpw4RpFRkbTmDFj5bsAAOBKCMcAAJW0c+dOEW5TRLhNIU/PmtSlyyPk5+dJ/v73ia22svf1rUV5eUWUk/OT2C4r+9zcYkpL+zcVF18XwbqnCNi9qUOHDvJvBQAAd0A4BgBwoD179tDu3btF+M2WW47YcsVWIEKyl9j8xOYvwnN9CghoSO3bt6d27drJPw0AAO6GcAwAAAAAIGG2CgAAAAAACeEYAAAAAEBCOAYAAAAAkBCOAQAAAAAkhGMAAAAAAAnhGAAAAABAQjgGAAAAAJAQjgEAAAAAJIRjAAAAAAAJ4RgAAAAAQEI4BgAAAACQEI4BAAAAACSEYwAAAAAACeEYAAAAAEBCOAYAAAAAkBCOAQAAAAAkhGMAAAAAAAnhGAAAAABAQjgGAAAAAJAQjgEAAAAAJIRjAAAAAAAJ4RgAAAAAQEI4BgAAAACQEI4BAAAAACSEYwAAAAAABdH/AzCc1UBmDzYdAAAAAElFTkSuQmCC;rounded=1;" vertex="1" parent="1">
          <mxGeometry x="499.9954711914063" y="2136.999118652344" width="711" height="417" as="geometry" />
        </mxCell>
        <mxCell id="JfSDcFE3YVz7al9o-e-t-39" value="&lt;font face=&quot;Comic Sans MS&quot; style=&quot;font-size: 18px;&quot;&gt;dp[S1] = 0&lt;br&gt;next[S1] = F&lt;/font&gt;" style="connectable=0;recursiveResize=0;strokeColor=inherit;fillColor=inherit;fontStyle=0;align=center;whiteSpace=wrap;html=1;rounded=1;" vertex="1" parent="1">
          <mxGeometry x="538" y="1747" width="129" height="58" as="geometry">
            <mxRectangle width="129" height="58" as="alternateBounds" />
          </mxGeometry>
        </mxCell>
        <mxCell id="JfSDcFE3YVz7al9o-e-t-40" value="&lt;font style=&quot;font-size: 18px;&quot;&gt;dp[S2] = 0&lt;br style=&quot;border-color: var(--border-color); font-family: &amp;quot;Comic Sans MS&amp;quot;;&quot;&gt;&lt;span style=&quot;font-family: &amp;quot;Comic Sans MS&amp;quot;;&quot;&gt;next[S2] = F&lt;/span&gt;&lt;/font&gt;" style="connectable=0;recursiveResize=0;strokeColor=inherit;fillColor=inherit;fontStyle=0;align=center;whiteSpace=wrap;html=1;rounded=1;" vertex="1" parent="1">
          <mxGeometry x="667" y="1747" width="129" height="58" as="geometry">
            <mxRectangle width="129" height="58" as="alternateBounds" />
          </mxGeometry>
        </mxCell>
        <mxCell id="JfSDcFE3YVz7al9o-e-t-41" value="&lt;font style=&quot;font-size: 18px;&quot;&gt;dp[S3] = 0&lt;br style=&quot;border-color: var(--border-color); font-family: &amp;quot;Comic Sans MS&amp;quot;;&quot;&gt;&lt;span style=&quot;border-color: var(--border-color); font-family: &amp;quot;Comic Sans MS&amp;quot;;&quot;&gt;next[S3] = F&lt;/span&gt;&lt;/font&gt;" style="connectable=0;recursiveResize=0;strokeColor=inherit;fillColor=inherit;fontStyle=0;align=center;whiteSpace=wrap;html=1;rounded=1;" vertex="1" parent="1">
          <mxGeometry x="796" y="1747" width="129" height="58" as="geometry">
            <mxRectangle width="129" height="58" as="alternateBounds" />
          </mxGeometry>
        </mxCell>
        <mxCell id="JfSDcFE3YVz7al9o-e-t-42" value="&lt;font style=&quot;font-size: 18px;&quot;&gt;dp[S4] = 0&lt;br style=&quot;border-color: var(--border-color); font-family: &amp;quot;Comic Sans MS&amp;quot;;&quot;&gt;&lt;span style=&quot;border-color: var(--border-color); font-family: &amp;quot;Comic Sans MS&amp;quot;;&quot;&gt;next[S4] = F&lt;/span&gt;&lt;/font&gt;" style="connectable=0;recursiveResize=0;strokeColor=inherit;fillColor=inherit;fontStyle=0;align=center;whiteSpace=wrap;html=1;rounded=1;" vertex="1" parent="1">
          <mxGeometry x="925" y="1747" width="129" height="58" as="geometry">
            <mxRectangle width="129" height="58" as="alternateBounds" />
          </mxGeometry>
        </mxCell>
        <mxCell id="JfSDcFE3YVz7al9o-e-t-43" value="&lt;font style=&quot;font-size: 18px;&quot;&gt;dp[S5] = 0&lt;br style=&quot;border-color: var(--border-color); font-family: &amp;quot;Comic Sans MS&amp;quot;;&quot;&gt;&lt;span style=&quot;border-color: var(--border-color); font-family: &amp;quot;Comic Sans MS&amp;quot;;&quot;&gt;next[S5] = F&lt;/span&gt;&lt;/font&gt;" style="connectable=0;recursiveResize=0;strokeColor=inherit;fillColor=inherit;fontStyle=0;align=center;whiteSpace=wrap;html=1;rounded=1;" vertex="1" parent="1">
          <mxGeometry x="1054" y="1747" width="129" height="58" as="geometry">
            <mxRectangle width="129" height="58" as="alternateBounds" />
          </mxGeometry>
        </mxCell>
        <mxCell id="JfSDcFE3YVz7al9o-e-t-69" value="&lt;font face=&quot;Comic Sans MS&quot; style=&quot;font-size: 20px;&quot;&gt;固定起点，终点后移，因为我们的图和边的权重并没有改变，&lt;br&gt;所以解法与ppt中固定终点起点后移的方法一样，&lt;br&gt;相当于把终点和起点调换最短路径的求法和&lt;font color=&quot;#3333ff&quot;&gt;具体的最短路径相同&lt;/font&gt;&lt;br&gt;&lt;/font&gt;" style="text;html=1;align=center;verticalAlign=middle;resizable=0;points=[];autosize=1;strokeColor=none;fillColor=none;rounded=1;" vertex="1" parent="1">
          <mxGeometry x="489" y="1292" width="578" height="84" as="geometry" />
        </mxCell>
        <mxCell id="JfSDcFE3YVz7al9o-e-t-70" value="&lt;div style=&quot;&quot;&gt;&lt;span style=&quot;background-color: initial;&quot;&gt;&lt;font color=&quot;#ff0000&quot; style=&quot;font-size: 26px;&quot;&gt;方法1 &lt;/font&gt;&lt;/span&gt;&lt;span style=&quot;font-size: 20px; background-color: initial;&quot;&gt;：&lt;/span&gt;&lt;/div&gt;&lt;div style=&quot;&quot;&gt;&lt;span style=&quot;font-size: 20px; background-color: initial;&quot;&gt;我们仍然需要两个数组，dp 和 next，&lt;/span&gt;&lt;/div&gt;&lt;font style=&quot;font-size: 20px;&quot;&gt;&lt;div style=&quot;&quot;&gt;&lt;span style=&quot;background-color: initial;&quot;&gt;其中， dp表示从当前节点走到终点的最短距离，&lt;/span&gt;&lt;/div&gt;next为当前点的上一个节点走的是哪一个节点，&lt;br&gt;通过比较上一层dp 和 边的权重，即可确定next值，&lt;br&gt;&lt;/font&gt;" style="text;html=1;align=left;verticalAlign=middle;resizable=0;points=[];autosize=1;strokeColor=none;fillColor=none;rounded=1;" vertex="1" parent="1">
          <mxGeometry x="496" y="1390" width="469" height="139" as="geometry" />
        </mxCell>
        <mxCell id="JfSDcFE3YVz7al9o-e-t-71" value="&lt;font face=&quot;Comic Sans MS&quot; style=&quot;font-size: 18px;&quot;&gt;dp[A1] = 4&lt;br&gt;next[A1] = S2&lt;/font&gt;" style="connectable=0;recursiveResize=0;strokeColor=inherit;fillColor=inherit;fontStyle=0;align=center;whiteSpace=wrap;html=1;rounded=1;" vertex="1" parent="1">
          <mxGeometry x="538" y="1805" width="129" height="58" as="geometry">
            <mxRectangle width="129" height="58" as="alternateBounds" />
          </mxGeometry>
        </mxCell>
        <mxCell id="JfSDcFE3YVz7al9o-e-t-72" value="&lt;font style=&quot;font-size: 18px;&quot;&gt;dp[A2] = 5&lt;br style=&quot;border-color: var(--border-color); font-family: &amp;quot;Comic Sans MS&amp;quot;;&quot;&gt;&lt;span style=&quot;font-family: &amp;quot;Comic Sans MS&amp;quot;;&quot;&gt;next[A2] = S3&lt;/span&gt;&lt;/font&gt;" style="connectable=0;recursiveResize=0;strokeColor=inherit;fillColor=inherit;fontStyle=0;align=center;whiteSpace=wrap;html=1;rounded=1;" vertex="1" parent="1">
          <mxGeometry x="667" y="1805" width="129" height="58" as="geometry">
            <mxRectangle width="129" height="58" as="alternateBounds" />
          </mxGeometry>
        </mxCell>
        <mxCell id="JfSDcFE3YVz7al9o-e-t-73" value="&lt;font style=&quot;font-size: 18px;&quot;&gt;dp[A3] = 4&lt;br style=&quot;border-color: var(--border-color); font-family: &amp;quot;Comic Sans MS&amp;quot;;&quot;&gt;&lt;span style=&quot;border-color: var(--border-color); font-family: &amp;quot;Comic Sans MS&amp;quot;;&quot;&gt;next[A3] = S3&lt;/span&gt;&lt;/font&gt;" style="connectable=0;recursiveResize=0;strokeColor=inherit;fillColor=inherit;fontStyle=0;align=center;whiteSpace=wrap;html=1;rounded=1;" vertex="1" parent="1">
          <mxGeometry x="796" y="1805" width="129" height="58" as="geometry">
            <mxRectangle width="129" height="58" as="alternateBounds" />
          </mxGeometry>
        </mxCell>
        <mxCell id="JfSDcFE3YVz7al9o-e-t-74" value="&lt;font style=&quot;font-size: 18px;&quot;&gt;dp[A4] = 3&lt;br style=&quot;border-color: var(--border-color); font-family: &amp;quot;Comic Sans MS&amp;quot;;&quot;&gt;&lt;span style=&quot;border-color: var(--border-color); font-family: &amp;quot;Comic Sans MS&amp;quot;;&quot;&gt;next[A4] = S5&lt;/span&gt;&lt;/font&gt;" style="connectable=0;recursiveResize=0;strokeColor=inherit;fillColor=inherit;fontStyle=0;align=center;whiteSpace=wrap;html=1;rounded=1;" vertex="1" parent="1">
          <mxGeometry x="925" y="1805" width="129" height="58" as="geometry">
            <mxRectangle width="129" height="58" as="alternateBounds" />
          </mxGeometry>
        </mxCell>
        <mxCell id="JfSDcFE3YVz7al9o-e-t-75" value="" style="connectable=0;recursiveResize=0;strokeColor=inherit;fillColor=inherit;fontStyle=0;align=center;whiteSpace=wrap;html=1;rounded=1;" vertex="1" parent="1">
          <mxGeometry x="1054" y="1805" width="129" height="58" as="geometry">
            <mxRectangle width="129" height="58" as="alternateBounds" />
          </mxGeometry>
        </mxCell>
        <mxCell id="JfSDcFE3YVz7al9o-e-t-77" value="&lt;font face=&quot;Comic Sans MS&quot; style=&quot;font-size: 18px;&quot;&gt;dp[B1] = 7&lt;br&gt;next[B1] = A1&lt;/font&gt;" style="connectable=0;recursiveResize=0;strokeColor=inherit;fillColor=inherit;fontStyle=0;align=center;whiteSpace=wrap;html=1;rounded=1;" vertex="1" parent="1">
          <mxGeometry x="538" y="1863" width="129" height="58" as="geometry">
            <mxRectangle width="129" height="58" as="alternateBounds" />
          </mxGeometry>
        </mxCell>
        <mxCell id="JfSDcFE3YVz7al9o-e-t-78" value="&lt;font style=&quot;font-size: 18px;&quot;&gt;dp[B2] = 8&lt;br style=&quot;border-color: var(--border-color); font-family: &amp;quot;Comic Sans MS&amp;quot;;&quot;&gt;&lt;span style=&quot;font-family: &amp;quot;Comic Sans MS&amp;quot;;&quot;&gt;next[B2] = A1/A2&lt;/span&gt;&lt;/font&gt;" style="connectable=0;recursiveResize=0;strokeColor=inherit;fillColor=inherit;fontStyle=0;align=center;whiteSpace=wrap;html=1;rounded=1;" vertex="1" parent="1">
          <mxGeometry x="667" y="1863" width="129" height="58" as="geometry">
            <mxRectangle width="129" height="58" as="alternateBounds" />
          </mxGeometry>
        </mxCell>
        <mxCell id="JfSDcFE3YVz7al9o-e-t-79" value="&lt;font style=&quot;font-size: 18px;&quot;&gt;dp[B3] = 7&lt;br style=&quot;border-color: var(--border-color); font-family: &amp;quot;Comic Sans MS&amp;quot;;&quot;&gt;&lt;span style=&quot;border-color: var(--border-color); font-family: &amp;quot;Comic Sans MS&amp;quot;;&quot;&gt;next[B3] = A2/A3&lt;/span&gt;&lt;/font&gt;" style="connectable=0;recursiveResize=0;strokeColor=inherit;fillColor=inherit;fontStyle=0;align=center;whiteSpace=wrap;html=1;rounded=1;" vertex="1" parent="1">
          <mxGeometry x="796" y="1863" width="129" height="58" as="geometry">
            <mxRectangle width="129" height="58" as="alternateBounds" />
          </mxGeometry>
        </mxCell>
        <mxCell id="JfSDcFE3YVz7al9o-e-t-80" value="&lt;font style=&quot;font-size: 18px;&quot;&gt;dp[B4] = 5&lt;br style=&quot;border-color: var(--border-color); font-family: &amp;quot;Comic Sans MS&amp;quot;;&quot;&gt;&lt;span style=&quot;border-color: var(--border-color); font-family: &amp;quot;Comic Sans MS&amp;quot;;&quot;&gt;next[B4] = A3/A4&lt;/span&gt;&lt;/font&gt;" style="connectable=0;recursiveResize=0;strokeColor=inherit;fillColor=inherit;fontStyle=0;align=center;whiteSpace=wrap;html=1;rounded=1;" vertex="1" parent="1">
          <mxGeometry x="925" y="1863" width="129" height="58" as="geometry">
            <mxRectangle width="129" height="58" as="alternateBounds" />
          </mxGeometry>
        </mxCell>
        <mxCell id="JfSDcFE3YVz7al9o-e-t-81" value="&lt;font style=&quot;font-size: 18px;&quot;&gt;dp[B5] = 8&lt;br style=&quot;border-color: var(--border-color); font-family: &amp;quot;Comic Sans MS&amp;quot;;&quot;&gt;&lt;span style=&quot;border-color: var(--border-color); font-family: &amp;quot;Comic Sans MS&amp;quot;;&quot;&gt;next[B5] = A4&lt;/span&gt;&lt;/font&gt;" style="connectable=0;recursiveResize=0;strokeColor=inherit;fillColor=inherit;fontStyle=0;align=center;whiteSpace=wrap;html=1;rounded=1;" vertex="1" parent="1">
          <mxGeometry x="1054" y="1863" width="129" height="58" as="geometry">
            <mxRectangle width="129" height="58" as="alternateBounds" />
          </mxGeometry>
        </mxCell>
        <mxCell id="JfSDcFE3YVz7al9o-e-t-83" value="&lt;font face=&quot;Comic Sans MS&quot; style=&quot;font-size: 18px;&quot;&gt;dp[C1] = 11&lt;br&gt;next[S1] = B1&lt;/font&gt;" style="connectable=0;recursiveResize=0;strokeColor=inherit;fillColor=inherit;fontStyle=0;align=center;whiteSpace=wrap;html=1;rounded=1;" vertex="1" parent="1">
          <mxGeometry x="538" y="1921" width="129" height="58" as="geometry">
            <mxRectangle width="129" height="58" as="alternateBounds" />
          </mxGeometry>
        </mxCell>
        <mxCell id="JfSDcFE3YVz7al9o-e-t-84" value="&lt;font style=&quot;font-size: 18px;&quot;&gt;dp[C2] = 11&lt;br style=&quot;border-color: var(--border-color); font-family: &amp;quot;Comic Sans MS&amp;quot;;&quot;&gt;&lt;span style=&quot;font-family: &amp;quot;Comic Sans MS&amp;quot;;&quot;&gt;next[C2] = B2&lt;/span&gt;&lt;/font&gt;" style="connectable=0;recursiveResize=0;strokeColor=inherit;fillColor=inherit;fontStyle=0;align=center;whiteSpace=wrap;html=1;rounded=1;" vertex="1" parent="1">
          <mxGeometry x="667" y="1921" width="129" height="58" as="geometry">
            <mxRectangle width="129" height="58" as="alternateBounds" />
          </mxGeometry>
        </mxCell>
        <mxCell id="JfSDcFE3YVz7al9o-e-t-85" value="&lt;font style=&quot;font-size: 18px;&quot;&gt;dp[C3] = 6&lt;br style=&quot;border-color: var(--border-color); font-family: &amp;quot;Comic Sans MS&amp;quot;;&quot;&gt;&lt;span style=&quot;border-color: var(--border-color); font-family: &amp;quot;Comic Sans MS&amp;quot;;&quot;&gt;next[C3] = B3&lt;/span&gt;&lt;/font&gt;" style="connectable=0;recursiveResize=0;strokeColor=inherit;fillColor=inherit;fontStyle=0;align=center;whiteSpace=wrap;html=1;rounded=1;" vertex="1" parent="1">
          <mxGeometry x="796" y="1921" width="129" height="58" as="geometry">
            <mxRectangle width="129" height="58" as="alternateBounds" />
          </mxGeometry>
        </mxCell>
        <mxCell id="JfSDcFE3YVz7al9o-e-t-86" value="&lt;font style=&quot;font-size: 18px;&quot;&gt;dp[C4] = 9&lt;br style=&quot;border-color: var(--border-color); font-family: &amp;quot;Comic Sans MS&amp;quot;;&quot;&gt;&lt;span style=&quot;border-color: var(--border-color); font-family: &amp;quot;Comic Sans MS&amp;quot;;&quot;&gt;next[C4] = B3&lt;/span&gt;&lt;/font&gt;" style="connectable=0;recursiveResize=0;strokeColor=inherit;fillColor=inherit;fontStyle=0;align=center;whiteSpace=wrap;html=1;rounded=1;" vertex="1" parent="1">
          <mxGeometry x="925" y="1921" width="129" height="58" as="geometry">
            <mxRectangle width="129" height="58" as="alternateBounds" />
          </mxGeometry>
        </mxCell>
        <mxCell id="JfSDcFE3YVz7al9o-e-t-87" value="" style="connectable=0;recursiveResize=0;strokeColor=inherit;fillColor=inherit;fontStyle=0;align=center;whiteSpace=wrap;html=1;rounded=1;" vertex="1" parent="1">
          <mxGeometry x="1054" y="1921" width="129" height="58" as="geometry">
            <mxRectangle width="129" height="58" as="alternateBounds" />
          </mxGeometry>
        </mxCell>
        <mxCell id="JfSDcFE3YVz7al9o-e-t-89" value="&lt;font face=&quot;Comic Sans MS&quot; style=&quot;font-size: 18px;&quot;&gt;dp[T1] = 13&lt;br&gt;next[T1] = C1&lt;/font&gt;" style="connectable=0;recursiveResize=0;strokeColor=inherit;fillColor=inherit;fontStyle=0;align=center;whiteSpace=wrap;html=1;rounded=1;" vertex="1" parent="1">
          <mxGeometry x="538" y="1979" width="129" height="58" as="geometry">
            <mxRectangle width="129" height="58" as="alternateBounds" />
          </mxGeometry>
        </mxCell>
        <mxCell id="JfSDcFE3YVz7al9o-e-t-90" value="&lt;font style=&quot;font-size: 18px;&quot;&gt;dp[T2] = 15&lt;br style=&quot;border-color: var(--border-color); font-family: &amp;quot;Comic Sans MS&amp;quot;;&quot;&gt;&lt;span style=&quot;font-family: &amp;quot;Comic Sans MS&amp;quot;;&quot;&gt;next[T2] = C2&lt;/span&gt;&lt;/font&gt;" style="connectable=0;recursiveResize=0;strokeColor=inherit;fillColor=inherit;fontStyle=0;align=center;whiteSpace=wrap;html=1;rounded=1;" vertex="1" parent="1">
          <mxGeometry x="667" y="1979" width="129" height="58" as="geometry">
            <mxRectangle width="129" height="58" as="alternateBounds" />
          </mxGeometry>
        </mxCell>
        <mxCell id="JfSDcFE3YVz7al9o-e-t-91" value="&lt;font style=&quot;font-size: 18px;&quot;&gt;dp[T3] = 13&lt;br style=&quot;border-color: var(--border-color); font-family: &amp;quot;Comic Sans MS&amp;quot;;&quot;&gt;&lt;span style=&quot;border-color: var(--border-color); font-family: &amp;quot;Comic Sans MS&amp;quot;;&quot;&gt;next[T3] = C3&lt;/span&gt;&lt;/font&gt;" style="connectable=0;recursiveResize=0;strokeColor=inherit;fillColor=inherit;fontStyle=0;align=center;whiteSpace=wrap;html=1;rounded=1;" vertex="1" parent="1">
          <mxGeometry x="796" y="1979" width="129" height="58" as="geometry">
            <mxRectangle width="129" height="58" as="alternateBounds" />
          </mxGeometry>
        </mxCell>
        <mxCell id="JfSDcFE3YVz7al9o-e-t-92" value="&lt;font style=&quot;font-size: 18px;&quot;&gt;dp[T4] = 10&lt;br style=&quot;border-color: var(--border-color); font-family: &amp;quot;Comic Sans MS&amp;quot;;&quot;&gt;&lt;span style=&quot;border-color: var(--border-color); font-family: &amp;quot;Comic Sans MS&amp;quot;;&quot;&gt;next[T4] = C4&lt;/span&gt;&lt;/font&gt;" style="connectable=0;recursiveResize=0;strokeColor=inherit;fillColor=inherit;fontStyle=0;align=center;whiteSpace=wrap;html=1;rounded=1;" vertex="1" parent="1">
          <mxGeometry x="925" y="1979" width="129" height="58" as="geometry">
            <mxRectangle width="129" height="58" as="alternateBounds" />
          </mxGeometry>
        </mxCell>
        <mxCell id="JfSDcFE3YVz7al9o-e-t-93" value="&lt;font style=&quot;font-size: 18px;&quot;&gt;dp[T5] = 15&lt;br style=&quot;border-color: var(--border-color); font-family: &amp;quot;Comic Sans MS&amp;quot;;&quot;&gt;&lt;span style=&quot;border-color: var(--border-color); font-family: &amp;quot;Comic Sans MS&amp;quot;;&quot;&gt;next[T5] = C4&lt;/span&gt;&lt;/font&gt;" style="connectable=0;recursiveResize=0;strokeColor=inherit;fillColor=inherit;fontStyle=0;align=center;whiteSpace=wrap;html=1;rounded=1;" vertex="1" parent="1">
          <mxGeometry x="1054" y="1979" width="129" height="58" as="geometry">
            <mxRectangle width="129" height="58" as="alternateBounds" />
          </mxGeometry>
        </mxCell>
        <mxCell id="JfSDcFE3YVz7al9o-e-t-95" value="4" style="text;html=1;align=center;verticalAlign=middle;resizable=0;points=[];autosize=1;strokeColor=#b85450;fillColor=#f8cecc;fontSize=20;fontFamily=Helvetica;rounded=1;" vertex="1" parent="1">
          <mxGeometry x="670" y="2163" width="29" height="36" as="geometry" />
        </mxCell>
        <mxCell id="JfSDcFE3YVz7al9o-e-t-96" value="5" style="text;html=1;align=center;verticalAlign=middle;resizable=0;points=[];autosize=1;strokeColor=#b85450;fillColor=#f8cecc;fontSize=20;fontFamily=Helvetica;rounded=1;" vertex="1" parent="1">
          <mxGeometry x="670" y="2251" width="29" height="36" as="geometry" />
        </mxCell>
        <mxCell id="JfSDcFE3YVz7al9o-e-t-97" value="4" style="text;html=1;align=center;verticalAlign=middle;resizable=0;points=[];autosize=1;strokeColor=#b85450;fillColor=#f8cecc;fontSize=20;fontFamily=Helvetica;rounded=1;" vertex="1" parent="1">
          <mxGeometry x="670" y="2335" width="29" height="36" as="geometry" />
        </mxCell>
        <mxCell id="JfSDcFE3YVz7al9o-e-t-98" value="3" style="text;html=1;align=center;verticalAlign=middle;resizable=0;points=[];autosize=1;strokeColor=#b85450;fillColor=#f8cecc;fontSize=20;fontFamily=Helvetica;rounded=1;" vertex="1" parent="1">
          <mxGeometry x="667" y="2415" width="29" height="36" as="geometry" />
        </mxCell>
        <mxCell id="JfSDcFE3YVz7al9o-e-t-99" value="7" style="text;html=1;align=center;verticalAlign=middle;resizable=0;points=[];autosize=1;strokeColor=#b85450;fillColor=#f8cecc;fontSize=20;fontFamily=Helvetica;rounded=1;" vertex="1" parent="1">
          <mxGeometry x="826" y="2118" width="29" height="36" as="geometry" />
        </mxCell>
        <mxCell id="JfSDcFE3YVz7al9o-e-t-100" value="8" style="text;html=1;align=center;verticalAlign=middle;resizable=0;points=[];autosize=1;strokeColor=#b85450;fillColor=#f8cecc;fontSize=20;fontFamily=Helvetica;rounded=1;" vertex="1" parent="1">
          <mxGeometry x="823" y="2204" width="29" height="36" as="geometry" />
        </mxCell>
        <mxCell id="JfSDcFE3YVz7al9o-e-t-101" value="7" style="text;html=1;align=center;verticalAlign=middle;resizable=0;points=[];autosize=1;strokeColor=#b85450;fillColor=#f8cecc;fontSize=20;fontFamily=Helvetica;rounded=1;" vertex="1" parent="1">
          <mxGeometry x="831" y="2287" width="29" height="36" as="geometry" />
        </mxCell>
        <mxCell id="JfSDcFE3YVz7al9o-e-t-102" value="5" style="text;html=1;align=center;verticalAlign=middle;resizable=0;points=[];autosize=1;strokeColor=#b85450;fillColor=#f8cecc;fontSize=20;fontFamily=Helvetica;rounded=1;" vertex="1" parent="1">
          <mxGeometry x="831" y="2369" width="29" height="36" as="geometry" />
        </mxCell>
        <mxCell id="JfSDcFE3YVz7al9o-e-t-103" value="8" style="text;html=1;align=center;verticalAlign=middle;resizable=0;points=[];autosize=1;strokeColor=#b85450;fillColor=#f8cecc;fontSize=20;fontFamily=Helvetica;rounded=1;" vertex="1" parent="1">
          <mxGeometry x="831" y="2446" width="29" height="36" as="geometry" />
        </mxCell>
        <mxCell id="JfSDcFE3YVz7al9o-e-t-104" value="11" style="text;html=1;align=center;verticalAlign=middle;resizable=0;points=[];autosize=1;strokeColor=#b85450;fillColor=#f8cecc;fontSize=20;fontFamily=Helvetica;rounded=1;" vertex="1" parent="1">
          <mxGeometry x="974" y="2168" width="39" height="36" as="geometry" />
        </mxCell>
        <mxCell id="JfSDcFE3YVz7al9o-e-t-105" value="11" style="text;html=1;align=center;verticalAlign=middle;resizable=0;points=[];autosize=1;strokeColor=#b85450;fillColor=#f8cecc;fontSize=20;fontFamily=Helvetica;rounded=1;" vertex="1" parent="1">
          <mxGeometry x="984" y="2255" width="39" height="36" as="geometry" />
        </mxCell>
        <mxCell id="JfSDcFE3YVz7al9o-e-t-106" value="6" style="text;html=1;align=center;verticalAlign=middle;resizable=0;points=[];autosize=1;strokeColor=#b85450;fillColor=#f8cecc;fontSize=20;fontFamily=Helvetica;rounded=1;" vertex="1" parent="1">
          <mxGeometry x="989" y="2340" width="29" height="36" as="geometry" />
        </mxCell>
        <mxCell id="JfSDcFE3YVz7al9o-e-t-107" value="9" style="text;html=1;align=center;verticalAlign=middle;resizable=0;points=[];autosize=1;strokeColor=#b85450;fillColor=#f8cecc;fontSize=20;fontFamily=Helvetica;rounded=1;" vertex="1" parent="1">
          <mxGeometry x="989" y="2415" width="29" height="36" as="geometry" />
        </mxCell>
        <mxCell id="JfSDcFE3YVz7al9o-e-t-108" value="13" style="text;html=1;align=center;verticalAlign=middle;resizable=0;points=[];autosize=1;strokeColor=#b85450;fillColor=#f8cecc;fontSize=20;fontFamily=Helvetica;rounded=1;" vertex="1" parent="1">
          <mxGeometry x="1141" y="2142" width="40" height="36" as="geometry" />
        </mxCell>
        <mxCell id="JfSDcFE3YVz7al9o-e-t-109" value="15" style="text;html=1;align=center;verticalAlign=middle;resizable=0;points=[];autosize=1;strokeColor=#b85450;fillColor=#f8cecc;fontSize=20;fontFamily=Helvetica;rounded=1;" vertex="1" parent="1">
          <mxGeometry x="1138" y="2223" width="40" height="36" as="geometry" />
        </mxCell>
        <mxCell id="JfSDcFE3YVz7al9o-e-t-110" value="13" style="text;html=1;align=center;verticalAlign=middle;resizable=0;points=[];autosize=1;strokeColor=#b85450;fillColor=#f8cecc;fontSize=20;fontFamily=Helvetica;rounded=1;" vertex="1" parent="1">
          <mxGeometry x="1138" y="2299" width="40" height="36" as="geometry" />
        </mxCell>
        <mxCell id="JfSDcFE3YVz7al9o-e-t-111" value="10" style="text;html=1;align=center;verticalAlign=middle;resizable=0;points=[];autosize=1;strokeColor=#b85450;fillColor=#f8cecc;fontSize=20;fontFamily=Helvetica;rounded=1;" vertex="1" parent="1">
          <mxGeometry x="1138" y="2376" width="40" height="36" as="geometry" />
        </mxCell>
        <mxCell id="JfSDcFE3YVz7al9o-e-t-112" value="15" style="text;html=1;align=center;verticalAlign=middle;resizable=0;points=[];autosize=1;strokeColor=#b85450;fillColor=#f8cecc;fontSize=20;fontFamily=Helvetica;rounded=1;" vertex="1" parent="1">
          <mxGeometry x="1138" y="2456" width="40" height="36" as="geometry" />
        </mxCell>
        <mxCell id="JfSDcFE3YVz7al9o-e-t-114" value="&lt;div style=&quot;&quot;&gt;&lt;span style=&quot;background-color: initial;&quot;&gt;&lt;font color=&quot;#ff0000&quot; style=&quot;font-size: 23px;&quot;&gt;方法2 &lt;/font&gt;&lt;/span&gt;&lt;span style=&quot;font-size: 20px; background-color: initial;&quot;&gt;：&lt;/span&gt;&lt;/div&gt;&lt;div style=&quot;&quot;&gt;&lt;/div&gt;&lt;font style=&quot;font-size: 20px;&quot;&gt;我们只需要dp一个数组，&lt;font color=&quot;#3333ff&quot;&gt;但是需要记录双向边&lt;/font&gt;，在寻找最短路径时，&lt;br&gt;只需要把当前最短路径dp 减去上一层点的边的权重，如果等于上一层&lt;br&gt;点的dp值，则在最短路径中。&lt;br&gt;&lt;/font&gt;" style="text;html=1;align=left;verticalAlign=middle;resizable=0;points=[];autosize=1;strokeColor=none;fillColor=none;rounded=1;" vertex="1" parent="1">
          <mxGeometry x="496" y="1564" width="626" height="112" as="geometry" />
        </mxCell>
        <mxCell id="JfSDcFE3YVz7al9o-e-t-116" value="可以看出最短路径依旧是T4为终点，路径为两条，" style="text;html=1;align=center;verticalAlign=middle;resizable=0;points=[];autosize=1;strokeColor=none;fillColor=none;fontSize=20;fontFamily=Helvetica;fontColor=default;rounded=1;" vertex="1" parent="1">
          <mxGeometry x="501" y="2077" width="461" height="36" as="geometry" />
        </mxCell>
        <mxCell id="JfSDcFE3YVz7al9o-e-t-117" value="&lt;font style=&quot;font-size: 20px;&quot;&gt;计科21-02 韩子昂 542107090106&lt;/font&gt;" style="text;html=1;align=center;verticalAlign=middle;resizable=0;points=[];autosize=1;strokeColor=none;fillColor=none;fontSize=12;fontFamily=Helvetica;fontColor=default;rounded=1;" vertex="1" parent="1">
          <mxGeometry x="500" y="1221" width="314" height="36" as="geometry" />
        </mxCell>
        <mxCell id="JfSDcFE3YVz7al9o-e-t-118" value="" style="shape=waypoint;size=6;pointerEvents=1;points=[];fillColor=none;resizable=0;rotatable=0;perimeter=centerPerimeter;snapToPoint=1;strokeColor=inherit;align=center;verticalAlign=middle;fontFamily=Helvetica;fontSize=20;fontColor=default;html=1;strokeWidth=7;rounded=1;" vertex="1" parent="1">
          <mxGeometry x="184" y="3015" width="20" height="20" as="geometry" />
        </mxCell>
        <mxCell id="JfSDcFE3YVz7al9o-e-t-119" value="" style="shape=waypoint;size=6;pointerEvents=1;points=[];fillColor=none;resizable=0;rotatable=0;perimeter=centerPerimeter;snapToPoint=1;strokeColor=inherit;align=center;verticalAlign=middle;fontFamily=Helvetica;fontSize=20;fontColor=default;html=1;strokeWidth=7;rounded=1;" vertex="1" parent="1">
          <mxGeometry x="184" y="3079" width="20" height="20" as="geometry" />
        </mxCell>
        <mxCell id="JfSDcFE3YVz7al9o-e-t-120" value="" style="shape=waypoint;size=6;pointerEvents=1;points=[];fillColor=none;resizable=0;rotatable=0;perimeter=centerPerimeter;snapToPoint=1;strokeColor=inherit;align=center;verticalAlign=middle;fontFamily=Helvetica;fontSize=20;fontColor=default;html=1;strokeWidth=7;rounded=1;" vertex="1" parent="1">
          <mxGeometry x="184" y="3141" width="20" height="20" as="geometry" />
        </mxCell>
        <mxCell id="JfSDcFE3YVz7al9o-e-t-121" value="" style="shape=waypoint;size=6;pointerEvents=1;points=[];fillColor=none;resizable=0;rotatable=0;perimeter=centerPerimeter;snapToPoint=1;strokeColor=inherit;align=center;verticalAlign=middle;fontFamily=Helvetica;fontSize=20;fontColor=default;html=1;strokeWidth=7;rounded=1;" vertex="1" parent="1">
          <mxGeometry x="184" y="3213" width="20" height="20" as="geometry" />
        </mxCell>
        <mxCell id="JfSDcFE3YVz7al9o-e-t-122" value="" style="shape=waypoint;size=6;pointerEvents=1;points=[];fillColor=none;resizable=0;rotatable=0;perimeter=centerPerimeter;snapToPoint=1;strokeColor=inherit;align=center;verticalAlign=middle;fontFamily=Helvetica;fontSize=20;fontColor=default;html=1;strokeWidth=7;rounded=1;" vertex="1" parent="1">
          <mxGeometry x="184" y="3277" width="20" height="20" as="geometry" />
        </mxCell>
        <mxCell id="JfSDcFE3YVz7al9o-e-t-123" value="" style="shape=waypoint;size=6;pointerEvents=1;points=[];fillColor=none;resizable=0;rotatable=0;perimeter=centerPerimeter;snapToPoint=1;strokeColor=inherit;align=center;verticalAlign=middle;fontFamily=Helvetica;fontSize=20;fontColor=default;html=1;strokeWidth=7;rounded=1;" vertex="1" parent="1">
          <mxGeometry x="184" y="3348" width="20" height="20" as="geometry" />
        </mxCell>
        <mxCell id="JfSDcFE3YVz7al9o-e-t-124" value="" style="shape=waypoint;size=6;pointerEvents=1;points=[];fillColor=none;resizable=0;rotatable=0;perimeter=centerPerimeter;snapToPoint=1;strokeColor=inherit;align=center;verticalAlign=middle;fontFamily=Helvetica;fontSize=20;fontColor=default;html=1;strokeWidth=7;rounded=1;" vertex="1" parent="1">
          <mxGeometry x="184" y="3428" width="20" height="20" as="geometry" />
        </mxCell>
        <mxCell id="JfSDcFE3YVz7al9o-e-t-125" value="" style="shape=waypoint;size=6;pointerEvents=1;points=[];fillColor=none;resizable=0;rotatable=0;perimeter=centerPerimeter;snapToPoint=1;strokeColor=inherit;align=center;verticalAlign=middle;fontFamily=Helvetica;fontSize=20;fontColor=default;html=1;strokeWidth=7;rounded=1;" vertex="1" parent="1">
          <mxGeometry x="255" y="3015" width="20" height="20" as="geometry" />
        </mxCell>
        <mxCell id="JfSDcFE3YVz7al9o-e-t-126" value="" style="shape=waypoint;size=6;pointerEvents=1;points=[];fillColor=none;resizable=0;rotatable=0;perimeter=centerPerimeter;snapToPoint=1;strokeColor=inherit;align=center;verticalAlign=middle;fontFamily=Helvetica;fontSize=20;fontColor=default;html=1;strokeWidth=7;rounded=1;" vertex="1" parent="1">
          <mxGeometry x="255" y="3079" width="20" height="20" as="geometry" />
        </mxCell>
        <mxCell id="JfSDcFE3YVz7al9o-e-t-127" value="" style="shape=waypoint;size=6;pointerEvents=1;points=[];fillColor=none;resizable=0;rotatable=0;perimeter=centerPerimeter;snapToPoint=1;strokeColor=inherit;align=center;verticalAlign=middle;fontFamily=Helvetica;fontSize=20;fontColor=default;html=1;strokeWidth=7;rounded=1;" vertex="1" parent="1">
          <mxGeometry x="255" y="3141" width="20" height="20" as="geometry" />
        </mxCell>
        <mxCell id="JfSDcFE3YVz7al9o-e-t-128" value="" style="shape=waypoint;size=6;pointerEvents=1;points=[];fillColor=none;resizable=0;rotatable=0;perimeter=centerPerimeter;snapToPoint=1;strokeColor=inherit;align=center;verticalAlign=middle;fontFamily=Helvetica;fontSize=20;fontColor=default;html=1;strokeWidth=7;rounded=1;" vertex="1" parent="1">
          <mxGeometry x="255" y="3213" width="20" height="20" as="geometry" />
        </mxCell>
        <mxCell id="JfSDcFE3YVz7al9o-e-t-129" value="" style="shape=waypoint;size=6;pointerEvents=1;points=[];fillColor=none;resizable=0;rotatable=0;perimeter=centerPerimeter;snapToPoint=1;strokeColor=inherit;align=center;verticalAlign=middle;fontFamily=Helvetica;fontSize=20;fontColor=default;html=1;strokeWidth=7;rounded=1;" vertex="1" parent="1">
          <mxGeometry x="255" y="3277" width="20" height="20" as="geometry" />
        </mxCell>
        <mxCell id="JfSDcFE3YVz7al9o-e-t-130" value="" style="shape=waypoint;size=6;pointerEvents=1;points=[];fillColor=none;resizable=0;rotatable=0;perimeter=centerPerimeter;snapToPoint=1;strokeColor=inherit;align=center;verticalAlign=middle;fontFamily=Helvetica;fontSize=20;fontColor=default;html=1;strokeWidth=7;rounded=1;" vertex="1" parent="1">
          <mxGeometry x="255" y="3348" width="20" height="20" as="geometry" />
        </mxCell>
        <mxCell id="JfSDcFE3YVz7al9o-e-t-131" value="" style="shape=waypoint;size=6;pointerEvents=1;points=[];fillColor=none;resizable=0;rotatable=0;perimeter=centerPerimeter;snapToPoint=1;strokeColor=inherit;align=center;verticalAlign=middle;fontFamily=Helvetica;fontSize=20;fontColor=default;html=1;strokeWidth=7;rounded=1;" vertex="1" parent="1">
          <mxGeometry x="255" y="3428" width="20" height="20" as="geometry" />
        </mxCell>
        <mxCell id="JfSDcFE3YVz7al9o-e-t-132" value="" style="shape=waypoint;size=6;pointerEvents=1;points=[];fillColor=none;resizable=0;rotatable=0;perimeter=centerPerimeter;snapToPoint=1;strokeColor=inherit;align=center;verticalAlign=middle;fontFamily=Helvetica;fontSize=20;fontColor=default;html=1;strokeWidth=7;rounded=1;" vertex="1" parent="1">
          <mxGeometry x="333" y="3012" width="20" height="20" as="geometry" />
        </mxCell>
        <mxCell id="JfSDcFE3YVz7al9o-e-t-133" value="" style="shape=waypoint;size=6;pointerEvents=1;points=[];fillColor=none;resizable=0;rotatable=0;perimeter=centerPerimeter;snapToPoint=1;strokeColor=inherit;align=center;verticalAlign=middle;fontFamily=Helvetica;fontSize=20;fontColor=default;html=1;strokeWidth=7;rounded=1;" vertex="1" parent="1">
          <mxGeometry x="333" y="3079" width="20" height="20" as="geometry" />
        </mxCell>
        <mxCell id="JfSDcFE3YVz7al9o-e-t-134" value="" style="shape=waypoint;size=6;pointerEvents=1;points=[];fillColor=none;resizable=0;rotatable=0;perimeter=centerPerimeter;snapToPoint=1;strokeColor=inherit;align=center;verticalAlign=middle;fontFamily=Helvetica;fontSize=20;fontColor=default;html=1;strokeWidth=7;rounded=1;" vertex="1" parent="1">
          <mxGeometry x="333" y="3141" width="20" height="20" as="geometry" />
        </mxCell>
        <mxCell id="JfSDcFE3YVz7al9o-e-t-135" value="" style="shape=waypoint;size=6;pointerEvents=1;points=[];fillColor=none;resizable=0;rotatable=0;perimeter=centerPerimeter;snapToPoint=1;strokeColor=inherit;align=center;verticalAlign=middle;fontFamily=Helvetica;fontSize=20;fontColor=default;html=1;strokeWidth=7;rounded=1;" vertex="1" parent="1">
          <mxGeometry x="333" y="3213" width="20" height="20" as="geometry" />
        </mxCell>
        <mxCell id="JfSDcFE3YVz7al9o-e-t-136" value="" style="shape=waypoint;size=6;pointerEvents=1;points=[];fillColor=none;resizable=0;rotatable=0;perimeter=centerPerimeter;snapToPoint=1;strokeColor=inherit;align=center;verticalAlign=middle;fontFamily=Helvetica;fontSize=20;fontColor=default;html=1;strokeWidth=7;rounded=1;" vertex="1" parent="1">
          <mxGeometry x="333" y="3277" width="20" height="20" as="geometry" />
        </mxCell>
        <mxCell id="JfSDcFE3YVz7al9o-e-t-137" value="" style="shape=waypoint;size=6;pointerEvents=1;points=[];fillColor=none;resizable=0;rotatable=0;perimeter=centerPerimeter;snapToPoint=1;strokeColor=inherit;align=center;verticalAlign=middle;fontFamily=Helvetica;fontSize=20;fontColor=default;html=1;strokeWidth=7;rounded=1;" vertex="1" parent="1">
          <mxGeometry x="333" y="3348" width="20" height="20" as="geometry" />
        </mxCell>
        <mxCell id="JfSDcFE3YVz7al9o-e-t-138" value="" style="shape=waypoint;size=6;pointerEvents=1;points=[];fillColor=none;resizable=0;rotatable=0;perimeter=centerPerimeter;snapToPoint=1;strokeColor=inherit;align=center;verticalAlign=middle;fontFamily=Helvetica;fontSize=20;fontColor=default;html=1;strokeWidth=7;rounded=1;" vertex="1" parent="1">
          <mxGeometry x="333" y="3428" width="20" height="20" as="geometry" />
        </mxCell>
        <mxCell id="JfSDcFE3YVz7al9o-e-t-139" value="" style="shape=waypoint;size=6;pointerEvents=1;points=[];fillColor=none;resizable=0;rotatable=0;perimeter=centerPerimeter;snapToPoint=1;strokeColor=inherit;align=center;verticalAlign=middle;fontFamily=Helvetica;fontSize=20;fontColor=default;html=1;strokeWidth=7;rounded=1;" vertex="1" parent="1">
          <mxGeometry x="410" y="3015" width="20" height="20" as="geometry" />
        </mxCell>
        <mxCell id="JfSDcFE3YVz7al9o-e-t-140" value="" style="shape=waypoint;size=6;pointerEvents=1;points=[];fillColor=none;resizable=0;rotatable=0;perimeter=centerPerimeter;snapToPoint=1;strokeColor=inherit;align=center;verticalAlign=middle;fontFamily=Helvetica;fontSize=20;fontColor=default;html=1;strokeWidth=7;rounded=1;" vertex="1" parent="1">
          <mxGeometry x="410" y="3079" width="20" height="20" as="geometry" />
        </mxCell>
        <mxCell id="JfSDcFE3YVz7al9o-e-t-141" value="" style="shape=waypoint;size=6;pointerEvents=1;points=[];fillColor=none;resizable=0;rotatable=0;perimeter=centerPerimeter;snapToPoint=1;strokeColor=inherit;align=center;verticalAlign=middle;fontFamily=Helvetica;fontSize=20;fontColor=default;html=1;strokeWidth=7;rounded=1;" vertex="1" parent="1">
          <mxGeometry x="410" y="3141" width="20" height="20" as="geometry" />
        </mxCell>
        <mxCell id="JfSDcFE3YVz7al9o-e-t-143" value="" style="shape=waypoint;size=6;pointerEvents=1;points=[];fillColor=none;resizable=0;rotatable=0;perimeter=centerPerimeter;snapToPoint=1;strokeColor=inherit;align=center;verticalAlign=middle;fontFamily=Helvetica;fontSize=20;fontColor=default;html=1;strokeWidth=7;rounded=1;" vertex="1" parent="1">
          <mxGeometry x="410" y="3277" width="20" height="20" as="geometry" />
        </mxCell>
        <mxCell id="JfSDcFE3YVz7al9o-e-t-144" value="" style="shape=waypoint;size=6;pointerEvents=1;points=[];fillColor=none;resizable=0;rotatable=0;perimeter=centerPerimeter;snapToPoint=1;strokeColor=inherit;align=center;verticalAlign=middle;fontFamily=Helvetica;fontSize=20;fontColor=default;html=1;strokeWidth=7;rounded=1;" vertex="1" parent="1">
          <mxGeometry x="410" y="3348" width="20" height="20" as="geometry" />
        </mxCell>
        <mxCell id="JfSDcFE3YVz7al9o-e-t-145" value="" style="shape=waypoint;size=6;pointerEvents=1;points=[];fillColor=none;resizable=0;rotatable=0;perimeter=centerPerimeter;snapToPoint=1;strokeColor=inherit;align=center;verticalAlign=middle;fontFamily=Helvetica;fontSize=20;fontColor=default;html=1;strokeWidth=7;rounded=1;" vertex="1" parent="1">
          <mxGeometry x="410" y="3428" width="20" height="20" as="geometry" />
        </mxCell>
        <mxCell id="JfSDcFE3YVz7al9o-e-t-146" value="" style="shape=waypoint;size=6;pointerEvents=1;points=[];fillColor=none;resizable=0;rotatable=0;perimeter=centerPerimeter;snapToPoint=1;strokeColor=inherit;align=center;verticalAlign=middle;fontFamily=Helvetica;fontSize=20;fontColor=default;html=1;strokeWidth=7;rounded=1;" vertex="1" parent="1">
          <mxGeometry x="489" y="3015" width="20" height="20" as="geometry" />
        </mxCell>
        <mxCell id="JfSDcFE3YVz7al9o-e-t-147" value="" style="shape=waypoint;size=6;pointerEvents=1;points=[];fillColor=none;resizable=0;rotatable=0;perimeter=centerPerimeter;snapToPoint=1;strokeColor=inherit;align=center;verticalAlign=middle;fontFamily=Helvetica;fontSize=20;fontColor=default;html=1;strokeWidth=7;rounded=1;" vertex="1" parent="1">
          <mxGeometry x="489" y="3079" width="20" height="20" as="geometry" />
        </mxCell>
        <mxCell id="JfSDcFE3YVz7al9o-e-t-148" value="" style="shape=waypoint;size=6;pointerEvents=1;points=[];fillColor=none;resizable=0;rotatable=0;perimeter=centerPerimeter;snapToPoint=1;strokeColor=inherit;align=center;verticalAlign=middle;fontFamily=Helvetica;fontSize=20;fontColor=default;html=1;strokeWidth=7;rounded=1;" vertex="1" parent="1">
          <mxGeometry x="489" y="3141" width="20" height="20" as="geometry" />
        </mxCell>
        <mxCell id="JfSDcFE3YVz7al9o-e-t-149" value="" style="shape=waypoint;size=6;pointerEvents=1;points=[];fillColor=none;resizable=0;rotatable=0;perimeter=centerPerimeter;snapToPoint=1;strokeColor=inherit;align=center;verticalAlign=middle;fontFamily=Helvetica;fontSize=20;fontColor=default;html=1;strokeWidth=7;rounded=1;" vertex="1" parent="1">
          <mxGeometry x="489" y="3213" width="20" height="20" as="geometry" />
        </mxCell>
        <mxCell id="JfSDcFE3YVz7al9o-e-t-150" value="" style="shape=waypoint;size=6;pointerEvents=1;points=[];fillColor=none;resizable=0;rotatable=0;perimeter=centerPerimeter;snapToPoint=1;strokeColor=inherit;align=center;verticalAlign=middle;fontFamily=Helvetica;fontSize=20;fontColor=default;html=1;strokeWidth=7;rounded=1;" vertex="1" parent="1">
          <mxGeometry x="489" y="3277" width="20" height="20" as="geometry" />
        </mxCell>
        <mxCell id="JfSDcFE3YVz7al9o-e-t-151" value="" style="shape=waypoint;size=6;pointerEvents=1;points=[];fillColor=none;resizable=0;rotatable=0;perimeter=centerPerimeter;snapToPoint=1;strokeColor=inherit;align=center;verticalAlign=middle;fontFamily=Helvetica;fontSize=20;fontColor=default;html=1;strokeWidth=7;rounded=1;" vertex="1" parent="1">
          <mxGeometry x="489" y="3348" width="20" height="20" as="geometry" />
        </mxCell>
        <mxCell id="JfSDcFE3YVz7al9o-e-t-152" value="" style="shape=waypoint;size=6;pointerEvents=1;points=[];fillColor=none;resizable=0;rotatable=0;perimeter=centerPerimeter;snapToPoint=1;strokeColor=inherit;align=center;verticalAlign=middle;fontFamily=Helvetica;fontSize=20;fontColor=default;html=1;strokeWidth=7;rounded=1;" vertex="1" parent="1">
          <mxGeometry x="489" y="3428" width="20" height="20" as="geometry" />
        </mxCell>
        <mxCell id="JfSDcFE3YVz7al9o-e-t-162" value="" style="shape=waypoint;size=6;pointerEvents=1;points=[];fillColor=none;resizable=0;rotatable=0;perimeter=centerPerimeter;snapToPoint=1;strokeColor=inherit;align=center;verticalAlign=middle;fontFamily=Helvetica;fontSize=20;fontColor=default;html=1;strokeWidth=7;rounded=1;" vertex="1" parent="1">
          <mxGeometry x="570" y="3015" width="20" height="20" as="geometry" />
        </mxCell>
        <mxCell id="JfSDcFE3YVz7al9o-e-t-163" value="" style="shape=waypoint;size=6;pointerEvents=1;points=[];fillColor=none;resizable=0;rotatable=0;perimeter=centerPerimeter;snapToPoint=1;strokeColor=inherit;align=center;verticalAlign=middle;fontFamily=Helvetica;fontSize=20;fontColor=default;html=1;strokeWidth=7;rounded=1;" vertex="1" parent="1">
          <mxGeometry x="570" y="3079" width="20" height="20" as="geometry" />
        </mxCell>
        <mxCell id="JfSDcFE3YVz7al9o-e-t-164" value="" style="shape=waypoint;size=6;pointerEvents=1;points=[];fillColor=none;resizable=0;rotatable=0;perimeter=centerPerimeter;snapToPoint=1;strokeColor=inherit;align=center;verticalAlign=middle;fontFamily=Helvetica;fontSize=20;fontColor=default;html=1;strokeWidth=7;rounded=1;" vertex="1" parent="1">
          <mxGeometry x="570" y="3141" width="20" height="20" as="geometry" />
        </mxCell>
        <mxCell id="JfSDcFE3YVz7al9o-e-t-165" value="" style="shape=waypoint;size=6;pointerEvents=1;points=[];fillColor=none;resizable=0;rotatable=0;perimeter=centerPerimeter;snapToPoint=1;strokeColor=inherit;align=center;verticalAlign=middle;fontFamily=Helvetica;fontSize=20;fontColor=default;html=1;strokeWidth=7;rounded=1;" vertex="1" parent="1">
          <mxGeometry x="570" y="3213" width="20" height="20" as="geometry" />
        </mxCell>
        <mxCell id="JfSDcFE3YVz7al9o-e-t-166" value="" style="shape=waypoint;size=6;pointerEvents=1;points=[];fillColor=none;resizable=0;rotatable=0;perimeter=centerPerimeter;snapToPoint=1;strokeColor=inherit;align=center;verticalAlign=middle;fontFamily=Helvetica;fontSize=20;fontColor=default;html=1;strokeWidth=7;rounded=1;" vertex="1" parent="1">
          <mxGeometry x="570" y="3277" width="20" height="20" as="geometry" />
        </mxCell>
        <mxCell id="JfSDcFE3YVz7al9o-e-t-167" value="" style="shape=waypoint;size=6;pointerEvents=1;points=[];fillColor=none;resizable=0;rotatable=0;perimeter=centerPerimeter;snapToPoint=1;strokeColor=inherit;align=center;verticalAlign=middle;fontFamily=Helvetica;fontSize=20;fontColor=default;html=1;strokeWidth=7;rounded=1;" vertex="1" parent="1">
          <mxGeometry x="570" y="3348" width="20" height="20" as="geometry" />
        </mxCell>
        <mxCell id="JfSDcFE3YVz7al9o-e-t-168" value="" style="shape=waypoint;size=6;pointerEvents=1;points=[];fillColor=none;resizable=0;rotatable=0;perimeter=centerPerimeter;snapToPoint=1;strokeColor=inherit;align=center;verticalAlign=middle;fontFamily=Helvetica;fontSize=20;fontColor=default;html=1;strokeWidth=7;rounded=1;" vertex="1" parent="1">
          <mxGeometry x="570" y="3428" width="20" height="20" as="geometry" />
        </mxCell>
        <mxCell id="JfSDcFE3YVz7al9o-e-t-169" value="" style="shape=waypoint;size=6;pointerEvents=1;points=[];fillColor=none;resizable=0;rotatable=0;perimeter=centerPerimeter;snapToPoint=1;strokeColor=inherit;align=center;verticalAlign=middle;fontFamily=Helvetica;fontSize=20;fontColor=default;html=1;strokeWidth=7;rounded=1;" vertex="1" parent="1">
          <mxGeometry x="659" y="3015" width="20" height="20" as="geometry" />
        </mxCell>
        <mxCell id="JfSDcFE3YVz7al9o-e-t-170" value="" style="shape=waypoint;size=6;pointerEvents=1;points=[];fillColor=none;resizable=0;rotatable=0;perimeter=centerPerimeter;snapToPoint=1;strokeColor=inherit;align=center;verticalAlign=middle;fontFamily=Helvetica;fontSize=20;fontColor=default;html=1;strokeWidth=7;rounded=1;" vertex="1" parent="1">
          <mxGeometry x="659" y="3079" width="20" height="20" as="geometry" />
        </mxCell>
        <mxCell id="JfSDcFE3YVz7al9o-e-t-171" value="" style="shape=waypoint;size=6;pointerEvents=1;points=[];fillColor=none;resizable=0;rotatable=0;perimeter=centerPerimeter;snapToPoint=1;strokeColor=inherit;align=center;verticalAlign=middle;fontFamily=Helvetica;fontSize=20;fontColor=default;html=1;strokeWidth=7;rounded=1;" vertex="1" parent="1">
          <mxGeometry x="659" y="3141" width="20" height="20" as="geometry" />
        </mxCell>
        <mxCell id="JfSDcFE3YVz7al9o-e-t-172" value="" style="shape=waypoint;size=6;pointerEvents=1;points=[];fillColor=none;resizable=0;rotatable=0;perimeter=centerPerimeter;snapToPoint=1;strokeColor=inherit;align=center;verticalAlign=middle;fontFamily=Helvetica;fontSize=20;fontColor=default;html=1;strokeWidth=7;rounded=1;" vertex="1" parent="1">
          <mxGeometry x="659" y="3213" width="20" height="20" as="geometry" />
        </mxCell>
        <mxCell id="JfSDcFE3YVz7al9o-e-t-173" value="" style="shape=waypoint;size=6;pointerEvents=1;points=[];fillColor=none;resizable=0;rotatable=0;perimeter=centerPerimeter;snapToPoint=1;strokeColor=inherit;align=center;verticalAlign=middle;fontFamily=Helvetica;fontSize=20;fontColor=default;html=1;strokeWidth=7;rounded=1;" vertex="1" parent="1">
          <mxGeometry x="659" y="3277" width="20" height="20" as="geometry" />
        </mxCell>
        <mxCell id="JfSDcFE3YVz7al9o-e-t-174" value="" style="shape=waypoint;size=6;pointerEvents=1;points=[];fillColor=none;resizable=0;rotatable=0;perimeter=centerPerimeter;snapToPoint=1;strokeColor=inherit;align=center;verticalAlign=middle;fontFamily=Helvetica;fontSize=20;fontColor=default;html=1;strokeWidth=7;rounded=1;" vertex="1" parent="1">
          <mxGeometry x="659" y="3348" width="20" height="20" as="geometry" />
        </mxCell>
        <mxCell id="JfSDcFE3YVz7al9o-e-t-175" value="" style="shape=waypoint;size=6;pointerEvents=1;points=[];fillColor=none;resizable=0;rotatable=0;perimeter=centerPerimeter;snapToPoint=1;strokeColor=inherit;align=center;verticalAlign=middle;fontFamily=Helvetica;fontSize=20;fontColor=default;html=1;strokeWidth=7;rounded=1;" vertex="1" parent="1">
          <mxGeometry x="659" y="3428" width="20" height="20" as="geometry" />
        </mxCell>
        <mxCell id="JfSDcFE3YVz7al9o-e-t-176" value="m*" style="text;html=1;align=center;verticalAlign=middle;resizable=0;points=[];autosize=1;strokeColor=#d6b656;fillColor=#fff2cc;fontSize=30;fontFamily=Helvetica;rounded=1;" vertex="1" parent="1">
          <mxGeometry x="392.5" y="3202" width="55" height="48" as="geometry" />
        </mxCell>
        <mxCell id="JfSDcFE3YVz7al9o-e-t-180" value="" style="endArrow=none;html=1;rounded=0;strokeWidth=4;fillColor=#f8cecc;strokeColor=#b85450;" edge="1" parent="1">
          <mxGeometry width="50" height="50" relative="1" as="geometry">
            <mxPoint x="383" y="2989" as="sourcePoint" />
            <mxPoint x="383" y="2989" as="targetPoint" />
            <Array as="points">
              <mxPoint x="159" y="2989" />
              <mxPoint x="159" y="3183" />
              <mxPoint x="383" y="3183" />
            </Array>
          </mxGeometry>
        </mxCell>
        <mxCell id="JfSDcFE3YVz7al9o-e-t-182" value="" style="endArrow=none;html=1;rounded=0;strokeWidth=4;fillColor=#f8cecc;strokeColor=#b85450;" edge="1" parent="1">
          <mxGeometry width="50" height="50" relative="1" as="geometry">
            <mxPoint x="699" y="3263" as="sourcePoint" />
            <mxPoint x="699" y="3263" as="targetPoint" />
            <Array as="points">
              <mxPoint x="475" y="3263" />
              <mxPoint x="475" y="3457" />
              <mxPoint x="699" y="3457" />
            </Array>
          </mxGeometry>
        </mxCell>
        <mxCell id="JfSDcFE3YVz7al9o-e-t-183" value="" style="endArrow=none;html=1;rounded=0;labelBackgroundColor=default;strokeColor=#6c8ebf;strokeWidth=4;align=center;verticalAlign=middle;fontFamily=Helvetica;fontSize=11;fontColor=default;fillColor=#dae8fc;shape=connector;" edge="1" parent="1">
          <mxGeometry width="50" height="50" relative="1" as="geometry">
            <mxPoint x="694" y="2981" as="sourcePoint" />
            <mxPoint x="694" y="2981" as="targetPoint" />
            <Array as="points">
              <mxPoint x="699" y="3248" />
              <mxPoint x="473" y="3242" />
              <mxPoint x="473" y="3176" />
              <mxPoint x="403" y="3176" />
              <mxPoint x="397" y="2994" />
            </Array>
          </mxGeometry>
        </mxCell>
        <mxCell id="JfSDcFE3YVz7al9o-e-t-184" value="" style="endArrow=none;html=1;rounded=0;labelBackgroundColor=default;strokeColor=#6c8ebf;strokeWidth=4;align=center;verticalAlign=middle;fontFamily=Helvetica;fontSize=11;fontColor=default;fillColor=#dae8fc;shape=connector;" edge="1" parent="1">
          <mxGeometry width="50" height="50" relative="1" as="geometry">
            <mxPoint x="440" y="3463" as="sourcePoint" />
            <mxPoint x="440" y="3471" as="targetPoint" />
            <Array as="points">
              <mxPoint x="440" y="3271" />
              <mxPoint x="365" y="3271" />
              <mxPoint x="365" y="3204" />
              <mxPoint x="158" y="3200" />
              <mxPoint x="162" y="3471" />
            </Array>
          </mxGeometry>
        </mxCell>
        <mxCell id="JfSDcFE3YVz7al9o-e-t-185" value="3R" style="text;html=1;align=center;verticalAlign=middle;resizable=0;points=[];autosize=1;strokeColor=none;fillColor=none;fontSize=30;fontFamily=Comic Sans MS;fontColor=default;" vertex="1" parent="1">
          <mxGeometry x="226" y="2914" width="55" height="48" as="geometry" />
        </mxCell>
        <mxCell id="JfSDcFE3YVz7al9o-e-t-186" value="3R" style="text;html=1;align=center;verticalAlign=middle;resizable=0;points=[];autosize=1;strokeColor=none;fillColor=none;fontSize=30;fontFamily=Comic Sans MS;fontColor=default;" vertex="1" parent="1">
          <mxGeometry x="550" y="3485" width="55" height="48" as="geometry" />
        </mxCell>
        <mxCell id="JfSDcFE3YVz7al9o-e-t-187" value="4R + 3" style="text;html=1;align=center;verticalAlign=middle;resizable=0;points=[];autosize=1;strokeColor=none;fillColor=none;fontSize=30;fontFamily=Comic Sans MS;fontColor=default;" vertex="1" parent="1">
          <mxGeometry x="467" y="2903" width="106" height="48" as="geometry" />
        </mxCell>
        <mxCell id="JfSDcFE3YVz7al9o-e-t-188" value="4R + 3" style="text;html=1;align=center;verticalAlign=middle;resizable=0;points=[];autosize=1;strokeColor=none;fillColor=none;fontSize=30;fontFamily=Comic Sans MS;fontColor=default;" vertex="1" parent="1">
          <mxGeometry x="236" y="3488" width="106" height="48" as="geometry" />
        </mxCell>
        <mxCell id="JfSDcFE3YVz7al9o-e-t-189" value="&amp;nbsp;当分组为7时&lt;br&gt;分组求每组的中位数时间复杂度为 O(n)&lt;br&gt;从中位数中求中位数的时间复杂度为W（ n / 7)&lt;br&gt;当我们的A 和 D都为比中位数大，或者都比中位数&lt;br&gt;小时，为最坏时间复杂度 W ( 5/7 * n)" style="text;html=1;align=left;verticalAlign=middle;resizable=0;points=[];autosize=1;strokeColor=none;fillColor=none;fontSize=30;fontFamily=Comic Sans MS;fontColor=default;" vertex="1" parent="1">
          <mxGeometry x="102" y="3699" width="680" height="192" as="geometry" />
        </mxCell>
        <mxCell id="JfSDcFE3YVz7al9o-e-t-190" value="所以复杂度为W(n) = W( n/ 7) + W(5/7 * n) + tn （t为常数）" style="text;html=1;align=center;verticalAlign=middle;resizable=0;points=[];autosize=1;strokeColor=none;fillColor=none;fontSize=30;fontFamily=Comic Sans MS;fontColor=default;" vertex="1" parent="1">
          <mxGeometry x="110.5" y="3941" width="843" height="48" as="geometry" />
        </mxCell>
        <mxCell id="JfSDcFE3YVz7al9o-e-t-192" value="递归树法求解：" style="text;html=1;align=center;verticalAlign=middle;resizable=0;points=[];autosize=1;strokeColor=none;fillColor=none;fontSize=30;fontFamily=Comic Sans MS;fontColor=default;" vertex="1" parent="1">
          <mxGeometry x="86.5" y="4058" width="228" height="48" as="geometry" />
        </mxCell>
        <mxCell id="JfSDcFE3YVz7al9o-e-t-203" style="edgeStyle=none;shape=connector;rounded=0;orthogonalLoop=1;jettySize=auto;html=1;labelBackgroundColor=default;strokeColor=#b85450;strokeWidth=4;align=center;verticalAlign=middle;fontFamily=Comic Sans MS;fontSize=30;fontColor=default;endArrow=none;fillColor=#f8cecc;" edge="1" parent="1" source="JfSDcFE3YVz7al9o-e-t-193" target="JfSDcFE3YVz7al9o-e-t-194">
          <mxGeometry relative="1" as="geometry" />
        </mxCell>
        <mxCell id="JfSDcFE3YVz7al9o-e-t-204" style="edgeStyle=none;shape=connector;rounded=0;orthogonalLoop=1;jettySize=auto;html=1;labelBackgroundColor=default;strokeColor=#b85450;strokeWidth=4;align=center;verticalAlign=middle;fontFamily=Comic Sans MS;fontSize=30;fontColor=default;endArrow=none;fillColor=#f8cecc;" edge="1" parent="1" source="JfSDcFE3YVz7al9o-e-t-193" target="JfSDcFE3YVz7al9o-e-t-195">
          <mxGeometry relative="1" as="geometry" />
        </mxCell>
        <mxCell id="JfSDcFE3YVz7al9o-e-t-193" value="Tn" style="text;html=1;align=center;verticalAlign=middle;resizable=0;points=[];autosize=1;strokeColor=none;fillColor=none;fontSize=30;fontFamily=Comic Sans MS;fontColor=default;" vertex="1" parent="1">
          <mxGeometry x="452" y="4054" width="54" height="48" as="geometry" />
        </mxCell>
        <mxCell id="JfSDcFE3YVz7al9o-e-t-205" style="edgeStyle=none;shape=connector;rounded=0;orthogonalLoop=1;jettySize=auto;html=1;labelBackgroundColor=default;strokeColor=#b85450;strokeWidth=4;align=center;verticalAlign=middle;fontFamily=Comic Sans MS;fontSize=30;fontColor=default;endArrow=none;fillColor=#f8cecc;" edge="1" parent="1" source="JfSDcFE3YVz7al9o-e-t-194" target="JfSDcFE3YVz7al9o-e-t-197">
          <mxGeometry relative="1" as="geometry" />
        </mxCell>
        <mxCell id="JfSDcFE3YVz7al9o-e-t-206" style="edgeStyle=none;shape=connector;rounded=0;orthogonalLoop=1;jettySize=auto;html=1;labelBackgroundColor=default;strokeColor=#b85450;strokeWidth=4;align=center;verticalAlign=middle;fontFamily=Comic Sans MS;fontSize=30;fontColor=default;endArrow=none;fillColor=#f8cecc;" edge="1" parent="1" source="JfSDcFE3YVz7al9o-e-t-194" target="JfSDcFE3YVz7al9o-e-t-198">
          <mxGeometry relative="1" as="geometry" />
        </mxCell>
        <mxCell id="JfSDcFE3YVz7al9o-e-t-194" value="Tn / 7" style="text;html=1;align=center;verticalAlign=middle;resizable=0;points=[];autosize=1;strokeColor=none;fillColor=none;fontSize=30;fontFamily=Comic Sans MS;fontColor=default;" vertex="1" parent="1">
          <mxGeometry x="286.5" y="4190" width="106" height="48" as="geometry" />
        </mxCell>
        <mxCell id="JfSDcFE3YVz7al9o-e-t-207" style="edgeStyle=none;shape=connector;rounded=0;orthogonalLoop=1;jettySize=auto;html=1;labelBackgroundColor=default;strokeColor=#b85450;strokeWidth=4;align=center;verticalAlign=middle;fontFamily=Comic Sans MS;fontSize=30;fontColor=default;endArrow=none;fillColor=#f8cecc;" edge="1" parent="1" source="JfSDcFE3YVz7al9o-e-t-195" target="JfSDcFE3YVz7al9o-e-t-201">
          <mxGeometry relative="1" as="geometry" />
        </mxCell>
        <mxCell id="JfSDcFE3YVz7al9o-e-t-208" style="edgeStyle=none;shape=connector;rounded=0;orthogonalLoop=1;jettySize=auto;html=1;labelBackgroundColor=default;strokeColor=#b85450;strokeWidth=4;align=center;verticalAlign=middle;fontFamily=Comic Sans MS;fontSize=30;fontColor=default;endArrow=none;fillColor=#f8cecc;" edge="1" parent="1" source="JfSDcFE3YVz7al9o-e-t-195" target="JfSDcFE3YVz7al9o-e-t-202">
          <mxGeometry relative="1" as="geometry" />
        </mxCell>
        <mxCell id="JfSDcFE3YVz7al9o-e-t-195" value="5/7 * Tn" style="text;html=1;align=center;verticalAlign=middle;resizable=0;points=[];autosize=1;strokeColor=none;fillColor=none;fontSize=30;fontFamily=Comic Sans MS;fontColor=default;" vertex="1" parent="1">
          <mxGeometry x="579" y="4187" width="140" height="48" as="geometry" />
        </mxCell>
        <mxCell id="JfSDcFE3YVz7al9o-e-t-197" value="Tn/49" style="text;html=1;align=center;verticalAlign=middle;resizable=0;points=[];autosize=1;strokeColor=none;fillColor=none;fontSize=30;fontFamily=Comic Sans MS;fontColor=default;" vertex="1" parent="1">
          <mxGeometry x="173" y="4340" width="106" height="48" as="geometry" />
        </mxCell>
        <mxCell id="JfSDcFE3YVz7al9o-e-t-198" value="5/49 * Tn" style="text;html=1;align=center;verticalAlign=middle;resizable=0;points=[];autosize=1;strokeColor=none;fillColor=none;fontSize=30;fontFamily=Comic Sans MS;fontColor=default;" vertex="1" parent="1">
          <mxGeometry x="319.5" y="4340" width="158" height="48" as="geometry" />
        </mxCell>
        <mxCell id="JfSDcFE3YVz7al9o-e-t-201" value="5/49 * Tn" style="text;html=1;align=center;verticalAlign=middle;resizable=0;points=[];autosize=1;strokeColor=none;fillColor=none;fontSize=30;fontFamily=Comic Sans MS;fontColor=default;" vertex="1" parent="1">
          <mxGeometry x="484" y="4340" width="158" height="48" as="geometry" />
        </mxCell>
        <mxCell id="JfSDcFE3YVz7al9o-e-t-202" value="25/49 * Tn" style="text;html=1;align=center;verticalAlign=middle;resizable=0;points=[];autosize=1;strokeColor=none;fillColor=none;fontSize=30;fontFamily=Comic Sans MS;fontColor=default;" vertex="1" parent="1">
          <mxGeometry x="670" y="4340" width="177" height="48" as="geometry" />
        </mxCell>
        <mxCell id="JfSDcFE3YVz7al9o-e-t-209" value="W(n) &amp;lt;= Tn + 6/7 * Tn + (6/7) * (6/7) * Tn + .....&amp;nbsp;&lt;br&gt;&amp;lt;= Tlogn * n + O(n)" style="text;html=1;align=center;verticalAlign=middle;resizable=0;points=[];autosize=1;strokeColor=none;fillColor=none;fontSize=30;fontFamily=Comic Sans MS;fontColor=default;" vertex="1" parent="1">
          <mxGeometry x="116" y="4418" width="685" height="84" as="geometry" />
        </mxCell>
        <mxCell id="JfSDcFE3YVz7al9o-e-t-212" value="" style="shape=waypoint;size=6;pointerEvents=1;points=[];fillColor=none;resizable=0;rotatable=0;perimeter=centerPerimeter;snapToPoint=1;strokeColor=inherit;align=center;verticalAlign=middle;fontFamily=Helvetica;fontSize=20;fontColor=default;html=1;strokeWidth=7;rounded=1;" vertex="1" parent="1">
          <mxGeometry x="1052" y="3164" width="20" height="20" as="geometry" />
        </mxCell>
        <mxCell id="JfSDcFE3YVz7al9o-e-t-213" value="" style="shape=waypoint;size=6;pointerEvents=1;points=[];fillColor=none;resizable=0;rotatable=0;perimeter=centerPerimeter;snapToPoint=1;strokeColor=inherit;align=center;verticalAlign=middle;fontFamily=Helvetica;fontSize=20;fontColor=default;html=1;strokeWidth=7;rounded=1;" vertex="1" parent="1">
          <mxGeometry x="1052" y="3236" width="20" height="20" as="geometry" />
        </mxCell>
        <mxCell id="JfSDcFE3YVz7al9o-e-t-214" value="" style="shape=waypoint;size=6;pointerEvents=1;points=[];fillColor=none;resizable=0;rotatable=0;perimeter=centerPerimeter;snapToPoint=1;strokeColor=inherit;align=center;verticalAlign=middle;fontFamily=Helvetica;fontSize=20;fontColor=default;html=1;strokeWidth=7;rounded=1;" vertex="1" parent="1">
          <mxGeometry x="1052" y="3300" width="20" height="20" as="geometry" />
        </mxCell>
        <mxCell id="JfSDcFE3YVz7al9o-e-t-219" value="" style="shape=waypoint;size=6;pointerEvents=1;points=[];fillColor=none;resizable=0;rotatable=0;perimeter=centerPerimeter;snapToPoint=1;strokeColor=inherit;align=center;verticalAlign=middle;fontFamily=Helvetica;fontSize=20;fontColor=default;html=1;strokeWidth=7;rounded=1;" vertex="1" parent="1">
          <mxGeometry x="1123" y="3164" width="20" height="20" as="geometry" />
        </mxCell>
        <mxCell id="JfSDcFE3YVz7al9o-e-t-220" value="" style="shape=waypoint;size=6;pointerEvents=1;points=[];fillColor=none;resizable=0;rotatable=0;perimeter=centerPerimeter;snapToPoint=1;strokeColor=inherit;align=center;verticalAlign=middle;fontFamily=Helvetica;fontSize=20;fontColor=default;html=1;strokeWidth=7;rounded=1;" vertex="1" parent="1">
          <mxGeometry x="1123" y="3236" width="20" height="20" as="geometry" />
        </mxCell>
        <mxCell id="JfSDcFE3YVz7al9o-e-t-221" value="" style="shape=waypoint;size=6;pointerEvents=1;points=[];fillColor=none;resizable=0;rotatable=0;perimeter=centerPerimeter;snapToPoint=1;strokeColor=inherit;align=center;verticalAlign=middle;fontFamily=Helvetica;fontSize=20;fontColor=default;html=1;strokeWidth=7;rounded=1;" vertex="1" parent="1">
          <mxGeometry x="1123" y="3300" width="20" height="20" as="geometry" />
        </mxCell>
        <mxCell id="JfSDcFE3YVz7al9o-e-t-226" value="" style="shape=waypoint;size=6;pointerEvents=1;points=[];fillColor=none;resizable=0;rotatable=0;perimeter=centerPerimeter;snapToPoint=1;strokeColor=inherit;align=center;verticalAlign=middle;fontFamily=Helvetica;fontSize=20;fontColor=default;html=1;strokeWidth=7;rounded=1;" vertex="1" parent="1">
          <mxGeometry x="1201" y="3164" width="20" height="20" as="geometry" />
        </mxCell>
        <mxCell id="JfSDcFE3YVz7al9o-e-t-227" value="" style="shape=waypoint;size=6;pointerEvents=1;points=[];fillColor=none;resizable=0;rotatable=0;perimeter=centerPerimeter;snapToPoint=1;strokeColor=inherit;align=center;verticalAlign=middle;fontFamily=Helvetica;fontSize=20;fontColor=default;html=1;strokeWidth=7;rounded=1;" vertex="1" parent="1">
          <mxGeometry x="1201" y="3236" width="20" height="20" as="geometry" />
        </mxCell>
        <mxCell id="JfSDcFE3YVz7al9o-e-t-228" value="" style="shape=waypoint;size=6;pointerEvents=1;points=[];fillColor=none;resizable=0;rotatable=0;perimeter=centerPerimeter;snapToPoint=1;strokeColor=inherit;align=center;verticalAlign=middle;fontFamily=Helvetica;fontSize=20;fontColor=default;html=1;strokeWidth=7;rounded=1;" vertex="1" parent="1">
          <mxGeometry x="1201" y="3300" width="20" height="20" as="geometry" />
        </mxCell>
        <mxCell id="JfSDcFE3YVz7al9o-e-t-233" value="" style="shape=waypoint;size=6;pointerEvents=1;points=[];fillColor=none;resizable=0;rotatable=0;perimeter=centerPerimeter;snapToPoint=1;strokeColor=inherit;align=center;verticalAlign=middle;fontFamily=Helvetica;fontSize=20;fontColor=default;html=1;strokeWidth=7;rounded=1;" vertex="1" parent="1">
          <mxGeometry x="1278" y="3164" width="20" height="20" as="geometry" />
        </mxCell>
        <mxCell id="JfSDcFE3YVz7al9o-e-t-234" value="" style="shape=waypoint;size=6;pointerEvents=1;points=[];fillColor=none;resizable=0;rotatable=0;perimeter=centerPerimeter;snapToPoint=1;strokeColor=inherit;align=center;verticalAlign=middle;fontFamily=Helvetica;fontSize=20;fontColor=default;html=1;strokeWidth=7;rounded=1;" vertex="1" parent="1">
          <mxGeometry x="1278" y="3300" width="20" height="20" as="geometry" />
        </mxCell>
        <mxCell id="JfSDcFE3YVz7al9o-e-t-239" value="" style="shape=waypoint;size=6;pointerEvents=1;points=[];fillColor=none;resizable=0;rotatable=0;perimeter=centerPerimeter;snapToPoint=1;strokeColor=inherit;align=center;verticalAlign=middle;fontFamily=Helvetica;fontSize=20;fontColor=default;html=1;strokeWidth=7;rounded=1;" vertex="1" parent="1">
          <mxGeometry x="1357" y="3164" width="20" height="20" as="geometry" />
        </mxCell>
        <mxCell id="JfSDcFE3YVz7al9o-e-t-240" value="" style="shape=waypoint;size=6;pointerEvents=1;points=[];fillColor=none;resizable=0;rotatable=0;perimeter=centerPerimeter;snapToPoint=1;strokeColor=inherit;align=center;verticalAlign=middle;fontFamily=Helvetica;fontSize=20;fontColor=default;html=1;strokeWidth=7;rounded=1;" vertex="1" parent="1">
          <mxGeometry x="1357" y="3236" width="20" height="20" as="geometry" />
        </mxCell>
        <mxCell id="JfSDcFE3YVz7al9o-e-t-241" value="" style="shape=waypoint;size=6;pointerEvents=1;points=[];fillColor=none;resizable=0;rotatable=0;perimeter=centerPerimeter;snapToPoint=1;strokeColor=inherit;align=center;verticalAlign=middle;fontFamily=Helvetica;fontSize=20;fontColor=default;html=1;strokeWidth=7;rounded=1;" vertex="1" parent="1">
          <mxGeometry x="1357" y="3300" width="20" height="20" as="geometry" />
        </mxCell>
        <mxCell id="JfSDcFE3YVz7al9o-e-t-246" value="" style="shape=waypoint;size=6;pointerEvents=1;points=[];fillColor=none;resizable=0;rotatable=0;perimeter=centerPerimeter;snapToPoint=1;strokeColor=inherit;align=center;verticalAlign=middle;fontFamily=Helvetica;fontSize=20;fontColor=default;html=1;strokeWidth=7;rounded=1;" vertex="1" parent="1">
          <mxGeometry x="1438" y="3164" width="20" height="20" as="geometry" />
        </mxCell>
        <mxCell id="JfSDcFE3YVz7al9o-e-t-247" value="" style="shape=waypoint;size=6;pointerEvents=1;points=[];fillColor=none;resizable=0;rotatable=0;perimeter=centerPerimeter;snapToPoint=1;strokeColor=inherit;align=center;verticalAlign=middle;fontFamily=Helvetica;fontSize=20;fontColor=default;html=1;strokeWidth=7;rounded=1;" vertex="1" parent="1">
          <mxGeometry x="1438" y="3236" width="20" height="20" as="geometry" />
        </mxCell>
        <mxCell id="JfSDcFE3YVz7al9o-e-t-248" value="" style="shape=waypoint;size=6;pointerEvents=1;points=[];fillColor=none;resizable=0;rotatable=0;perimeter=centerPerimeter;snapToPoint=1;strokeColor=inherit;align=center;verticalAlign=middle;fontFamily=Helvetica;fontSize=20;fontColor=default;html=1;strokeWidth=7;rounded=1;" vertex="1" parent="1">
          <mxGeometry x="1438" y="3300" width="20" height="20" as="geometry" />
        </mxCell>
        <mxCell id="JfSDcFE3YVz7al9o-e-t-253" value="" style="shape=waypoint;size=6;pointerEvents=1;points=[];fillColor=none;resizable=0;rotatable=0;perimeter=centerPerimeter;snapToPoint=1;strokeColor=inherit;align=center;verticalAlign=middle;fontFamily=Helvetica;fontSize=20;fontColor=default;html=1;strokeWidth=7;rounded=1;" vertex="1" parent="1">
          <mxGeometry x="1527" y="3164" width="20" height="20" as="geometry" />
        </mxCell>
        <mxCell id="JfSDcFE3YVz7al9o-e-t-254" value="" style="shape=waypoint;size=6;pointerEvents=1;points=[];fillColor=none;resizable=0;rotatable=0;perimeter=centerPerimeter;snapToPoint=1;strokeColor=inherit;align=center;verticalAlign=middle;fontFamily=Helvetica;fontSize=20;fontColor=default;html=1;strokeWidth=7;rounded=1;" vertex="1" parent="1">
          <mxGeometry x="1527" y="3236" width="20" height="20" as="geometry" />
        </mxCell>
        <mxCell id="JfSDcFE3YVz7al9o-e-t-255" value="" style="shape=waypoint;size=6;pointerEvents=1;points=[];fillColor=none;resizable=0;rotatable=0;perimeter=centerPerimeter;snapToPoint=1;strokeColor=inherit;align=center;verticalAlign=middle;fontFamily=Helvetica;fontSize=20;fontColor=default;html=1;strokeWidth=7;rounded=1;" vertex="1" parent="1">
          <mxGeometry x="1527" y="3300" width="20" height="20" as="geometry" />
        </mxCell>
        <mxCell id="JfSDcFE3YVz7al9o-e-t-258" value="m*" style="text;html=1;align=center;verticalAlign=middle;resizable=0;points=[];autosize=1;strokeColor=#d6b656;fillColor=#fff2cc;fontSize=30;fontFamily=Helvetica;rounded=1;" vertex="1" parent="1">
          <mxGeometry x="1260.5" y="3225" width="55" height="48" as="geometry" />
        </mxCell>
        <mxCell id="JfSDcFE3YVz7al9o-e-t-259" value="" style="endArrow=none;html=1;rounded=0;strokeWidth=4;fillColor=#f8cecc;strokeColor=#b85450;" edge="1" parent="1">
          <mxGeometry width="50" height="50" relative="1" as="geometry">
            <mxPoint x="1251" y="3143" as="sourcePoint" />
            <mxPoint x="1251" y="3143" as="targetPoint" />
            <Array as="points">
              <mxPoint x="1027" y="3148" />
              <mxPoint x="1027" y="3206" />
              <mxPoint x="1251" y="3206" />
            </Array>
          </mxGeometry>
        </mxCell>
        <mxCell id="JfSDcFE3YVz7al9o-e-t-260" value="" style="endArrow=none;html=1;rounded=0;strokeWidth=4;fillColor=#f8cecc;strokeColor=#b85450;" edge="1" parent="1">
          <mxGeometry width="50" height="50" relative="1" as="geometry">
            <mxPoint x="1563" y="3288" as="sourcePoint" />
            <mxPoint x="1563" y="3288" as="targetPoint" />
            <Array as="points">
              <mxPoint x="1339" y="3288" />
              <mxPoint x="1339" y="3343" />
              <mxPoint x="1558" y="3343" />
            </Array>
          </mxGeometry>
        </mxCell>
        <mxCell id="JfSDcFE3YVz7al9o-e-t-261" value="" style="endArrow=none;html=1;rounded=0;labelBackgroundColor=default;strokeColor=#6c8ebf;strokeWidth=4;align=center;verticalAlign=middle;fontFamily=Helvetica;fontSize=11;fontColor=default;fillColor=#dae8fc;shape=connector;" edge="1" parent="1">
          <mxGeometry width="50" height="50" relative="1" as="geometry">
            <mxPoint x="1562" y="3140" as="sourcePoint" />
            <mxPoint x="1562" y="3145" as="targetPoint" />
            <Array as="points">
              <mxPoint x="1567" y="3271" />
              <mxPoint x="1341" y="3265" />
              <mxPoint x="1341" y="3199" />
              <mxPoint x="1271" y="3199" />
              <mxPoint x="1271" y="3140" />
            </Array>
          </mxGeometry>
        </mxCell>
        <mxCell id="JfSDcFE3YVz7al9o-e-t-262" value="" style="endArrow=none;html=1;rounded=0;labelBackgroundColor=default;strokeColor=#6c8ebf;strokeWidth=4;align=center;verticalAlign=middle;fontFamily=Helvetica;fontSize=11;fontColor=default;fillColor=#dae8fc;shape=connector;" edge="1" parent="1">
          <mxGeometry width="50" height="50" relative="1" as="geometry">
            <mxPoint x="1308" y="3344" as="sourcePoint" />
            <mxPoint x="1312" y="3344" as="targetPoint" />
            <Array as="points">
              <mxPoint x="1308" y="3294" />
              <mxPoint x="1233" y="3294" />
              <mxPoint x="1233" y="3227" />
              <mxPoint x="1026" y="3223" />
              <mxPoint x="1026" y="3344" />
            </Array>
          </mxGeometry>
        </mxCell>
        <mxCell id="JfSDcFE3YVz7al9o-e-t-263" value="1R" style="text;html=1;align=center;verticalAlign=middle;resizable=0;points=[];autosize=1;strokeColor=none;fillColor=none;fontSize=30;fontFamily=Comic Sans MS;fontColor=default;" vertex="1" parent="1">
          <mxGeometry x="1101" y="3067" width="50" height="48" as="geometry" />
        </mxCell>
        <mxCell id="JfSDcFE3YVz7al9o-e-t-264" value="1R" style="text;html=1;align=center;verticalAlign=middle;resizable=0;points=[];autosize=1;strokeColor=none;fillColor=none;fontSize=30;fontFamily=Comic Sans MS;fontColor=default;" vertex="1" parent="1">
          <mxGeometry x="1423.5" y="3389" width="50" height="48" as="geometry" />
        </mxCell>
        <mxCell id="JfSDcFE3YVz7al9o-e-t-265" value="2R + 1" style="text;html=1;align=center;verticalAlign=middle;resizable=0;points=[];autosize=1;strokeColor=none;fillColor=none;fontSize=30;fontFamily=Comic Sans MS;fontColor=default;" vertex="1" parent="1">
          <mxGeometry x="1353" y="3058" width="101" height="48" as="geometry" />
        </mxCell>
        <mxCell id="JfSDcFE3YVz7al9o-e-t-266" value="2R + 1" style="text;html=1;align=center;verticalAlign=middle;resizable=0;points=[];autosize=1;strokeColor=none;fillColor=none;fontSize=30;fontFamily=Comic Sans MS;fontColor=default;" vertex="1" parent="1">
          <mxGeometry x="1091" y="3395" width="101" height="48" as="geometry" />
        </mxCell>
        <mxCell id="JfSDcFE3YVz7al9o-e-t-267" value="&amp;nbsp;当分组为3时&lt;br&gt;分组求每组的中位数时间复杂度为 n&lt;br&gt;从中位数中求中位数的时间复杂度为W（ n / 3)&lt;br&gt;当我们的A 和 D都为比中位数大，或者都比中位数&lt;br&gt;小时，为最坏时间复杂度 W ( 2/3 * n)" style="text;html=1;align=left;verticalAlign=middle;resizable=0;points=[];autosize=1;strokeColor=none;fillColor=none;fontSize=30;fontFamily=Comic Sans MS;fontColor=default;" vertex="1" parent="1">
          <mxGeometry x="1033.5" y="3688" width="680" height="192" as="geometry" />
        </mxCell>
        <mxCell id="JfSDcFE3YVz7al9o-e-t-268" value="所以复杂度为W(n) = W( n/ 3) + W(2 * n /3) + tn （t为常数）&lt;br&gt;" style="text;html=1;align=center;verticalAlign=middle;resizable=0;points=[];autosize=1;strokeColor=none;fillColor=none;fontSize=30;fontFamily=Comic Sans MS;fontColor=default;" vertex="1" parent="1">
          <mxGeometry x="1038" y="3930" width="852" height="48" as="geometry" />
        </mxCell>
        <mxCell id="JfSDcFE3YVz7al9o-e-t-284" value="每层递归只会增加复杂度，根据递推公式可以判断总体复杂度大于logn * n，故不为线性" style="text;html=1;align=center;verticalAlign=middle;resizable=0;points=[];autosize=1;strokeColor=none;fillColor=none;fontSize=30;fontFamily=Comic Sans MS;fontColor=default;" vertex="1" parent="1">
          <mxGeometry x="1033.5" y="4181" width="1173" height="48" as="geometry" />
        </mxCell>
        <mxCell id="JfSDcFE3YVz7al9o-e-t-285" value="计科21-02韩子昂 542107090106" style="text;html=1;align=center;verticalAlign=middle;resizable=0;points=[];autosize=1;strokeColor=none;fillColor=none;fontSize=30;fontFamily=Comic Sans MS;fontColor=default;" vertex="1" parent="1">
          <mxGeometry x="86.5" y="2799" width="468" height="48" as="geometry" />
        </mxCell>
        <mxCell id="g1SS61qcvGyBM4TKS6zw-3" value="&lt;span style=&quot;font-size: 30px;&quot;&gt;W(n) &amp;gt;= T(n / 3) * log(n / 3) + T(2 * n / 3) * log(2n / 3) + O(n)&lt;br style=&quot;font-size: 30px;&quot;&gt;&amp;gt;= Tn * logn + O(n)&lt;br style=&quot;font-size: 30px;&quot;&gt;&lt;/span&gt;" style="text;html=1;align=center;verticalAlign=middle;resizable=0;points=[];autosize=1;strokeColor=none;fillColor=none;fontSize=30;fontFamily=Comic Sans MS;" vertex="1" parent="1">
          <mxGeometry x="1050" y="4030" width="874" height="84" as="geometry" />
        </mxCell>
        <mxCell id="Kn0KR4TepbjF0Tz2aRPG-1" value="总：6 * n / 7" style="text;html=1;align=center;verticalAlign=middle;resizable=0;points=[];autosize=1;strokeColor=none;fillColor=none;fontSize=30;" vertex="1" parent="1">
          <mxGeometry x="78" y="4187" width="181" height="48" as="geometry" />
        </mxCell>
        <mxCell id="Kn0KR4TepbjF0Tz2aRPG-2" value="总：36 * n / 49" style="text;html=1;align=center;verticalAlign=middle;resizable=0;points=[];autosize=1;strokeColor=none;fillColor=none;fontSize=30;" vertex="1" parent="1">
          <mxGeometry x="-39" y="4340" width="215" height="48" as="geometry" />
        </mxCell>
        <mxCell id="Kn0KR4TepbjF0Tz2aRPG-4" value="W(n) &amp;lt; Tlogn * n + O(n)&amp;nbsp;&lt;br&gt;故时间复杂度为线性" style="text;html=1;align=center;verticalAlign=middle;resizable=0;points=[];autosize=1;strokeColor=none;fillColor=none;fontSize=30;fontFamily=Comic Sans MS;fontColor=default;" vertex="1" parent="1">
          <mxGeometry x="85" y="4559" width="345" height="84" as="geometry" />
        </mxCell>
      </root>
    </mxGraphModel>
  </diagram>
</mxfile>
